<svg width="54" height="63" viewBox="0 0 54 63" fill="none" xmlns="http://www.w3.org/2000/svg">
<g filter="url(#filter0_d_94_9327)">
<path opacity="0.3" d="M7.8857 11.2856L46.1143 11.2856C46.8764 11.2856 47.5 11.9288 47.5 12.7148L47.5 36.2307C47.2032 36.6939 46.6935 37 46.1143 37L7.8857 37C7.30708 37 6.79741 36.6939 6.5 36.2307L6.5 12.7148C6.5006 11.9288 7.12419 11.2856 7.8857 11.2856Z" fill="#383838"/>
<path d="M47.5 35.2864C47.5 36.0718 46.877 36.7143 46.1143 36.7143L7.8857 36.7143C7.12419 36.7143 6.5 36.0718 6.5 35.2864L6.5 8.42916C6.5 7.64315 7.12359 7 7.8857 7L46.1143 7C46.8764 7 47.5 7.64315 47.5 8.42916L47.5 35.2864Z" fill="white"/>
<path d="M26.0928 19.7499C26.0928 20.7431 26.5449 20.9589 26.8112 21.3009C26.1708 20.8235 26.0317 19.9843 24.7299 19.9843C23.7268 19.9843 22.9131 20.8228 22.9131 21.8574C22.9131 22.8914 23.7268 23.73 24.7299 23.73C26.0497 23.73 26.1732 22.8667 26.8381 22.3936C26.5773 22.7628 26.0928 22.9366 26.0928 23.965C26.0928 24.9996 26.9053 25.8382 27.9078 25.8382C28.9116 25.8382 29.7252 24.999 29.7252 23.965C29.7252 22.7152 29.0087 22.696 28.8492 22.106C30.6319 23.0126 30.6684 22.9774 31.087 23.965L31.087 19.7499C30.6684 20.7369 30.6313 20.7029 28.8462 21.6101C28.9991 20.9873 29.7252 21.0071 29.7252 19.7499C29.7252 18.7153 28.9116 17.8767 27.9078 17.8767C26.9053 17.8761 26.0928 18.7153 26.0928 19.7499Z" fill="#383838"/>
<path d="M8.5603 34.6432L12.5579 33.48L12.5579 33.9828L11.9139 34.159L11.9139 35.1299L12.5579 35.3031L12.5579 35.8058L8.5603 34.6432ZM11.4846 34.274L10.4832 34.5424L10.0216 34.6457L10.4832 34.7434L11.4846 35.0143L11.4846 34.274Z" fill="#383838"/>
<path d="M45.4403 9.07169L41.4421 10.2343L41.4421 9.73216L42.0867 9.55591L42.0867 8.58438L41.4421 8.41122L41.4421 7.90845L45.4403 9.07169ZM42.5154 9.44089L43.5168 9.1725L43.9791 9.06922L43.5168 8.97213L42.5154 8.70064L42.5154 9.44089Z" fill="#383838"/>
<path d="M14.823 34.0112C14.823 34.342 14.9736 34.4144 15.0623 34.5288C14.8489 34.3692 14.8021 34.0897 14.3685 34.0897C14.034 34.0897 13.7629 34.3686 13.7629 34.7143C13.7629 35.0594 14.034 35.3389 14.3685 35.3389C14.8087 35.3389 14.85 35.0507 15.0713 34.893C14.9843 35.0155 14.823 35.0742 14.823 35.4168C14.823 35.7619 15.0935 36.0414 15.4281 36.0414C15.7633 36.0414 16.0343 35.7619 16.0343 35.4168C16.0343 35 15.795 34.9938 15.7423 34.7978C16.3359 35.0996 16.3491 35.0885 16.4888 35.4168L16.4888 34.0118C16.3491 34.3414 16.3359 34.3297 15.7417 34.6321C15.7926 34.4249 16.0343 34.4311 16.0343 34.0118C16.0343 33.6667 15.7633 33.3878 15.4281 33.3878C15.0935 33.3872 14.823 33.6667 14.823 34.0112Z" fill="#383838"/>
<path d="M39.1782 9.7031C39.1782 9.37225 39.0271 9.30052 38.9383 9.18611C39.1524 9.34504 39.1986 9.62457 39.6327 9.62457C39.9667 9.62457 40.2383 9.34566 40.2383 9.00059C40.2383 8.65551 39.9667 8.37598 39.6327 8.37598C39.1926 8.37598 39.1512 8.66355 38.9299 8.82186C39.0169 8.6988 39.1782 8.64067 39.1782 8.29806C39.1782 7.95237 38.9071 7.67284 38.5726 7.67284C38.2374 7.67284 37.9664 7.95237 37.9664 8.29806C37.9664 8.71426 38.2056 8.72106 38.2584 8.9171C37.6648 8.61593 37.6522 8.62706 37.5125 8.29806L37.5125 9.70249C37.6522 9.37287 37.6647 9.38462 38.259 9.08283C38.2086 9.29062 37.9664 9.2832 37.9664 9.70249C37.9664 10.0482 38.2374 10.3271 38.5726 10.3271C38.9071 10.3271 39.1782 10.0482 39.1782 9.7031Z" fill="#383838"/>
</g>
<g filter="url(#filter1_d_94_9327)">
<path d="M36.0313 21.5L44 14L44 18.5L49.8993 18.5L49.8993 24.5L44 24.5L44 29L36.0313 21.5Z" fill="#383838"/>
<path d="M44 19L43.5 19L43.5 18.5L43.5 15.1572L36.7608 21.5L43.5 27.8428L43.5 24.5L43.5 24L44 24L49.3993 24L49.3993 19L44 19Z" stroke="white"/>
</g>
<g filter="url(#filter2_d_94_9327)">
<path d="M26.5 18.4688L19 10.5H23.5L23.5 4.60069H29.5L29.5 10.5H34L26.5 18.4688Z" fill="#383838"/>
<path d="M24 10.5L24 11H23.5H20.1572L26.5 17.7392L32.8428 11H29.5H29L29 10.5L29 5.10069H24L24 10.5Z" stroke="white"/>
</g>
<g filter="url(#filter3_d_94_9327)">
<path d="M26.5 25.5312L19 33.5H23.5L23.5 39.3993H29.5L29.5 33.5H34L26.5 25.5312Z" fill="#383838"/>
<path d="M24 33.5L24 33H23.5H20.1572L26.5 26.2608L32.8428 33H29.5H29L29 33.5L29 38.8993H24L24 33.5Z" stroke="white"/>
</g>
<g filter="url(#filter4_d_94_9327)">
<path d="M17.9687 21.5L10 14L10 18.5L4.10069 18.5L4.10069 24.5L10 24.5L10 29L17.9687 21.5Z" fill="#383838"/>
<path d="M10 19L10.5 19L10.5 18.5L10.5 15.1572L17.2392 21.5L10.5 27.8428L10.5 24.5L10.5 24L10 24L4.60069 24L4.60069 19L10 19Z" stroke="white"/>
</g>
<path d="M23.9976 58.37C24.471 58.4833 24.8276 58.6867 25.0676 58.98C25.3143 59.2667 25.4376 59.6367 25.4376 60.09C25.4376 60.6967 25.2143 61.1667 24.7676 61.5C24.3276 61.8333 23.6843 62 22.8376 62H19.6376V55H22.6476C23.4143 55 24.011 55.1567 24.4376 55.47C24.871 55.7767 25.0876 56.22 25.0876 56.8C25.0876 57.18 24.991 57.5033 24.7976 57.77C24.611 58.0367 24.3443 58.2367 23.9976 58.37ZM20.6276 58.08H22.5776C23.0643 58.08 23.4343 57.9833 23.6876 57.79C23.9476 57.5967 24.0776 57.3133 24.0776 56.94C24.0776 56.5667 23.9476 56.2833 23.6876 56.09C23.4276 55.89 23.0576 55.79 22.5776 55.79H20.6276V58.08ZM22.8176 61.21C23.891 61.21 24.4276 60.81 24.4276 60.01C24.4276 59.61 24.291 59.3167 24.0176 59.13C23.751 58.9367 23.351 58.84 22.8176 58.84H20.6276V61.21H22.8176ZM29.0183 62.06C28.4783 62.06 27.995 61.9433 27.5683 61.71C27.1483 61.4767 26.8183 61.1567 26.5783 60.75C26.3383 60.3367 26.2183 59.87 26.2183 59.35C26.2183 58.83 26.3383 58.3667 26.5783 57.96C26.8183 57.5467 27.1483 57.2267 27.5683 57C27.995 56.7667 28.4783 56.65 29.0183 56.65C29.4983 56.65 29.925 56.7467 30.2983 56.94C30.6783 57.1333 30.9717 57.4133 31.1783 57.78L30.4483 58.25C30.2817 57.9967 30.075 57.8067 29.8283 57.68C29.5817 57.5533 29.3083 57.49 29.0083 57.49C28.6617 57.49 28.3483 57.5667 28.0683 57.72C27.795 57.8733 27.5783 58.0933 27.4183 58.38C27.265 58.66 27.1883 58.9833 27.1883 59.35C27.1883 59.7233 27.265 60.0533 27.4183 60.34C27.5783 60.62 27.795 60.8367 28.0683 60.99C28.3483 61.1433 28.6617 61.22 29.0083 61.22C29.3083 61.22 29.5817 61.1567 29.8283 61.03C30.075 60.9033 30.2817 60.7133 30.4483 60.46L31.1783 60.92C30.9717 61.2867 30.6783 61.57 30.2983 61.77C29.925 61.9633 29.4983 62.06 29.0183 62.06ZM36.8931 59.38C36.8931 59.4533 36.8864 59.55 36.8731 59.67H32.5731C32.6331 60.1367 32.8364 60.5133 33.1831 60.8C33.5364 61.08 33.9731 61.22 34.4931 61.22C35.1264 61.22 35.6364 61.0067 36.0231 60.58L36.5531 61.2C36.3131 61.48 36.0131 61.6933 35.6531 61.84C35.2998 61.9867 34.9031 62.06 34.4631 62.06C33.9031 62.06 33.4064 61.9467 32.9731 61.72C32.5398 61.4867 32.2031 61.1633 31.9631 60.75C31.7298 60.3367 31.6131 59.87 31.6131 59.35C31.6131 58.8367 31.7264 58.3733 31.9531 57.96C32.1864 57.5467 32.5031 57.2267 32.9031 57C33.3098 56.7667 33.7664 56.65 34.2731 56.65C34.7798 56.65 35.2298 56.7667 35.6231 57C36.0231 57.2267 36.3331 57.5467 36.5531 57.96C36.7798 58.3733 36.8931 58.8467 36.8931 59.38ZM34.2731 57.46C33.8131 57.46 33.4264 57.6 33.1131 57.88C32.8064 58.16 32.6264 58.5267 32.5731 58.98H35.9731C35.9198 58.5333 35.7364 58.17 35.4231 57.89C35.1164 57.6033 34.7331 57.46 34.2731 57.46Z" fill="white"/>
<defs>
<filter id="filter0_d_94_9327" x="2.5" y="3" width="49" height="38" filterUnits="userSpaceOnUse" color-interpolation-filters="sRGB">
<feFlood flood-opacity="0" result="BackgroundImageFix"/>
<feColorMatrix in="SourceAlpha" type="matrix" values="0 0 0 0 0 0 0 0 0 0 0 0 0 0 0 0 0 0 127 0" result="hardAlpha"/>
<feOffset/>
<feGaussianBlur stdDeviation="2"/>
<feComposite in2="hardAlpha" operator="out"/>
<feColorMatrix type="matrix" values="0 0 0 0 0 0 0 0 0 0 0 0 0 0 0 0 0 0 0.25 0"/>
<feBlend mode="normal" in2="BackgroundImageFix" result="effect1_dropShadow_94_9327"/>
<feBlend mode="normal" in="SourceGraphic" in2="effect1_dropShadow_94_9327" result="shape"/>
</filter>
<filter id="filter1_d_94_9327" x="32.0312" y="10" width="21.8682" height="23" filterUnits="userSpaceOnUse" color-interpolation-filters="sRGB">
<feFlood flood-opacity="0" result="BackgroundImageFix"/>
<feColorMatrix in="SourceAlpha" type="matrix" values="0 0 0 0 0 0 0 0 0 0 0 0 0 0 0 0 0 0 127 0" result="hardAlpha"/>
<feOffset/>
<feGaussianBlur stdDeviation="2"/>
<feComposite in2="hardAlpha" operator="out"/>
<feColorMatrix type="matrix" values="0 0 0 0 0 0 0 0 0 0 0 0 0 0 0 0 0 0 0.25 0"/>
<feBlend mode="normal" in2="BackgroundImageFix" result="effect1_dropShadow_94_9327"/>
<feBlend mode="normal" in="SourceGraphic" in2="effect1_dropShadow_94_9327" result="shape"/>
</filter>
<filter id="filter2_d_94_9327" x="15" y="0.600708" width="23" height="21.868" filterUnits="userSpaceOnUse" color-interpolation-filters="sRGB">
<feFlood flood-opacity="0" result="BackgroundImageFix"/>
<feColorMatrix in="SourceAlpha" type="matrix" values="0 0 0 0 0 0 0 0 0 0 0 0 0 0 0 0 0 0 127 0" result="hardAlpha"/>
<feOffset/>
<feGaussianBlur stdDeviation="2"/>
<feComposite in2="hardAlpha" operator="out"/>
<feColorMatrix type="matrix" values="0 0 0 0 0 0 0 0 0 0 0 0 0 0 0 0 0 0 0.25 0"/>
<feBlend mode="normal" in2="BackgroundImageFix" result="effect1_dropShadow_94_9327"/>
<feBlend mode="normal" in="SourceGraphic" in2="effect1_dropShadow_94_9327" result="shape"/>
</filter>
<filter id="filter3_d_94_9327" x="15" y="21.5312" width="23" height="21.868" filterUnits="userSpaceOnUse" color-interpolation-filters="sRGB">
<feFlood flood-opacity="0" result="BackgroundImageFix"/>
<feColorMatrix in="SourceAlpha" type="matrix" values="0 0 0 0 0 0 0 0 0 0 0 0 0 0 0 0 0 0 127 0" result="hardAlpha"/>
<feOffset/>
<feGaussianBlur stdDeviation="2"/>
<feComposite in2="hardAlpha" operator="out"/>
<feColorMatrix type="matrix" values="0 0 0 0 0 0 0 0 0 0 0 0 0 0 0 0 0 0 0.25 0"/>
<feBlend mode="normal" in2="BackgroundImageFix" result="effect1_dropShadow_94_9327"/>
<feBlend mode="normal" in="SourceGraphic" in2="effect1_dropShadow_94_9327" result="shape"/>
</filter>
<filter id="filter4_d_94_9327" x="0.100586" y="10" width="21.8682" height="23" filterUnits="userSpaceOnUse" color-interpolation-filters="sRGB">
<feFlood flood-opacity="0" result="BackgroundImageFix"/>
<feColorMatrix in="SourceAlpha" type="matrix" values="0 0 0 0 0 0 0 0 0 0 0 0 0 0 0 0 0 0 127 0" result="hardAlpha"/>
<feOffset/>
<feGaussianBlur stdDeviation="2"/>
<feComposite in2="hardAlpha" operator="out"/>
<feColorMatrix type="matrix" values="0 0 0 0 0 0 0 0 0 0 0 0 0 0 0 0 0 0 0.25 0"/>
<feBlend mode="normal" in2="BackgroundImageFix" result="effect1_dropShadow_94_9327"/>
<feBlend mode="normal" in="SourceGraphic" in2="effect1_dropShadow_94_9327" result="shape"/>
</filter>
</defs>
</svg>
