<svg width="189" height="106" viewBox="0 0 189 106" fill="none" xmlns="http://www.w3.org/2000/svg">
<g filter="url(#filter0_d_10_25723)">
<rect x="6" y="6" width="177" height="94" rx="20" fill="#1B1A1A"/>
<path d="M66.6499 26.2H74.5599V28.006H68.9039V30.022H71.6199C72.8052 30.022 73.7059 30.2693 74.3219 30.764C74.9472 31.2587 75.2599 31.9727 75.2599 32.906C75.2599 33.886 74.9145 34.6467 74.2239 35.188C73.5332 35.7293 72.5579 36 71.2979 36H66.6499V26.2ZM71.1719 34.32C71.7505 34.32 72.1939 34.208 72.5019 33.984C72.8099 33.7507 72.9639 33.4147 72.9639 32.976C72.9639 32.1173 72.3665 31.688 71.1719 31.688H68.9039V34.32H71.1719ZM79.7102 28.356C80.8769 28.356 81.7729 28.636 82.3982 29.196C83.0235 29.7467 83.3362 30.582 83.3362 31.702V36H81.2922V35.062C80.8815 35.762 80.1162 36.112 78.9962 36.112C78.4175 36.112 77.9135 36.014 77.4842 35.818C77.0642 35.622 76.7422 35.3513 76.5182 35.006C76.2942 34.6607 76.1822 34.2687 76.1822 33.83C76.1822 33.13 76.4435 32.5793 76.9662 32.178C77.4982 31.7767 78.3149 31.576 79.4162 31.576H81.1522C81.1522 31.1 81.0075 30.736 80.7182 30.484C80.4289 30.2227 79.9949 30.092 79.4162 30.092C79.0149 30.092 78.6182 30.1573 78.2262 30.288C77.8435 30.4093 77.5169 30.5773 77.2462 30.792L76.4622 29.266C76.8729 28.9767 77.3629 28.7527 77.9322 28.594C78.5109 28.4353 79.1035 28.356 79.7102 28.356ZM79.5422 34.642C79.9155 34.642 80.2469 34.558 80.5362 34.39C80.8255 34.2127 81.0309 33.956 81.1522 33.62V32.85H79.6542C78.7582 32.85 78.3102 33.144 78.3102 33.732C78.3102 34.012 78.4175 34.236 78.6322 34.404C78.8562 34.5627 79.1595 34.642 79.5422 34.642ZM92.4238 28.468V36H90.2398V30.26H87.8598L87.7898 31.59C87.7525 32.5793 87.6591 33.4007 87.5098 34.054C87.3605 34.7073 87.1178 35.2207 86.7818 35.594C86.4458 35.9673 85.9791 36.154 85.3818 36.154C85.0645 36.154 84.6865 36.098 84.2478 35.986L84.3598 34.194C84.5091 34.2127 84.6165 34.222 84.6818 34.222C85.0085 34.222 85.2511 34.1053 85.4098 33.872C85.5778 33.6293 85.6898 33.326 85.7458 32.962C85.8018 32.5887 85.8438 32.0987 85.8718 31.492L85.9838 28.468H92.4238ZM97.4164 28.356C98.5831 28.356 99.4791 28.636 100.104 29.196C100.73 29.7467 101.042 30.582 101.042 31.702V36H98.9984V35.062C98.5878 35.762 97.8224 36.112 96.7024 36.112C96.1238 36.112 95.6198 36.014 95.1904 35.818C94.7704 35.622 94.4484 35.3513 94.2244 35.006C94.0004 34.6607 93.8884 34.2687 93.8884 33.83C93.8884 33.13 94.1498 32.5793 94.6724 32.178C95.2044 31.7767 96.0211 31.576 97.1224 31.576H98.8584C98.8584 31.1 98.7138 30.736 98.4244 30.484C98.1351 30.2227 97.7011 30.092 97.1224 30.092C96.7211 30.092 96.3244 30.1573 95.9324 30.288C95.5498 30.4093 95.2231 30.5773 94.9524 30.792L94.1684 29.266C94.5791 28.9767 95.0691 28.7527 95.6384 28.594C96.2171 28.4353 96.8098 28.356 97.4164 28.356ZM97.2484 34.642C97.6218 34.642 97.9531 34.558 98.2424 34.39C98.5318 34.2127 98.7371 33.956 98.8584 33.62V32.85H97.3604C96.4644 32.85 96.0164 33.144 96.0164 33.732C96.0164 34.012 96.1238 34.236 96.3384 34.404C96.5624 34.5627 96.8658 34.642 97.2484 34.642ZM102.906 28.468H105.076V31.408H108.352V28.468H110.536V36H108.352V33.186H105.076V36H102.906V28.468ZM116.177 36.112C115.374 36.112 114.651 35.9487 114.007 35.622C113.372 35.286 112.873 34.824 112.509 34.236C112.154 33.648 111.977 32.9807 111.977 32.234C111.977 31.4873 112.154 30.82 112.509 30.232C112.873 29.644 113.372 29.1867 114.007 28.86C114.651 28.524 115.374 28.356 116.177 28.356C116.97 28.356 117.661 28.524 118.249 28.86C118.846 29.1867 119.28 29.658 119.551 30.274L117.857 31.184C117.465 30.4933 116.9 30.148 116.163 30.148C115.594 30.148 115.122 30.3347 114.749 30.708C114.376 31.0813 114.189 31.59 114.189 32.234C114.189 32.878 114.376 33.3867 114.749 33.76C115.122 34.1333 115.594 34.32 116.163 34.32C116.91 34.32 117.474 33.9747 117.857 33.284L119.551 34.208C119.28 34.8053 118.846 35.272 118.249 35.608C117.661 35.944 116.97 36.112 116.177 36.112ZM121.738 31.086C121.355 31.086 121.033 30.9553 120.772 30.694C120.511 30.4327 120.38 30.106 120.38 29.714C120.38 29.3127 120.511 28.9907 120.772 28.748C121.033 28.496 121.355 28.37 121.738 28.37C122.121 28.37 122.443 28.496 122.704 28.748C122.965 28.9907 123.096 29.3127 123.096 29.714C123.096 30.106 122.965 30.4327 122.704 30.694C122.443 30.9553 122.121 31.086 121.738 31.086ZM121.738 36.112C121.355 36.112 121.033 35.9813 120.772 35.72C120.511 35.4587 120.38 35.132 120.38 34.74C120.38 34.3387 120.511 34.0167 120.772 33.774C121.033 33.522 121.355 33.396 121.738 33.396C122.121 33.396 122.443 33.522 122.704 33.774C122.965 34.0167 123.096 34.3387 123.096 34.74C123.096 35.132 122.965 35.4587 122.704 35.72C122.443 35.9813 122.121 36.112 121.738 36.112Z" fill="white"/>
<rect width="8.125" height="11.25" transform="translate(49.25 62.375)" fill="white"/>
<g filter="url(#filter1_i_10_25723)">
<path d="M57.1667 60.7833C58.4336 61.5147 59.4856 62.5667 60.217 63.8336C60.9484 65.1004 61.3334 66.5374 61.3334 68.0003C61.3334 69.4631 60.9483 70.9001 60.2169 72.1669C59.4855 73.4338 58.4335 74.4857 57.1667 75.2171C55.8998 75.9485 54.4628 76.3336 52.9999 76.3335C51.5371 76.3335 50.1001 75.9484 48.8333 75.217C47.5665 74.4856 46.5145 73.4336 45.7831 72.1667C45.0517 70.8999 44.6667 69.4628 44.6667 68L44.6709 67.73C44.7176 66.2908 45.1364 64.8883 45.8864 63.6592C46.6365 62.43 47.6923 61.4162 48.9508 60.7166C50.2094 60.0169 51.6277 59.6553 53.0676 59.667C54.5075 59.6787 55.9198 60.0633 57.1667 60.7833ZM53.0001 63C52.7791 63 52.5671 63.0878 52.4108 63.2441C52.2545 63.4004 52.1667 63.6123 52.1667 63.8333C51.5037 63.8333 50.8678 64.0967 50.399 64.5656C49.9301 65.0344 49.6667 65.6703 49.6667 66.3333C49.6667 66.9964 49.9301 67.6323 50.399 68.1011C50.8678 68.5699 51.5037 68.8333 52.1667 68.8333V70.5C52.0285 70.5076 51.8906 70.4814 51.7648 70.4236C51.639 70.3658 51.5293 70.2782 51.4451 70.1683L51.3884 70.0842C51.2744 69.9003 51.0933 69.768 50.8835 69.7152C50.6737 69.6624 50.4516 69.6933 50.2641 69.8013C50.0767 69.9093 49.9386 70.086 49.879 70.294C49.8195 70.502 49.8432 70.725 49.9451 70.9158C50.1578 71.2847 50.4612 71.5932 50.8265 71.8119C51.1918 72.0307 51.607 72.1525 52.0326 72.1658H52.1667C52.1666 72.3701 52.2414 72.5673 52.3771 72.72C52.5127 72.8727 52.6997 72.9703 52.9026 72.9942L53.0001 73C53.2211 73 53.4331 72.9122 53.5893 72.7559C53.7456 72.5996 53.8334 72.3877 53.8334 72.1667L53.9801 72.1625C54.6298 72.1249 55.2392 71.8355 55.6789 71.3558C56.1186 70.8761 56.3538 70.2438 56.3347 69.5933C56.3157 68.9428 56.0437 68.3254 55.5766 67.8723C55.1095 67.4192 54.4842 67.166 53.8334 67.1667V65.5C54.1317 65.49 54.3926 65.6167 54.5551 65.8317L54.6117 65.9158C54.7258 66.0997 54.9068 66.232 55.1166 66.2848C55.3264 66.3376 55.5486 66.3067 55.736 66.1987C55.9235 66.0907 56.0616 65.914 56.1211 65.706C56.1807 65.498 56.157 65.275 56.0551 65.0842C55.8425 64.7151 55.5391 64.4065 55.1738 64.1876C54.8085 63.9687 54.3933 63.8467 53.9676 63.8333H53.8334C53.8334 63.6123 53.7456 63.4004 53.5893 63.2441C53.4331 63.0878 53.2211 63 53.0001 63ZM53.8334 68.8333C54.0544 68.8333 54.2664 68.9211 54.4227 69.0774C54.579 69.2337 54.6667 69.4456 54.6667 69.6667C54.6667 69.8877 54.579 70.0996 54.4227 70.2559C54.2664 70.4122 54.0544 70.5 53.8334 70.5V68.8333ZM52.1667 65.5V67.1667C51.9457 67.1667 51.7338 67.0789 51.5775 66.9226C51.4212 66.7663 51.3334 66.5543 51.3334 66.3333C51.3334 66.1123 51.4212 65.9004 51.5775 65.7441C51.7338 65.5878 51.9457 65.5 52.1667 65.5Z" fill="#45AF13"/>
</g>
<path d="M71.6963 73.692C70.9176 73.692 70.1443 73.5907 69.3763 73.388C68.619 73.1747 67.9683 72.876 67.4243 72.492L68.4483 70.508C68.875 70.8173 69.3656 71.0627 69.9203 71.244C70.4856 71.4253 71.0563 71.516 71.6323 71.516C72.283 71.516 72.795 71.388 73.1683 71.132C73.5416 70.876 73.7283 70.5187 73.7283 70.06C73.7283 69.772 73.6536 69.516 73.5043 69.292C73.355 69.068 73.0883 68.8973 72.7043 68.78C72.331 68.6627 71.803 68.604 71.1203 68.604H68.2563L68.8323 62.3H75.6643V64.38H69.7603L71.1043 63.196L70.7043 67.692L69.3603 66.508H71.7283C72.8376 66.508 73.7283 66.6627 74.4003 66.972C75.083 67.2707 75.579 67.6813 75.8883 68.204C76.1976 68.7267 76.3523 69.3187 76.3523 69.98C76.3523 70.6413 76.187 71.2547 75.8563 71.82C75.5256 72.3747 75.0136 72.828 74.3203 73.18C73.6376 73.5213 72.763 73.692 71.6963 73.692ZM86.6584 73.692C85.741 73.692 84.9197 73.468 84.1944 73.02C83.469 72.5613 82.8984 71.9 82.4824 71.036C82.0664 70.172 81.8584 69.1267 81.8584 67.9C81.8584 66.6733 82.0664 65.628 82.4824 64.764C82.8984 63.9 83.469 63.244 84.1944 62.796C84.9197 62.3373 85.741 62.108 86.6584 62.108C87.5864 62.108 88.4077 62.3373 89.1224 62.796C89.8477 63.244 90.4184 63.9 90.8344 64.764C91.2504 65.628 91.4584 66.6733 91.4584 67.9C91.4584 69.1267 91.2504 70.172 90.8344 71.036C90.4184 71.9 89.8477 72.5613 89.1224 73.02C88.4077 73.468 87.5864 73.692 86.6584 73.692ZM86.6584 71.5C87.0957 71.5 87.4744 71.3773 87.7944 71.132C88.125 70.8867 88.381 70.4973 88.5624 69.964C88.7544 69.4307 88.8504 68.7427 88.8504 67.9C88.8504 67.0573 88.7544 66.3693 88.5624 65.836C88.381 65.3027 88.125 64.9133 87.7944 64.668C87.4744 64.4227 87.0957 64.3 86.6584 64.3C86.2317 64.3 85.853 64.4227 85.5224 64.668C85.2024 64.9133 84.9464 65.3027 84.7544 65.836C84.573 66.3693 84.4824 67.0573 84.4824 67.9C84.4824 68.7427 84.573 69.4307 84.7544 69.964C84.9464 70.4973 85.2024 70.8867 85.5224 71.132C85.853 71.3773 86.2317 71.5 86.6584 71.5ZM97.4793 73.692C96.562 73.692 95.7407 73.468 95.0153 73.02C94.29 72.5613 93.7193 71.9 93.3033 71.036C92.8873 70.172 92.6793 69.1267 92.6793 67.9C92.6793 66.6733 92.8873 65.628 93.3033 64.764C93.7193 63.9 94.29 63.244 95.0153 62.796C95.7407 62.3373 96.562 62.108 97.4793 62.108C98.4073 62.108 99.2287 62.3373 99.9433 62.796C100.669 63.244 101.239 63.9 101.655 64.764C102.071 65.628 102.279 66.6733 102.279 67.9C102.279 69.1267 102.071 70.172 101.655 71.036C101.239 71.9 100.669 72.5613 99.9433 73.02C99.2287 73.468 98.4073 73.692 97.4793 73.692ZM97.4793 71.5C97.9167 71.5 98.2953 71.3773 98.6153 71.132C98.946 70.8867 99.202 70.4973 99.3833 69.964C99.5753 69.4307 99.6713 68.7427 99.6713 67.9C99.6713 67.0573 99.5753 66.3693 99.3833 65.836C99.202 65.3027 98.946 64.9133 98.6153 64.668C98.2953 64.4227 97.9167 64.3 97.4793 64.3C97.0527 64.3 96.674 64.4227 96.3433 64.668C96.0233 64.9133 95.7673 65.3027 95.5753 65.836C95.394 66.3693 95.3033 67.0573 95.3033 67.9C95.3033 68.7427 95.394 69.4307 95.5753 69.964C95.7673 70.4973 96.0233 70.8867 96.3433 71.132C96.674 71.3773 97.0527 71.5 97.4793 71.5ZM108.3 73.692C107.383 73.692 106.562 73.468 105.836 73.02C105.111 72.5613 104.54 71.9 104.124 71.036C103.708 70.172 103.5 69.1267 103.5 67.9C103.5 66.6733 103.708 65.628 104.124 64.764C104.54 63.9 105.111 63.244 105.836 62.796C106.562 62.3373 107.383 62.108 108.3 62.108C109.228 62.108 110.05 62.3373 110.764 62.796C111.49 63.244 112.06 63.9 112.476 64.764C112.892 65.628 113.1 66.6733 113.1 67.9C113.1 69.1267 112.892 70.172 112.476 71.036C112.06 71.9 111.49 72.5613 110.764 73.02C110.05 73.468 109.228 73.692 108.3 73.692ZM108.3 71.5C108.738 71.5 109.116 71.3773 109.436 71.132C109.767 70.8867 110.023 70.4973 110.204 69.964C110.396 69.4307 110.492 68.7427 110.492 67.9C110.492 67.0573 110.396 66.3693 110.204 65.836C110.023 65.3027 109.767 64.9133 109.436 64.668C109.116 64.4227 108.738 64.3 108.3 64.3C107.874 64.3 107.495 64.4227 107.164 64.668C106.844 64.9133 106.588 65.3027 106.396 65.836C106.215 66.3693 106.124 67.0573 106.124 67.9C106.124 68.7427 106.215 69.4307 106.396 69.964C106.588 70.4973 106.844 70.8867 107.164 71.132C107.495 71.3773 107.874 71.5 108.3 71.5Z" fill="white"/>
<rect x="122" y="56" width="24" height="24" rx="8" fill="#FEBF21"/>
<path d="M140 66H136V62C136 61.4696 135.789 60.9609 135.414 60.5858C135.039 60.2107 134.53 60 134 60C133.47 60 132.961 60.2107 132.586 60.5858C132.211 60.9609 132 61.4696 132 62L132.071 66H128C127.47 66 126.961 66.2107 126.586 66.5858C126.211 66.9609 126 67.4696 126 68C126 68.5304 126.211 69.0391 126.586 69.4142C126.961 69.7893 127.47 70 128 70L132.071 69.929L132 74C132 74.5304 132.211 75.0391 132.586 75.4142C132.961 75.7893 133.47 76 134 76C134.53 76 135.039 75.7893 135.414 75.4142C135.789 75.0391 136 74.5304 136 74V69.929L140 70C140.53 70 141.039 69.7893 141.414 69.4142C141.789 69.0391 142 68.5304 142 68C142 67.4696 141.789 66.9609 141.414 66.5858C141.039 66.2107 140.53 66 140 66Z" fill="#111111"/>
</g>
<defs>
<filter id="filter0_d_10_25723" x="0" y="0" width="189" height="106" filterUnits="userSpaceOnUse" color-interpolation-filters="sRGB">
<feFlood flood-opacity="0" result="BackgroundImageFix"/>
<feColorMatrix in="SourceAlpha" type="matrix" values="0 0 0 0 0 0 0 0 0 0 0 0 0 0 0 0 0 0 127 0" result="hardAlpha"/>
<feOffset/>
<feGaussianBlur stdDeviation="3"/>
<feComposite in2="hardAlpha" operator="out"/>
<feColorMatrix type="matrix" values="0 0 0 0 1 0 0 0 0 0.831373 0 0 0 0 0.160784 0 0 0 0.3 0"/>
<feBlend mode="normal" in2="BackgroundImageFix" result="effect1_dropShadow_10_25723"/>
<feBlend mode="normal" in="SourceGraphic" in2="effect1_dropShadow_10_25723" result="shape"/>
</filter>
<filter id="filter1_i_10_25723" x="44.6667" y="58.6667" width="16.6667" height="17.6668" filterUnits="userSpaceOnUse" color-interpolation-filters="sRGB">
<feFlood flood-opacity="0" result="BackgroundImageFix"/>
<feBlend mode="normal" in="SourceGraphic" in2="BackgroundImageFix" result="shape"/>
<feColorMatrix in="SourceAlpha" type="matrix" values="0 0 0 0 0 0 0 0 0 0 0 0 0 0 0 0 0 0 127 0" result="hardAlpha"/>
<feOffset dy="-1"/>
<feGaussianBlur stdDeviation="1.5"/>
<feComposite in2="hardAlpha" operator="arithmetic" k2="-1" k3="1"/>
<feColorMatrix type="matrix" values="0 0 0 0 0 0 0 0 0 0 0 0 0 0 0 0 0 0 0.45 0"/>
<feBlend mode="normal" in2="shape" result="effect1_innerShadow_10_25723"/>
</filter>
</defs>
</svg>
