<svg width="179" height="36" viewBox="0 0 179 36" fill="none" xmlns="http://www.w3.org/2000/svg">
<path d="M48.3919 13.9V23H47.4429V14.732H41.6839V23H40.7349V13.9H48.3919ZM54.6844 16.11C55.3257 16.11 55.9064 16.2573 56.4264 16.552C56.9464 16.838 57.3537 17.2453 57.6484 17.774C57.9431 18.3027 58.0904 18.905 58.0904 19.581C58.0904 20.2657 57.9431 20.8723 57.6484 21.401C57.3537 21.9297 56.9464 22.3413 56.4264 22.636C55.9151 22.922 55.3344 23.065 54.6844 23.065C54.1297 23.065 53.6271 22.9523 53.1764 22.727C52.7344 22.493 52.3704 22.155 52.0844 21.713V25.522H51.1614V16.162H52.0454V17.514C52.3227 17.0633 52.6867 16.7167 53.1374 16.474C53.5967 16.2313 54.1124 16.11 54.6844 16.11ZM54.6194 22.246C55.0961 22.246 55.5294 22.1377 55.9194 21.921C56.3094 21.6957 56.6127 21.3793 56.8294 20.972C57.0547 20.5647 57.1674 20.101 57.1674 19.581C57.1674 19.061 57.0547 18.6017 56.8294 18.203C56.6127 17.7957 56.3094 17.4793 55.9194 17.254C55.5294 17.0287 55.0961 16.916 54.6194 16.916C54.1341 16.916 53.6964 17.0287 53.3064 17.254C52.9251 17.4793 52.6217 17.7957 52.3964 18.203C52.1797 18.6017 52.0714 19.061 52.0714 19.581C52.0714 20.101 52.1797 20.5647 52.3964 20.972C52.6217 21.3793 52.9251 21.6957 53.3064 21.921C53.6964 22.1377 54.1341 22.246 54.6194 22.246ZM59.9935 16.162H60.9165V21.596L65.4795 16.162H66.2985V23H65.3755V17.566L60.8255 23H59.9935V16.162ZM73.2187 19.464C74.146 19.6807 74.6097 20.2397 74.6097 21.141C74.6097 21.739 74.3887 22.1983 73.9467 22.519C73.5047 22.8397 72.846 23 71.9707 23H68.8637V16.162H71.8797C72.6597 16.162 73.2707 16.3137 73.7127 16.617C74.1547 16.9203 74.3757 17.3537 74.3757 17.917C74.3757 18.2897 74.2717 18.6103 74.0637 18.879C73.8644 19.139 73.5827 19.334 73.2187 19.464ZM69.7607 19.204H71.8147C72.3434 19.204 72.7464 19.1043 73.0237 18.905C73.3097 18.7057 73.4527 18.4153 73.4527 18.034C73.4527 17.6527 73.3097 17.3667 73.0237 17.176C72.7464 16.9853 72.3434 16.89 71.8147 16.89H69.7607V19.204ZM71.9317 22.272C72.521 22.272 72.963 22.1767 73.2577 21.986C73.5524 21.7953 73.6997 21.4963 73.6997 21.089C73.6997 20.6817 73.5654 20.3827 73.2967 20.192C73.028 19.9927 72.6034 19.893 72.0227 19.893H69.7607V22.272H71.9317ZM79.0459 16.11C79.9385 16.11 80.6232 16.3353 81.0999 16.786C81.5765 17.228 81.8149 17.8867 81.8149 18.762V23H80.9309V21.934C80.7229 22.2893 80.4152 22.5667 80.0079 22.766C79.6092 22.9653 79.1325 23.065 78.5779 23.065C77.8152 23.065 77.2085 22.883 76.7579 22.519C76.3072 22.155 76.0819 21.674 76.0819 21.076C76.0819 20.4953 76.2899 20.0273 76.7059 19.672C77.1305 19.3167 77.8022 19.139 78.7209 19.139H80.8919V18.723C80.8919 18.1337 80.7272 17.6873 80.3979 17.384C80.0685 17.072 79.5875 16.916 78.9549 16.916C78.5215 16.916 78.1055 16.9897 77.7069 17.137C77.3082 17.2757 76.9659 17.4707 76.6799 17.722L76.2639 17.033C76.6105 16.7383 77.0265 16.513 77.5119 16.357C77.9972 16.1923 78.5085 16.11 79.0459 16.11ZM78.7209 22.337C79.2409 22.337 79.6872 22.22 80.0599 21.986C80.4325 21.7433 80.7099 21.3967 80.8919 20.946V19.828H78.7469C77.5769 19.828 76.9919 20.2353 76.9919 21.05C76.9919 21.4487 77.1435 21.765 77.4469 21.999C77.7502 22.2243 78.1749 22.337 78.7209 22.337ZM89.002 16.981H86.415V23H85.492V16.981H82.905V16.162H89.002V16.981ZM90.2565 16.162H91.1795V19.191H95.4825V16.162H96.4055V23H95.4825V19.984H91.1795V23H90.2565V16.162ZM101.822 18.58C102.68 18.5887 103.334 18.7793 103.785 19.152C104.236 19.5247 104.461 20.062 104.461 20.764C104.461 21.492 104.218 22.051 103.733 22.441C103.248 22.831 102.554 23.0217 101.653 23.013L98.949 23V16.162H99.872V18.554L101.822 18.58ZM105.605 16.162H106.528V23H105.605V16.162ZM101.601 22.311C102.234 22.3197 102.71 22.194 103.031 21.934C103.36 21.6653 103.525 21.2753 103.525 20.764C103.525 20.2613 103.365 19.8887 103.044 19.646C102.723 19.4033 102.242 19.2777 101.601 19.269L99.872 19.243V22.285L101.601 22.311ZM115.056 19.867H109.336C109.388 20.5777 109.661 21.154 110.155 21.596C110.649 22.0293 111.273 22.246 112.027 22.246C112.452 22.246 112.842 22.1723 113.197 22.025C113.552 21.869 113.86 21.6437 114.12 21.349L114.64 21.947C114.337 22.311 113.955 22.5883 113.496 22.779C113.045 22.9697 112.547 23.065 112.001 23.065C111.299 23.065 110.675 22.9177 110.129 22.623C109.592 22.3197 109.171 21.9037 108.868 21.375C108.565 20.8463 108.413 20.2483 108.413 19.581C108.413 18.9137 108.556 18.3157 108.842 17.787C109.137 17.2583 109.535 16.8467 110.038 16.552C110.549 16.2573 111.121 16.11 111.754 16.11C112.387 16.11 112.954 16.2573 113.457 16.552C113.96 16.8467 114.354 17.2583 114.64 17.787C114.926 18.307 115.069 18.905 115.069 19.581L115.056 19.867ZM111.754 16.903C111.095 16.903 110.541 17.1153 110.09 17.54C109.648 17.956 109.397 18.502 109.336 19.178H114.185C114.124 18.502 113.869 17.956 113.418 17.54C112.976 17.1153 112.421 16.903 111.754 16.903Z" fill="white"/>
<path d="M125 26.3334C124.542 26.3334 124.149 26.1703 123.823 25.8442C123.497 25.5181 123.334 25.1256 123.333 24.6667V16.3334C123.333 15.875 123.497 15.4828 123.823 15.1567C124.15 14.8306 124.542 14.6673 125 14.6667H125.833V13C125.833 11.8473 126.24 10.8648 127.052 10.0525C127.865 9.24032 128.848 8.83393 130 8.83337C131.152 8.83282 132.135 9.23921 132.948 10.0525C133.762 10.8659 134.168 11.8484 134.167 13V14.6667H135C135.458 14.6667 135.851 14.83 136.177 15.1567C136.504 15.4834 136.667 15.8756 136.667 16.3334V24.6667C136.667 25.125 136.504 25.5175 136.177 25.8442C135.851 26.1709 135.459 26.3339 135 26.3334H125ZM130 22.1667C130.458 22.1667 130.851 22.0037 131.177 21.6775C131.504 21.3514 131.667 20.9589 131.667 20.5C131.666 20.0412 131.503 19.6489 131.177 19.3234C130.852 18.9978 130.459 18.8345 130 18.8334C129.54 18.8323 129.148 18.9956 128.823 19.3234C128.498 19.6512 128.335 20.0434 128.333 20.5C128.332 20.9567 128.495 21.3492 128.823 21.6775C129.152 22.0059 129.544 22.1689 130 22.1667ZM127.5 14.6667H132.5V13C132.5 12.3056 132.257 11.7153 131.771 11.2292C131.285 10.7431 130.694 10.5 130 10.5C129.305 10.5 128.715 10.7431 128.229 11.2292C127.743 11.7153 127.5 12.3056 127.5 13V14.6667Z" fill="white"/>
</svg>
