<svg width="192" height="44" viewBox="0 0 192 44" fill="none" xmlns="http://www.w3.org/2000/svg">
<g filter="url(#filter0_dd_6_26359)">
<rect x="4" y="4" width="179" height="36" rx="12" fill="#FEBF21"/>
<rect x="3.75" y="3.75" width="179.5" height="36.5" rx="12.25" stroke="black" stroke-opacity="0.04" stroke-width="0.5"/>
</g>
<path d="M50.8365 27.156C49.8918 27.156 49.0382 26.9523 48.2755 26.545C47.5215 26.1377 46.9278 25.5787 46.4945 24.868C46.0698 24.1487 45.8575 23.3427 45.8575 22.45C45.8575 21.5573 46.0698 20.7557 46.4945 20.045C46.9278 19.3257 47.5215 18.7623 48.2755 18.355C49.0382 17.9477 49.8918 17.744 50.8365 17.744C51.7812 17.744 52.6305 17.9477 53.3845 18.355C54.1385 18.7623 54.7322 19.3257 55.1655 20.045C55.5988 20.7557 55.8155 21.5573 55.8155 22.45C55.8155 23.3427 55.5988 24.1487 55.1655 24.868C54.7322 25.5787 54.1385 26.1377 53.3845 26.545C52.6305 26.9523 51.7812 27.156 50.8365 27.156ZM50.8365 25.362C51.3738 25.362 51.8592 25.2407 52.2925 24.998C52.7258 24.7467 53.0638 24.4 53.3065 23.958C53.5578 23.516 53.6835 23.0133 53.6835 22.45C53.6835 21.8867 53.5578 21.384 53.3065 20.942C53.0638 20.5 52.7258 20.1577 52.2925 19.915C51.8592 19.6637 51.3738 19.538 50.8365 19.538C50.2992 19.538 49.8138 19.6637 49.3805 19.915C48.9472 20.1577 48.6048 20.5 48.3535 20.942C48.1108 21.384 47.9895 21.8867 47.9895 22.45C47.9895 23.0133 48.1108 23.516 48.3535 23.958C48.6048 24.4 48.9472 24.7467 49.3805 24.998C49.8138 25.2407 50.2992 25.362 50.8365 25.362ZM62.989 21.67H60.623V27H58.608V21.67H56.242V20.006H62.989V21.67ZM67.071 24.348H66.018V27H63.99V20.006H66.018V22.723H67.11L69.008 20.006H71.166L68.722 23.36L71.335 27H68.943L67.071 24.348ZM76.3718 19.902C77.0218 19.902 77.6112 20.0537 78.1398 20.357C78.6772 20.6517 79.0975 21.072 79.4008 21.618C79.7042 22.1553 79.8558 22.7837 79.8558 23.503C79.8558 24.2223 79.7042 24.855 79.4008 25.401C79.0975 25.9383 78.6772 26.3587 78.1398 26.662C77.6112 26.9567 77.0218 27.104 76.3718 27.104C75.4792 27.104 74.7772 26.8223 74.2658 26.259V29.522H72.2378V20.006H74.1748V20.812C74.6775 20.2053 75.4098 19.902 76.3718 19.902ZM76.0208 25.44C76.5408 25.44 76.9655 25.2667 77.2948 24.92C77.6328 24.5647 77.8018 24.0923 77.8018 23.503C77.8018 22.9137 77.6328 22.4457 77.2948 22.099C76.9655 21.7437 76.5408 21.566 76.0208 21.566C75.5008 21.566 75.0718 21.7437 74.7338 22.099C74.4045 22.4457 74.2398 22.9137 74.2398 23.503C74.2398 24.0923 74.4045 24.5647 74.7338 24.92C75.0718 25.2667 75.5008 25.44 76.0208 25.44ZM84.8762 22.242C85.7862 22.2507 86.4752 22.4543 86.9432 22.853C87.4112 23.2517 87.6452 23.8237 87.6452 24.569C87.6452 25.349 87.3809 25.9513 86.8522 26.376C86.3235 26.8007 85.5739 27.013 84.6032 27.013L81.1972 27V20.006H83.2122V22.242H84.8762ZM88.3992 20.006H90.4142V27H88.3992V20.006ZM84.4212 25.57C84.8112 25.5787 85.1102 25.4963 85.3182 25.323C85.5262 25.1497 85.6302 24.8897 85.6302 24.543C85.6302 24.205 85.5262 23.958 85.3182 23.802C85.1189 23.646 84.8199 23.5637 84.4212 23.555L83.2122 23.542V25.57H84.4212ZM98.1651 21.67H95.7991V27H93.7841V21.67H91.4181V20.006H98.1651V21.67ZM102.845 22.242C103.755 22.2507 104.444 22.4543 104.912 22.853C105.38 23.2517 105.614 23.8237 105.614 24.569C105.614 25.349 105.35 25.9513 104.821 26.376C104.292 26.8007 103.543 27.013 102.572 27.013L99.1661 27V20.006H101.181V22.242H102.845ZM106.368 20.006H108.383V27H106.368V20.006ZM102.39 25.57C102.78 25.5787 103.079 25.4963 103.287 25.323C103.495 25.1497 103.599 24.8897 103.599 24.543C103.599 24.205 103.495 23.958 103.287 23.802C103.088 23.646 102.789 23.5637 102.39 23.555L101.181 23.542V25.57H102.39ZM117.057 23.529C117.057 23.555 117.044 23.737 117.018 24.075H111.727C111.822 24.5083 112.048 24.8507 112.403 25.102C112.758 25.3533 113.2 25.479 113.729 25.479C114.093 25.479 114.414 25.427 114.691 25.323C114.977 25.2103 115.241 25.037 115.484 24.803L116.563 25.973C115.904 26.727 114.942 27.104 113.677 27.104C112.888 27.104 112.191 26.9523 111.584 26.649C110.977 26.337 110.509 25.908 110.18 25.362C109.851 24.816 109.686 24.1963 109.686 23.503C109.686 22.8183 109.846 22.203 110.167 21.657C110.496 21.1023 110.943 20.6733 111.506 20.37C112.078 20.058 112.715 19.902 113.417 19.902C114.102 19.902 114.721 20.0493 115.276 20.344C115.831 20.6387 116.264 21.0633 116.576 21.618C116.897 22.164 117.057 22.801 117.057 23.529ZM113.43 21.436C112.971 21.436 112.585 21.566 112.273 21.826C111.961 22.086 111.77 22.4413 111.701 22.892H115.146C115.077 22.45 114.886 22.099 114.574 21.839C114.262 21.5703 113.881 21.436 113.43 21.436Z" fill="#111111"/>
<path fill-rule="evenodd" clip-rule="evenodd" d="M127.591 17.8601C127.59 16.7385 127.998 15.6549 128.739 14.8128C129.48 13.9708 130.502 13.4281 131.615 13.2868C132.728 13.1455 133.854 13.4153 134.782 14.0454C135.709 14.6756 136.375 15.6228 136.654 16.7092C136.715 16.9457 136.68 17.1967 136.556 17.4071C136.432 17.6175 136.229 17.77 135.993 17.8311C135.756 17.8921 135.505 17.8567 135.295 17.7327C135.084 17.6086 134.932 17.406 134.871 17.1695C134.703 16.5175 134.304 15.949 133.747 15.5708C133.19 15.1925 132.515 15.0306 131.847 15.1154C131.179 15.2002 130.566 15.5259 130.121 16.0313C129.676 16.5367 129.432 17.187 129.433 17.8601V20.6222H137.167C137.977 20.6222 138.64 21.2851 138.64 22.0954V28.5404C138.64 29.7557 137.646 30.7501 136.43 30.7501H127.96C126.744 30.7501 125.75 29.7557 125.75 28.5404V22.0954C125.75 21.2851 126.413 20.6222 127.223 20.6222H127.591V17.8601ZM132.195 22.6938C131.829 22.6935 131.474 22.8178 131.188 23.0464C130.901 23.2749 130.702 23.5941 130.621 23.9513C130.541 24.3085 130.585 24.6824 130.745 25.0115C130.906 25.3405 131.174 25.6051 131.504 25.7617V27.988C131.504 28.1711 131.577 28.3468 131.707 28.4763C131.836 28.6058 132.012 28.6785 132.195 28.6785C132.378 28.6785 132.554 28.6058 132.683 28.4763C132.813 28.3468 132.886 28.1711 132.886 27.988V25.7617C133.217 25.6051 133.484 25.3405 133.645 25.0115C133.805 24.6824 133.849 24.3085 133.769 23.9513C133.688 23.5941 133.489 23.2749 133.203 23.0464C132.917 22.8178 132.561 22.6935 132.195 22.6938Z" fill="#111111"/>
<defs>
<filter id="filter0_dd_6_26359" x="-4.5" y="-1.5" width="196" height="53" filterUnits="userSpaceOnUse" color-interpolation-filters="sRGB">
<feFlood flood-opacity="0" result="BackgroundImageFix"/>
<feColorMatrix in="SourceAlpha" type="matrix" values="0 0 0 0 0 0 0 0 0 0 0 0 0 0 0 0 0 0 127 0" result="hardAlpha"/>
<feOffset dy="3"/>
<feGaussianBlur stdDeviation="0.5"/>
<feColorMatrix type="matrix" values="0 0 0 0 0 0 0 0 0 0 0 0 0 0 0 0 0 0 0.04 0"/>
<feBlend mode="normal" in2="BackgroundImageFix" result="effect1_dropShadow_6_26359"/>
<feColorMatrix in="SourceAlpha" type="matrix" values="0 0 0 0 0 0 0 0 0 0 0 0 0 0 0 0 0 0 127 0" result="hardAlpha"/>
<feOffset dy="3"/>
<feGaussianBlur stdDeviation="4"/>
<feColorMatrix type="matrix" values="0 0 0 0 0 0 0 0 0 0 0 0 0 0 0 0 0 0 0.12 0"/>
<feBlend mode="normal" in2="effect1_dropShadow_6_26359" result="effect2_dropShadow_6_26359"/>
<feBlend mode="normal" in="SourceGraphic" in2="effect2_dropShadow_6_26359" result="shape"/>
</filter>
</defs>
</svg>
