<svg width="60" height="60" viewBox="0 0 60 60" fill="none" xmlns="http://www.w3.org/2000/svg">
<rect width="60" height="60" rx="30" fill="#292929"/>
<path d="M29.936 17.7322C26.7829 17.7322 24.332 17.7322 22.4241 17.9363C20.4944 18.1445 18.9662 18.5759 17.7469 19.5503C16.4949 20.5519 15.9097 21.8542 15.6335 23.4967C15.3708 25.0644 15.3708 27.0594 15.3708 29.5471V29.7961C15.3708 32.2211 15.3708 33.8991 15.643 35.1497C15.79 35.8233 16.0213 36.4085 16.3847 36.9501C16.7439 37.4835 17.2012 37.9326 17.7469 38.3681C18.6056 39.0553 19.618 39.4704 20.8142 39.7289V43.2481C20.8144 43.4269 20.8615 43.6025 20.9509 43.7574C21.0403 43.9122 21.1688 44.0409 21.3236 44.1305C21.4783 44.2201 21.6539 44.2674 21.8327 44.2678C22.0116 44.2682 22.1873 44.2215 22.3425 44.1326C23.1399 43.6767 23.8462 43.18 24.4926 42.7119L24.9063 42.4111C25.3666 42.0665 25.8367 41.7353 26.3161 41.4177C27.4647 40.672 28.5615 40.1862 29.9999 40.1862H30.0639C33.217 40.1862 35.6679 40.1862 37.5758 39.982C39.5054 39.7738 41.0337 39.3424 42.253 38.3681C42.7973 37.9326 43.2559 37.4835 43.6138 36.9501C43.9785 36.4085 44.2099 35.8233 44.3569 35.1497C44.629 33.8991 44.629 32.2211 44.629 29.7961V29.5471C44.629 27.0594 44.629 25.0644 44.3664 23.4981C44.0901 21.8542 43.505 20.5519 42.253 19.5503C41.0337 18.5746 39.5054 18.1445 37.5758 17.9377C35.6679 17.7322 33.217 17.7322 30.0639 17.7322H29.936Z" fill="white"/>
</svg>
