<svg width="326" height="52" viewBox="0 0 326 52" fill="none" xmlns="http://www.w3.org/2000/svg">
<rect x="0.5" y="0.5" width="325" height="51" rx="15.5" stroke="#FEBF21"/>
<path d="M134.714 26.16C135.365 26.384 135.872 26.736 136.234 27.216C136.608 27.6853 136.794 28.2347 136.794 28.864C136.794 29.5467 136.57 30.1387 136.122 30.64C135.674 31.1413 135.066 31.5253 134.298 31.792C133.541 32.0587 132.709 32.192 131.802 32.192C131.034 32.192 130.266 32.096 129.498 31.904C128.741 31.712 128.021 31.4187 127.338 31.024L128.138 29.168C128.629 29.4667 129.168 29.696 129.754 29.856C130.352 30.0053 130.933 30.08 131.498 30.08C132.266 30.08 132.901 29.9413 133.402 29.664C133.914 29.3867 134.17 28.9973 134.17 28.496C134.17 28.08 133.994 27.7653 133.642 27.552C133.301 27.3387 132.832 27.232 132.234 27.232H129.498V25.28H132.042C132.565 25.28 132.97 25.1733 133.258 24.96C133.557 24.7467 133.706 24.4533 133.706 24.08C133.706 23.6427 133.493 23.3013 133.066 23.056C132.65 22.8107 132.112 22.688 131.45 22.688C130.96 22.688 130.453 22.7573 129.93 22.896C129.408 23.024 128.912 23.2213 128.442 23.488L127.658 21.472C128.842 20.864 130.122 20.56 131.498 20.56C132.373 20.56 133.178 20.688 133.914 20.944C134.65 21.2 135.237 21.5733 135.674 22.064C136.112 22.5547 136.33 23.1253 136.33 23.776C136.33 24.3093 136.186 24.784 135.898 25.2C135.61 25.616 135.216 25.936 134.714 26.16ZM141.758 23.264C143.092 23.264 144.116 23.584 144.83 24.224C145.545 24.8533 145.902 25.808 145.902 27.088V32H143.566V30.928C143.097 31.728 142.222 32.128 140.942 32.128C140.281 32.128 139.705 32.016 139.214 31.792C138.734 31.568 138.366 31.2587 138.11 30.864C137.854 30.4693 137.726 30.0213 137.726 29.52C137.726 28.72 138.025 28.0907 138.622 27.632C139.23 27.1733 140.164 26.944 141.422 26.944H143.406C143.406 26.4 143.241 25.984 142.91 25.696C142.58 25.3973 142.084 25.248 141.422 25.248C140.964 25.248 140.51 25.3227 140.062 25.472C139.625 25.6107 139.252 25.8027 138.942 26.048L138.046 24.304C138.516 23.9733 139.076 23.7173 139.726 23.536C140.388 23.3547 141.065 23.264 141.758 23.264ZM141.566 30.448C141.993 30.448 142.372 30.352 142.702 30.16C143.033 29.9573 143.268 29.664 143.406 29.28V28.4H141.694C140.67 28.4 140.158 28.736 140.158 29.408C140.158 29.728 140.281 29.984 140.526 30.176C140.782 30.3573 141.129 30.448 141.566 30.448ZM151.623 28.736H150.327V32H147.831V23.392H150.327V26.736H151.671L154.007 23.392H156.663L153.655 27.52L156.871 32H153.927L151.623 28.736ZM162.928 23.264C163.728 23.264 164.454 23.4507 165.104 23.824C165.766 24.1867 166.283 24.704 166.656 25.376C167.03 26.0373 167.216 26.8107 167.216 27.696C167.216 28.5813 167.03 29.36 166.656 30.032C166.283 30.6933 165.766 31.2107 165.104 31.584C164.454 31.9467 163.728 32.128 162.928 32.128C161.83 32.128 160.966 31.7813 160.336 31.088V35.104H157.84V23.392H160.224V24.384C160.843 23.6373 161.744 23.264 162.928 23.264ZM162.496 30.08C163.136 30.08 163.659 29.8667 164.064 29.44C164.48 29.0027 164.688 28.4213 164.688 27.696C164.688 26.9707 164.48 26.3947 164.064 25.968C163.659 25.5307 163.136 25.312 162.496 25.312C161.856 25.312 161.328 25.5307 160.912 25.968C160.507 26.3947 160.304 26.9707 160.304 27.696C160.304 28.4213 160.507 29.0027 160.912 29.44C161.328 29.8667 161.856 30.08 162.496 30.08ZM173.254 26.144C174.374 26.1547 175.222 26.4053 175.798 26.896C176.374 27.3867 176.662 28.0907 176.662 29.008C176.662 29.968 176.336 30.7093 175.686 31.232C175.035 31.7547 174.112 32.016 172.918 32.016L168.726 32V23.392H171.206V26.144H173.254ZM177.59 23.392H180.07V32H177.59V23.392ZM172.694 30.24C173.174 30.2507 173.542 30.1493 173.798 29.936C174.054 29.7227 174.182 29.4027 174.182 28.976C174.182 28.56 174.054 28.256 173.798 28.064C173.552 27.872 173.184 27.7707 172.694 27.76L171.206 27.744V30.24H172.694ZM189.468 25.44H186.556V32H184.076V25.44H181.164V23.392H189.468V25.44ZM195.214 26.144C196.334 26.1547 197.193 26.4107 197.79 26.912C198.387 27.4027 198.686 28.1013 198.686 29.008C198.686 29.9573 198.35 30.6987 197.678 31.232C197.017 31.7547 196.083 32.016 194.878 32.016L190.558 32V23.392H193.038V26.144H195.214ZM194.654 30.24C195.134 30.2507 195.502 30.1493 195.758 29.936C196.014 29.7227 196.142 29.4027 196.142 28.976C196.142 28.56 196.014 28.256 195.758 28.064C195.513 27.872 195.145 27.7707 194.654 27.76L193.038 27.744V30.24H194.654Z" fill="#FEBF21"/>
</svg>
