<svg width="72" height="105" viewBox="0 0 72 105" fill="none" xmlns="http://www.w3.org/2000/svg">
<rect x="1" y="1.14285" width="70" height="70" rx="19" stroke="white" stroke-width="2" stroke-dasharray="10 10"/>
<path d="M38.4024 43.5517C38.4024 44.1882 38.1496 44.7986 37.6995 45.2487C37.2494 45.6988 36.6389 45.9517 36.0024 45.9517C35.3659 45.9517 34.7554 45.6988 34.3054 45.2487C33.8553 44.7986 33.6024 44.1882 33.6024 43.5517C33.6024 42.9151 33.8553 42.3047 34.3054 41.8546C34.7554 41.4045 35.3659 41.1517 36.0024 41.1517C36.6389 41.1517 37.2494 41.4045 37.6995 41.8546C38.1496 42.3047 38.4024 42.9151 38.4024 43.5517Z" fill="white"/>
<path fill-rule="evenodd" clip-rule="evenodd" d="M35.9676 29.8141C35.1636 29.8141 34.4736 30.0541 33.9876 30.3973C33.5196 30.7285 33.288 31.1137 33.2208 31.4461C33.1215 31.8904 32.8521 32.2781 32.4702 32.526C32.0883 32.7739 31.6245 32.8623 31.1782 32.7721C30.732 32.682 30.3388 32.4205 30.0831 32.0439C29.8274 31.6672 29.7295 31.2053 29.8104 30.7573C30.0828 29.4061 30.9204 28.3033 31.9812 27.5533C33.0852 26.7733 34.4844 26.3341 35.9676 26.3341C39.036 26.3341 42.2172 28.3861 42.2172 31.6813C42.2172 33.5893 41.0832 35.1325 39.6144 36.0325C39.2207 36.2734 38.7475 36.348 38.2987 36.24C37.85 36.132 37.4626 35.8501 37.2216 35.4565C36.9807 35.0628 36.906 34.5895 37.0141 34.1408C37.1221 33.692 37.4039 33.3046 37.7976 33.0637C38.4816 32.6449 38.7372 32.1109 38.7372 31.6813C38.7372 30.9925 37.8792 29.8141 35.9676 29.8141Z" fill="white"/>
<path fill-rule="evenodd" clip-rule="evenodd" d="M35.9677 34.4521C36.9277 34.4521 37.7077 35.2297 37.7077 36.1921V37.9945C37.7077 38.4559 37.5243 38.8985 37.198 39.2248C36.8717 39.5511 36.4291 39.7345 35.9677 39.7345C35.5062 39.7345 35.0636 39.5511 34.7373 39.2248C34.411 38.8985 34.2277 38.4559 34.2277 37.9945V36.1921C34.2277 35.2321 35.0065 34.4521 35.9677 34.4521Z" fill="white"/>
<path fill-rule="evenodd" clip-rule="evenodd" d="M40.2025 33.6553C40.32 33.8514 40.3978 34.0688 40.4312 34.295C40.4647 34.5212 40.4532 34.7518 40.3975 34.9736C40.3418 35.1954 40.2429 35.404 40.1065 35.5876C39.97 35.7711 39.7988 35.9259 39.6025 36.0433L36.8617 37.6837C36.4658 37.9208 35.9919 37.9909 35.5443 37.8786C35.0967 37.7663 34.712 37.4808 34.4749 37.0849C34.2378 36.6889 34.1677 36.215 34.28 35.7674C34.3923 35.3198 34.6778 34.9352 35.0737 34.6981L37.8157 33.0565C38.0118 32.9391 38.2291 32.8615 38.4552 32.8282C38.6813 32.7948 38.9117 32.8063 39.1334 32.862C39.355 32.9178 39.5635 33.0166 39.747 33.1529C39.9304 33.2892 40.0852 33.4591 40.2025 33.6553Z" fill="white"/>
<path d="M42.14 95.7029H39.48V99.1429H37.54V95.7029H29.76V94.3029L36.92 85.1429H39.08L32.22 93.9829H37.6V90.9429H39.48V93.9829H42.14V95.7029Z" fill="white"/>
</svg>
