<svg width="44" height="44" viewBox="0 0 44 44" fill="none" xmlns="http://www.w3.org/2000/svg">
<path fill-rule="evenodd" clip-rule="evenodd" d="M7.64867 5.81529C5.5 7.96213 5.5 11.4198 5.5 18.3333V25.6666C5.5 32.5801 5.5 36.0378 7.64867 38.1846C9.79733 40.3315 13.2532 40.3333 20.1667 40.3333H23.8333C30.7468 40.3333 34.2045 40.3333 36.3513 38.1846C38.4982 36.036 38.5 32.5801 38.5 25.6666V18.3333C38.5 11.4198 38.5 7.96213 36.3513 5.81529C34.2027 3.66846 30.7468 3.66663 23.8333 3.66663H20.1667C13.2532 3.66663 9.7955 3.66663 7.64867 5.81529ZM14.6667 16.9583C14.302 16.9583 13.9523 17.1032 13.6944 17.361C13.4365 17.6189 13.2917 17.9686 13.2917 18.3333C13.2917 18.698 13.4365 19.0477 13.6944 19.3056C13.9523 19.5634 14.302 19.7083 14.6667 19.7083H29.3333C29.698 19.7083 30.0477 19.5634 30.3056 19.3056C30.5635 19.0477 30.7083 18.698 30.7083 18.3333C30.7083 17.9686 30.5635 17.6189 30.3056 17.361C30.0477 17.1032 29.698 16.9583 29.3333 16.9583H14.6667ZM14.6667 24.2916C14.302 24.2916 13.9523 24.4365 13.6944 24.6944C13.4365 24.9522 13.2917 25.302 13.2917 25.6666C13.2917 26.0313 13.4365 26.381 13.6944 26.6389C13.9523 26.8968 14.302 27.0416 14.6667 27.0416H23.8333C24.198 27.0416 24.5477 26.8968 24.8056 26.6389C25.0635 26.381 25.2083 26.0313 25.2083 25.6666C25.2083 25.302 25.0635 24.9522 24.8056 24.6944C24.5477 24.4365 24.198 24.2916 23.8333 24.2916H14.6667Z" fill="white"/>
</svg>
