<svg width="72" height="105" viewBox="0 0 72 105" fill="none" xmlns="http://www.w3.org/2000/svg">
<rect x="1" y="1.14285" width="70" height="70" rx="19" stroke="white" stroke-width="2" stroke-dasharray="10 10"/>
<path d="M38.4025 43.5517C38.4025 44.1882 38.1497 44.7986 37.6996 45.2487C37.2495 45.6988 36.6391 45.9517 36.0025 45.9517C35.366 45.9517 34.7556 45.6988 34.3055 45.2487C33.8554 44.7986 33.6025 44.1882 33.6025 43.5517C33.6025 42.9152 33.8554 42.3047 34.3055 41.8546C34.7556 41.4045 35.366 41.1517 36.0025 41.1517C36.6391 41.1517 37.2495 41.4045 37.6996 41.8546C38.1497 42.3047 38.4025 42.9152 38.4025 43.5517Z" fill="white"/>
<path fill-rule="evenodd" clip-rule="evenodd" d="M35.9676 29.814C35.1636 29.814 34.4736 30.054 33.9876 30.3972C33.5196 30.7284 33.288 31.1136 33.2208 31.446C33.1215 31.8904 32.8521 32.2781 32.4702 32.526C32.0883 32.7739 31.6245 32.8622 31.1782 32.7721C30.732 32.682 30.3388 32.4205 30.0831 32.0439C29.8274 31.6672 29.7295 31.2053 29.8104 30.7572C30.0828 29.406 30.9204 28.3032 31.9812 27.5532C33.0852 26.7732 34.4844 26.334 35.9676 26.334C39.036 26.334 42.2172 28.386 42.2172 31.6812C42.2172 33.5892 41.0832 35.1324 39.6144 36.0324C39.2207 36.2734 38.7475 36.348 38.2987 36.24C37.85 36.132 37.4626 35.8501 37.2216 35.4564C36.9807 35.0628 36.906 34.5895 37.0141 34.1408C37.1221 33.692 37.4039 33.3046 37.7976 33.0636C38.4816 32.6448 38.7372 32.1108 38.7372 31.6812C38.7372 30.9924 37.8792 29.814 35.9676 29.814Z" fill="white"/>
<path fill-rule="evenodd" clip-rule="evenodd" d="M35.9675 34.452C36.9275 34.452 37.7075 35.2296 37.7075 36.192V37.9944C37.7075 38.4559 37.5242 38.8985 37.1979 39.2248C36.8716 39.5511 36.429 39.7344 35.9675 39.7344C35.5061 39.7344 35.0635 39.5511 34.7372 39.2248C34.4109 38.8985 34.2275 38.4559 34.2275 37.9944V36.192C34.2275 35.232 35.0063 34.452 35.9675 34.452Z" fill="white"/>
<path fill-rule="evenodd" clip-rule="evenodd" d="M40.2024 33.6552C40.3199 33.8514 40.3976 34.0688 40.4311 34.295C40.4646 34.5212 40.4531 34.7518 40.3974 34.9736C40.3416 35.1954 40.2427 35.404 40.1063 35.5875C39.9699 35.7711 39.7987 35.9259 39.6024 36.0432L36.8616 37.6836C36.4657 37.9207 35.9918 37.9908 35.5442 37.8786C35.0965 37.7663 34.7119 37.4807 34.4748 37.0848C34.2377 36.6889 34.1676 36.215 34.2798 35.7674C34.3921 35.3198 34.6777 34.9351 35.0736 34.698L37.8156 33.0564C38.0117 32.9391 38.229 32.8615 38.4551 32.8281C38.6812 32.7948 38.9116 32.8063 39.1333 32.862C39.3549 32.9177 39.5634 33.0166 39.7468 33.1529C39.9303 33.2892 40.0851 33.4591 40.2024 33.6552Z" fill="white"/>
<path d="M36.34 99.3028C35.1 99.3028 34.04 99.0295 33.16 98.4828C32.28 97.9362 31.6067 97.1495 31.14 96.1228C30.6867 95.0828 30.46 93.8162 30.46 92.3228C30.46 90.7362 30.74 89.3962 31.3 88.3028C31.86 87.2095 32.64 86.3828 33.64 85.8228C34.64 85.2628 35.7867 84.9828 37.08 84.9828C37.7467 84.9828 38.38 85.0495 38.98 85.1828C39.5933 85.3162 40.12 85.5228 40.56 85.8028L39.8 87.3628C39.44 87.1095 39.0267 86.9362 38.56 86.8428C38.1067 86.7495 37.6267 86.7028 37.12 86.7028C35.6933 86.7028 34.56 87.1495 33.72 88.0428C32.88 88.9228 32.46 90.2362 32.46 91.9828C32.46 92.2628 32.4733 92.5962 32.5 92.9828C32.5267 93.3695 32.5933 93.7495 32.7 94.1228L32.02 93.4428C32.22 92.8295 32.5333 92.3162 32.96 91.9028C33.4 91.4762 33.92 91.1628 34.52 90.9628C35.1333 90.7495 35.7933 90.6428 36.5 90.6428C37.4333 90.6428 38.26 90.8162 38.98 91.1628C39.7 91.5095 40.2667 92.0028 40.68 92.6428C41.0933 93.2695 41.3 94.0162 41.3 94.8828C41.3 95.7762 41.08 96.5562 40.64 97.2228C40.2 97.8895 39.6067 98.4028 38.86 98.7628C38.1133 99.1228 37.2733 99.3028 36.34 99.3028ZM36.26 97.6828C36.8733 97.6828 37.4067 97.5695 37.86 97.3428C38.3267 97.1162 38.6933 96.8028 38.96 96.4028C39.2267 95.9895 39.36 95.5095 39.36 94.9628C39.36 94.1362 39.0733 93.4828 38.5 93.0028C37.9267 92.5095 37.1467 92.2628 36.16 92.2628C35.52 92.2628 34.96 92.3828 34.48 92.6228C34 92.8628 33.62 93.1895 33.34 93.6028C33.0733 94.0028 32.94 94.4628 32.94 94.9828C32.94 95.4628 33.0667 95.9095 33.32 96.3228C33.5733 96.7228 33.9467 97.0495 34.44 97.3028C34.9333 97.5562 35.54 97.6828 36.26 97.6828Z" fill="white"/>
</svg>
