<svg width="72" height="105" viewBox="0 0 72 105" fill="none" xmlns="http://www.w3.org/2000/svg">
<rect x="1" y="1.85721" width="70" height="70" rx="19" stroke="white" stroke-width="2" stroke-dasharray="10 10"/>
<path d="M38.4025 44.266C38.4025 44.9025 38.1497 45.513 37.6996 45.9631C37.2495 46.4131 36.6391 46.666 36.0025 46.666C35.366 46.666 34.7556 46.4131 34.3055 45.9631C33.8554 45.513 33.6025 44.9025 33.6025 44.266C33.6025 43.6295 33.8554 43.019 34.3055 42.5689C34.7556 42.1189 35.366 41.866 36.0025 41.866C36.6391 41.866 37.2495 42.1189 37.6996 42.5689C38.1497 43.019 38.4025 43.6295 38.4025 44.266Z" fill="white"/>
<path fill-rule="evenodd" clip-rule="evenodd" d="M35.9676 30.5284C35.1636 30.5284 34.4736 30.7684 33.9876 31.1116C33.5196 31.4428 33.288 31.828 33.2208 32.1604C33.1215 32.6047 32.8521 32.9924 32.4702 33.2403C32.0883 33.4882 31.6245 33.5766 31.1782 33.4865C30.732 33.3963 30.3388 33.1349 30.0831 32.7582C29.8274 32.3815 29.7295 31.9196 29.8104 31.4716C30.0828 30.1204 30.9204 29.0176 31.9812 28.2676C33.0852 27.4876 34.4844 27.0484 35.9676 27.0484C39.036 27.0484 42.2172 29.1004 42.2172 32.3956C42.2172 34.3036 41.0832 35.8468 39.6144 36.7468C39.2207 36.9877 38.7475 37.0624 38.2987 36.9544C37.85 36.8463 37.4626 36.5645 37.2216 36.1708C36.9807 35.7771 36.906 35.3038 37.0141 34.8551C37.1221 34.4064 37.4039 34.0189 37.7976 33.778C38.4816 33.3592 38.7372 32.8252 38.7372 32.3956C38.7372 31.7068 37.8792 30.5284 35.9676 30.5284Z" fill="white"/>
<path fill-rule="evenodd" clip-rule="evenodd" d="M35.9675 35.1664C36.9275 35.1664 37.7075 35.944 37.7075 36.9064V38.7088C37.7075 39.1703 37.5242 39.6128 37.1979 39.9392C36.8716 40.2655 36.429 40.4488 35.9675 40.4488C35.5061 40.4488 35.0635 40.2655 34.7372 39.9392C34.4109 39.6128 34.2275 39.1703 34.2275 38.7088V36.9064C34.2275 35.9464 35.0063 35.1664 35.9675 35.1664Z" fill="white"/>
<path fill-rule="evenodd" clip-rule="evenodd" d="M40.2024 34.3696C40.3199 34.5658 40.3976 34.7832 40.4311 35.0094C40.4646 35.2356 40.4531 35.4662 40.3974 35.688C40.3416 35.9098 40.2427 36.1184 40.1063 36.3019C39.9699 36.4854 39.7987 36.6403 39.6024 36.7576L36.8616 38.398C36.4657 38.6351 35.9918 38.7052 35.5442 38.5929C35.0965 38.4806 34.7119 38.1951 34.4748 37.7992C34.2377 37.4033 34.1676 36.9294 34.2798 36.4818C34.3921 36.0342 34.6777 35.6495 35.0736 35.4124L37.8156 33.7708C38.0117 33.6534 38.229 33.5759 38.4551 33.5425C38.6812 33.5092 38.9116 33.5207 39.1333 33.5764C39.3549 33.6321 39.5634 33.7309 39.7468 33.8672C39.9303 34.0035 40.0851 34.1735 40.2024 34.3696Z" fill="white"/>
<path d="M35.48 100.017C34.4933 100.017 33.5333 99.8639 32.6 99.5572C31.68 99.2505 30.9267 98.8372 30.34 98.3172L31.26 96.7372C31.7267 97.1772 32.3333 97.5372 33.08 97.8172C33.8267 98.0972 34.62 98.2372 35.46 98.2372C36.5267 98.2372 37.3467 98.0105 37.92 97.5572C38.4933 97.1039 38.78 96.4972 38.78 95.7372C38.78 95.2172 38.6533 94.7639 38.4 94.3772C38.1467 93.9905 37.7067 93.6972 37.08 93.4972C36.4667 93.2839 35.62 93.1772 34.54 93.1772H31.36L32.1 85.8572H40V87.5972H32.84L33.88 86.6172L33.3 92.3972L32.26 91.4372H34.96C36.36 91.4372 37.4867 91.6172 38.34 91.9772C39.1933 92.3372 39.8133 92.8372 40.2 93.4772C40.5867 94.1039 40.78 94.8305 40.78 95.6572C40.78 96.4572 40.5867 97.1905 40.2 97.8572C39.8133 98.5105 39.2267 99.0372 38.44 99.4372C37.6667 99.8239 36.68 100.017 35.48 100.017Z" fill="white"/>
</svg>
