<svg width="177" height="90" viewBox="0 0 177 90" fill="none" xmlns="http://www.w3.org/2000/svg">
<rect width="177" height="90" rx="20" fill="#1B1A1A"/>
<path d="M72.1829 30.168C71.1655 30.168 70.2462 29.9487 69.4249 29.51C68.6129 29.0713 67.9735 28.4693 67.5069 27.704C67.0495 26.9293 66.8209 26.0613 66.8209 25.1C66.8209 24.1387 67.0495 23.2753 67.5069 22.51C67.9735 21.7353 68.6129 21.1287 69.4249 20.69C70.2462 20.2513 71.1655 20.032 72.1829 20.032C73.2002 20.032 74.1149 20.2513 74.9269 20.69C75.7389 21.1287 76.3782 21.7353 76.8449 22.51C77.3115 23.2753 77.5449 24.1387 77.5449 25.1C77.5449 26.0613 77.3115 26.9293 76.8449 27.704C76.3782 28.4693 75.7389 29.0713 74.9269 29.51C74.1149 29.9487 73.2002 30.168 72.1829 30.168ZM72.1829 28.236C72.7615 28.236 73.2842 28.1053 73.7509 27.844C74.2175 27.5733 74.5815 27.2 74.8429 26.724C75.1135 26.248 75.2489 25.7067 75.2489 25.1C75.2489 24.4933 75.1135 23.952 74.8429 23.476C74.5815 23 74.2175 22.6313 73.7509 22.37C73.2842 22.0993 72.7615 21.964 72.1829 21.964C71.6042 21.964 71.0815 22.0993 70.6149 22.37C70.1482 22.6313 69.7795 23 69.5089 23.476C69.2475 23.952 69.1169 24.4933 69.1169 25.1C69.1169 25.7067 69.2475 26.248 69.5089 26.724C69.7795 27.2 70.1482 27.5733 70.6149 27.844C71.0815 28.1053 71.6042 28.236 72.1829 28.236ZM86.5804 22.468V30H84.3964V24.26H81.2604V30H79.0904V22.468H86.5804ZM92.6028 24.876C93.5828 24.8853 94.3248 25.1047 94.8288 25.534C95.3328 25.9633 95.5848 26.5793 95.5848 27.382C95.5848 28.222 95.3002 28.8707 94.7308 29.328C94.1615 29.7853 93.3542 30.014 92.3088 30.014L88.6408 30V22.468H90.8108V24.876H92.6028ZM96.3968 22.468H98.5668V30H96.3968V22.468ZM92.1128 28.46C92.5328 28.4693 92.8548 28.3807 93.0788 28.194C93.3028 28.0073 93.4148 27.7273 93.4148 27.354C93.4148 26.99 93.3028 26.724 93.0788 26.556C92.8642 26.388 92.5422 26.2993 92.1128 26.29L90.8108 26.276V28.46H92.1128ZM106.966 24.26H104.418V30H102.248V24.26H99.7005V22.468H106.966V24.26ZM108.881 25.086C108.498 25.086 108.176 24.9553 107.915 24.694C107.654 24.4327 107.523 24.106 107.523 23.714C107.523 23.3127 107.654 22.9907 107.915 22.748C108.176 22.496 108.498 22.37 108.881 22.37C109.264 22.37 109.586 22.496 109.847 22.748C110.108 22.9907 110.239 23.3127 110.239 23.714C110.239 24.106 110.108 24.4327 109.847 24.694C109.586 24.9553 109.264 25.086 108.881 25.086ZM108.881 30.112C108.498 30.112 108.176 29.9813 107.915 29.72C107.654 29.4587 107.523 29.132 107.523 28.74C107.523 28.3387 107.654 28.0167 107.915 27.774C108.176 27.522 108.498 27.396 108.881 27.396C109.264 27.396 109.586 27.522 109.847 27.774C110.108 28.0167 110.239 28.3387 110.239 28.74C110.239 29.132 110.108 29.4587 109.847 29.72C109.586 29.9813 109.264 30.112 108.881 30.112Z" fill="#FCFBFB"/>
<g filter="url(#filter0_i_10_25733)">
<path d="M61.2442 53.0492C61.2731 52.8296 61.2313 52.6064 61.1247 52.4122C61.0182 52.218 60.8525 52.0628 60.6517 51.9692C60.4452 51.8723 60.2117 51.8492 59.9903 51.9038C59.7688 51.9584 59.5728 52.0874 59.435 52.2692L52.9317 60.6134C52.8137 60.7654 52.739 60.9465 52.7155 61.1375C52.692 61.3285 52.7207 61.5223 52.7984 61.6984C52.9417 62.0259 53.2734 62.3159 53.7284 62.3159H59.2967L58.755 66.9509C58.7261 67.1705 58.768 67.3936 58.8745 67.5878C58.9811 67.782 59.1468 67.9372 59.3475 68.0309C59.554 68.1278 59.7875 68.1508 60.009 68.0962C60.2304 68.0416 60.4264 67.9126 60.5642 67.7309L67.0667 59.3867C67.1847 59.2347 67.2595 59.0536 67.2829 58.8626C67.3064 58.6716 67.2778 58.4778 67.2 58.3017C67.1222 58.1193 66.9926 57.9636 66.8274 57.8539C66.6621 57.7442 66.4684 57.6852 66.27 57.6842H60.7017L61.2442 53.0492Z" fill="#FEBF21"/>
</g>
<path d="M76.5027 65.5V55.26L77.6227 56.38H74.2627V54.3H79.0947V65.5H76.5027ZM84.8099 65.692C84.0312 65.692 83.2579 65.5907 82.4899 65.388C81.7326 65.1747 81.0819 64.876 80.5379 64.492L81.5619 62.508C81.9886 62.8173 82.4792 63.0627 83.0339 63.244C83.5992 63.4253 84.1699 63.516 84.7459 63.516C85.3966 63.516 85.9086 63.388 86.2819 63.132C86.6552 62.876 86.8419 62.5187 86.8419 62.06C86.8419 61.772 86.7672 61.516 86.6179 61.292C86.4686 61.068 86.2019 60.8973 85.8179 60.78C85.4446 60.6627 84.9166 60.604 84.2339 60.604H81.3699L81.9459 54.3H88.7779V56.38H82.8739L84.2179 55.196L83.8179 59.692L82.4739 58.508H84.8419C85.9512 58.508 86.8419 58.6627 87.5139 58.972C88.1966 59.2707 88.6926 59.6813 89.0019 60.204C89.3112 60.7267 89.4659 61.3187 89.4659 61.98C89.4659 62.6413 89.3006 63.2547 88.9699 63.82C88.6392 64.3747 88.1272 64.828 87.4339 65.18C86.7512 65.5213 85.8766 65.692 84.8099 65.692ZM99.772 65.692C98.8547 65.692 98.0333 65.468 97.308 65.02C96.5827 64.5613 96.012 63.9 95.596 63.036C95.18 62.172 94.972 61.1267 94.972 59.9C94.972 58.6733 95.18 57.628 95.596 56.764C96.012 55.9 96.5827 55.244 97.308 54.796C98.0333 54.3373 98.8547 54.108 99.772 54.108C100.7 54.108 101.521 54.3373 102.236 54.796C102.961 55.244 103.532 55.9 103.948 56.764C104.364 57.628 104.572 58.6733 104.572 59.9C104.572 61.1267 104.364 62.172 103.948 63.036C103.532 63.9 102.961 64.5613 102.236 65.02C101.521 65.468 100.7 65.692 99.772 65.692ZM99.772 63.5C100.209 63.5 100.588 63.3773 100.908 63.132C101.239 62.8867 101.495 62.4973 101.676 61.964C101.868 61.4307 101.964 60.7427 101.964 59.9C101.964 59.0573 101.868 58.3693 101.676 57.836C101.495 57.3027 101.239 56.9133 100.908 56.668C100.588 56.4227 100.209 56.3 99.772 56.3C99.3453 56.3 98.9667 56.4227 98.636 56.668C98.316 56.9133 98.06 57.3027 97.868 57.836C97.6867 58.3693 97.596 59.0573 97.596 59.9C97.596 60.7427 97.6867 61.4307 97.868 61.964C98.06 62.4973 98.316 62.8867 98.636 63.132C98.9667 63.3773 99.3453 63.5 99.772 63.5ZM110.593 65.692C109.676 65.692 108.854 65.468 108.129 65.02C107.404 64.5613 106.833 63.9 106.417 63.036C106.001 62.172 105.793 61.1267 105.793 59.9C105.793 58.6733 106.001 57.628 106.417 56.764C106.833 55.9 107.404 55.244 108.129 54.796C108.854 54.3373 109.676 54.108 110.593 54.108C111.521 54.108 112.342 54.3373 113.057 54.796C113.782 55.244 114.353 55.9 114.769 56.764C115.185 57.628 115.393 58.6733 115.393 59.9C115.393 61.1267 115.185 62.172 114.769 63.036C114.353 63.9 113.782 64.5613 113.057 65.02C112.342 65.468 111.521 65.692 110.593 65.692ZM110.593 63.5C111.03 63.5 111.409 63.3773 111.729 63.132C112.06 62.8867 112.316 62.4973 112.497 61.964C112.689 61.4307 112.785 60.7427 112.785 59.9C112.785 59.0573 112.689 58.3693 112.497 57.836C112.316 57.3027 112.06 56.9133 111.729 56.668C111.409 56.4227 111.03 56.3 110.593 56.3C110.166 56.3 109.788 56.4227 109.457 56.668C109.137 56.9133 108.881 57.3027 108.689 57.836C108.508 58.3693 108.417 59.0573 108.417 59.9C108.417 60.7427 108.508 61.4307 108.689 61.964C108.881 62.4973 109.137 62.8867 109.457 63.132C109.788 63.3773 110.166 63.5 110.593 63.5ZM121.414 65.692C120.497 65.692 119.675 65.468 118.95 65.02C118.225 64.5613 117.654 63.9 117.238 63.036C116.822 62.172 116.614 61.1267 116.614 59.9C116.614 58.6733 116.822 57.628 117.238 56.764C117.654 55.9 118.225 55.244 118.95 54.796C119.675 54.3373 120.497 54.108 121.414 54.108C122.342 54.108 123.163 54.3373 123.878 54.796C124.603 55.244 125.174 55.9 125.59 56.764C126.006 57.628 126.214 58.6733 126.214 59.9C126.214 61.1267 126.006 62.172 125.59 63.036C125.174 63.9 124.603 64.5613 123.878 65.02C123.163 65.468 122.342 65.692 121.414 65.692ZM121.414 63.5C121.851 63.5 122.23 63.3773 122.55 63.132C122.881 62.8867 123.137 62.4973 123.318 61.964C123.51 61.4307 123.606 60.7427 123.606 59.9C123.606 59.0573 123.51 58.3693 123.318 57.836C123.137 57.3027 122.881 56.9133 122.55 56.668C122.23 56.4227 121.851 56.3 121.414 56.3C120.987 56.3 120.609 56.4227 120.278 56.668C119.958 56.9133 119.702 57.3027 119.51 57.836C119.329 58.3693 119.238 59.0573 119.238 59.9C119.238 60.7427 119.329 61.4307 119.51 61.964C119.702 62.4973 119.958 62.8867 120.278 63.132C120.609 63.3773 120.987 63.5 121.414 63.5Z" fill="#FCFBFB"/>
<defs>
<filter id="filter0_i_10_25733" x="52.7075" y="50.8749" width="14.5835" height="17.2502" filterUnits="userSpaceOnUse" color-interpolation-filters="sRGB">
<feFlood flood-opacity="0" result="BackgroundImageFix"/>
<feBlend mode="normal" in="SourceGraphic" in2="BackgroundImageFix" result="shape"/>
<feColorMatrix in="SourceAlpha" type="matrix" values="0 0 0 0 0 0 0 0 0 0 0 0 0 0 0 0 0 0 127 0" result="hardAlpha"/>
<feOffset dy="-1"/>
<feGaussianBlur stdDeviation="1.5"/>
<feComposite in2="hardAlpha" operator="arithmetic" k2="-1" k3="1"/>
<feColorMatrix type="matrix" values="0 0 0 0 0 0 0 0 0 0 0 0 0 0 0 0 0 0 0.45 0"/>
<feBlend mode="normal" in2="shape" result="effect1_innerShadow_10_25733"/>
</filter>
</defs>
</svg>
