<svg width="163" height="40" viewBox="0 0 163 40" fill="none" xmlns="http://www.w3.org/2000/svg">
<rect width="163" height="40" rx="12" fill="#111111"/>
<path d="M33 20L26 13V17C19 18 16 23 15 28C17.5 24.5 21 22.9 26 22.9V27L33 20Z" fill="#FEBF21"/>
<path d="M59.392 14.8V26H57.824V16.192H51.328V26H49.744V14.8H59.392ZM67.4986 17.44C68.32 17.44 69.056 17.6213 69.7066 17.984C70.3573 18.3467 70.864 18.8533 71.2266 19.504C71.6 20.1547 71.7866 20.9067 71.7866 21.76C71.7866 22.6133 71.6 23.3707 71.2266 24.032C70.864 24.6827 70.3573 25.1893 69.7066 25.552C69.056 25.9147 68.32 26.096 67.4986 26.096C66.8906 26.096 66.3306 25.9787 65.8186 25.744C65.3173 25.5093 64.8906 25.168 64.5386 24.72V29.104H63.0026V17.52H64.4746V18.864C64.816 18.3947 65.248 18.0427 65.7706 17.808C66.2933 17.5627 66.8693 17.44 67.4986 17.44ZM67.3706 24.752C67.9146 24.752 68.4 24.6293 68.8266 24.384C69.264 24.128 69.6053 23.776 69.8506 23.328C70.1066 22.8693 70.2346 22.3467 70.2346 21.76C70.2346 21.1733 70.1066 20.656 69.8506 20.208C69.6053 19.7493 69.264 19.3973 68.8266 19.152C68.4 18.9067 67.9146 18.784 67.3706 18.784C66.8373 18.784 66.352 18.912 65.9146 19.168C65.488 19.4133 65.1466 19.76 64.8906 20.208C64.6453 20.656 64.5226 21.1733 64.5226 21.76C64.5226 22.3467 64.6453 22.8693 64.8906 23.328C65.136 23.776 65.4773 24.128 65.9146 24.384C66.352 24.6293 66.8373 24.752 67.3706 24.752ZM74.3922 17.52H75.9282V23.696L81.1282 17.52H82.5202V26H80.9842V19.824L75.8002 26H74.3922V17.52ZM92.1156 18.864H87.4116V26H85.8756V17.52H92.1156V18.864ZM100.795 17.52V26H99.2592V18.864H95.6112L95.5152 20.752C95.4619 21.8933 95.3606 22.848 95.2112 23.616C95.0619 24.3733 94.8166 24.9813 94.4752 25.44C94.1339 25.8987 93.6592 26.128 93.0512 26.128C92.7739 26.128 92.4592 26.08 92.1072 25.984L92.2032 24.688C92.3419 24.72 92.4699 24.736 92.5872 24.736C93.0139 24.736 93.3339 24.5493 93.5472 24.176C93.7606 23.8027 93.8992 23.36 93.9632 22.848C94.0272 22.336 94.0859 21.6053 94.1392 20.656L94.2832 17.52H100.795ZM107.163 17.44C108.337 17.44 109.233 17.728 109.851 18.304C110.481 18.88 110.795 19.7387 110.795 20.88V26H109.339V24.88C109.083 25.2747 108.715 25.5787 108.235 25.792C107.766 25.9947 107.206 26.096 106.555 26.096C105.606 26.096 104.843 25.8667 104.267 25.408C103.702 24.9493 103.419 24.3467 103.419 23.6C103.419 22.8533 103.691 22.256 104.235 21.808C104.779 21.3493 105.643 21.12 106.827 21.12H109.259V20.816C109.259 20.1547 109.067 19.648 108.683 19.296C108.299 18.944 107.734 18.768 106.987 18.768C106.486 18.768 105.995 18.8533 105.515 19.024C105.035 19.184 104.63 19.4027 104.299 19.68L103.659 18.528C104.097 18.176 104.619 17.9093 105.227 17.728C105.835 17.536 106.481 17.44 107.163 17.44ZM106.811 24.912C107.398 24.912 107.905 24.784 108.331 24.528C108.758 24.2613 109.067 23.888 109.259 23.408V22.224H106.891C105.59 22.224 104.939 22.6613 104.939 23.536C104.939 23.9627 105.105 24.2987 105.435 24.544C105.766 24.7893 106.225 24.912 106.811 24.912ZM117.631 26.096C116.767 26.096 115.994 25.9093 115.311 25.536C114.639 25.1627 114.111 24.6507 113.727 24C113.343 23.3387 113.151 22.592 113.151 21.76C113.151 20.928 113.343 20.1867 113.727 19.536C114.111 18.8747 114.639 18.3627 115.311 18C115.994 17.6267 116.767 17.44 117.631 17.44C118.399 17.44 119.082 17.5947 119.679 17.904C120.287 18.2133 120.756 18.6613 121.087 19.248L119.919 20C119.652 19.5947 119.322 19.2907 118.927 19.088C118.532 18.8853 118.095 18.784 117.615 18.784C117.06 18.784 116.559 18.9067 116.111 19.152C115.674 19.3973 115.327 19.7493 115.071 20.208C114.826 20.656 114.703 21.1733 114.703 21.76C114.703 22.3573 114.826 22.8853 115.071 23.344C115.327 23.792 115.674 24.1387 116.111 24.384C116.559 24.6293 117.06 24.752 117.615 24.752C118.095 24.752 118.532 24.6507 118.927 24.448C119.322 24.2453 119.652 23.9413 119.919 23.536L121.087 24.272C120.756 24.8587 120.287 25.312 119.679 25.632C119.082 25.9413 118.399 26.096 117.631 26.096ZM123.45 17.52H124.986V23.696L130.186 17.52H131.578V26H130.042V19.824L124.858 26H123.45V17.52ZM141.253 18.864H138.149V26H136.613V18.864H133.509V17.52H141.253V18.864ZM147.118 20.4C148.195 20.4107 149.016 20.656 149.582 21.136C150.147 21.616 150.43 22.2933 150.43 23.168C150.43 24.0853 150.12 24.7947 149.502 25.296C148.894 25.7867 148.019 26.0267 146.878 26.016L143.198 26V17.52H144.734V20.384L147.118 20.4ZM146.75 24.848C147.443 24.8587 147.966 24.72 148.318 24.432C148.68 24.144 148.862 23.7173 148.862 23.152C148.862 22.5973 148.686 22.192 148.334 21.936C147.992 21.68 147.464 21.5467 146.75 21.536L144.734 21.504V24.832L146.75 24.848Z" fill="white"/>
</svg>
