<svg width="72" height="56" viewBox="0 0 72 56" fill="none" xmlns="http://www.w3.org/2000/svg">
<rect width="72" height="56" rx="20" fill="#FEBF21"/>
<path d="M40.32 14.6667H35.128C32.776 14.6667 30.912 14.6667 29.4547 14.864C27.9533 15.0667 26.7387 15.4934 25.7813 16.4547C24.8227 17.416 24.3973 18.636 24.196 20.1427C24 21.6067 24 23.4774 24 25.8387V33.6227C24 35.6334 25.2267 37.356 26.9693 38.0787C26.88 36.8654 26.88 35.1654 26.88 33.7494V27.0694C26.88 25.3614 26.88 23.888 27.0373 22.7094C27.2067 21.4454 27.588 20.2347 28.5667 19.252C29.5453 18.2694 30.752 17.8867 32.0107 17.716C33.184 17.5587 34.6507 17.5587 36.3533 17.5587H40.4467C42.148 17.5587 43.612 17.5587 44.7867 17.716C44.4348 16.8177 43.8204 16.0463 43.0237 15.5024C42.2269 14.9585 41.2847 14.6672 40.32 14.6667Z" fill="#111111"/>
<path d="M28.8 27.196C28.8 23.5614 28.8 21.744 29.9254 20.6147C31.0494 19.4854 32.8587 19.4854 36.48 19.4854H40.32C43.94 19.4854 45.7507 19.4854 46.876 20.6147C48.0014 21.744 48 23.5614 48 27.196V33.6227C48 37.2574 48 39.0747 46.876 40.204C45.7507 41.3334 43.94 41.3334 40.32 41.3334H36.48C32.86 41.3334 31.0494 41.3334 29.9254 40.204C28.8 39.0747 28.8 37.2574 28.8 33.6227V27.196Z" fill="#111111"/>
</svg>
