<svg width="282" height="56" viewBox="0 0 282 56" fill="none" xmlns="http://www.w3.org/2000/svg">
<rect width="282" height="56" rx="20" fill="#FEBF21"/>
<path d="M91.6926 21V35H88.4726V23.64H82.1526V35H78.9326V21H91.6926ZM101.215 24.08C102.215 24.08 103.122 24.3133 103.935 24.78C104.762 25.2333 105.408 25.88 105.875 26.72C106.342 27.5467 106.575 28.5133 106.575 29.62C106.575 30.7267 106.342 31.7 105.875 32.54C105.408 33.3667 104.762 34.0133 103.935 34.48C103.122 34.9333 102.215 35.16 101.215 35.16C99.8417 35.16 98.7617 34.7267 97.975 33.86V38.88H94.855V24.24H97.835V25.48C98.6084 24.5467 99.735 24.08 101.215 24.08ZM100.675 32.6C101.475 32.6 102.128 32.3333 102.635 31.8C103.155 31.2533 103.415 30.5267 103.415 29.62C103.415 28.7133 103.155 27.9933 102.635 27.46C102.128 26.9133 101.475 26.64 100.675 26.64C99.875 26.64 99.215 26.9133 98.695 27.46C98.1884 27.9933 97.935 28.7133 97.935 29.62C97.935 30.5267 98.1884 31.2533 98.695 31.8C99.215 32.3333 99.875 32.6 100.675 32.6ZM108.714 24.24H111.814V30.64L117.054 24.24H119.914V35H116.814V28.6L111.594 35H108.714V24.24ZM131.485 26.8H125.965V35H122.865V24.24H131.485V26.8ZM142.629 24.24V35H139.509V26.8H136.109L136.009 28.7C135.956 30.1133 135.822 31.2867 135.609 32.22C135.396 33.1533 135.049 33.8867 134.569 34.42C134.089 34.9533 133.422 35.22 132.569 35.22C132.116 35.22 131.576 35.14 130.949 34.98L131.109 32.42C131.322 32.4467 131.476 32.46 131.569 32.46C132.036 32.46 132.382 32.2933 132.609 31.96C132.849 31.6133 133.009 31.18 133.089 30.66C133.169 30.1267 133.229 29.4267 133.269 28.56L133.429 24.24H142.629ZM149.761 24.08C151.428 24.08 152.708 24.48 153.601 25.28C154.495 26.0667 154.941 27.26 154.941 28.86V35H152.021V33.66C151.435 34.66 150.341 35.16 148.741 35.16C147.915 35.16 147.195 35.02 146.581 34.74C145.981 34.46 145.521 34.0733 145.201 33.58C144.881 33.0867 144.721 32.5267 144.721 31.9C144.721 30.9 145.095 30.1133 145.841 29.54C146.601 28.9667 147.768 28.68 149.341 28.68H151.821C151.821 28 151.615 27.48 151.201 27.12C150.788 26.7467 150.168 26.56 149.341 26.56C148.768 26.56 148.201 26.6533 147.641 26.84C147.095 27.0133 146.628 27.2533 146.241 27.56L145.121 25.38C145.708 24.9667 146.408 24.6467 147.221 24.42C148.048 24.1933 148.895 24.08 149.761 24.08ZM149.521 33.06C150.055 33.06 150.528 32.94 150.941 32.7C151.355 32.4467 151.648 32.08 151.821 31.6V30.5H149.681C148.401 30.5 147.761 30.92 147.761 31.76C147.761 32.16 147.915 32.48 148.221 32.72C148.541 32.9467 148.975 33.06 149.521 33.06ZM162.724 35.16C161.577 35.16 160.544 34.9267 159.624 34.46C158.717 33.98 158.004 33.32 157.484 32.48C156.977 31.64 156.724 30.6867 156.724 29.62C156.724 28.5533 156.977 27.6 157.484 26.76C158.004 25.92 158.717 25.2667 159.624 24.8C160.544 24.32 161.577 24.08 162.724 24.08C163.857 24.08 164.844 24.32 165.684 24.8C166.537 25.2667 167.157 25.94 167.544 26.82L165.124 28.12C164.564 27.1333 163.757 26.64 162.704 26.64C161.89 26.64 161.217 26.9067 160.684 27.44C160.15 27.9733 159.884 28.7 159.884 29.62C159.884 30.54 160.15 31.2667 160.684 31.8C161.217 32.3333 161.89 32.6 162.704 32.6C163.77 32.6 164.577 32.1067 165.124 31.12L167.544 32.44C167.157 33.2933 166.537 33.96 165.684 34.44C164.844 34.92 163.857 35.16 162.724 35.16ZM169.392 24.24H172.492V30.64L177.732 24.24H180.592V35H177.492V28.6L172.272 35H169.392V24.24ZM192.583 26.8H188.943V35H185.843V26.8H182.203V24.24H192.583V26.8ZM200.018 27.68C201.418 27.6933 202.491 28.0133 203.238 28.64C203.985 29.2533 204.358 30.1267 204.358 31.26C204.358 32.4467 203.938 33.3733 203.098 34.04C202.271 34.6933 201.105 35.02 199.598 35.02L194.198 35V24.24H197.298V27.68H200.018ZM199.318 32.8C199.918 32.8133 200.378 32.6867 200.698 32.42C201.018 32.1533 201.178 31.7533 201.178 31.22C201.178 30.7 201.018 30.32 200.698 30.08C200.391 29.84 199.931 29.7133 199.318 29.7L197.298 29.68V32.8H199.318Z" fill="#111111"/>
</svg>
