<svg width="258" height="44" viewBox="0 0 258 44" fill="none" xmlns="http://www.w3.org/2000/svg">
<rect x="1" y="1" width="256" height="42" rx="15" stroke="#FEBF21" stroke-width="2"/>
<path d="M99.2681 16.8V28H96.6921V18.912H91.6361V28H89.0601V16.8H99.2681ZM105.645 28.128C104.738 28.128 103.922 27.9413 103.197 27.568C102.482 27.184 101.922 26.656 101.517 25.984C101.111 25.312 100.909 24.5493 100.909 23.696C100.909 22.8427 101.111 22.08 101.517 21.408C101.922 20.736 102.482 20.2133 103.197 19.84C103.922 19.456 104.738 19.264 105.645 19.264C106.551 19.264 107.362 19.456 108.077 19.84C108.791 20.2133 109.351 20.736 109.757 21.408C110.162 22.08 110.365 22.8427 110.365 23.696C110.365 24.5493 110.162 25.312 109.757 25.984C109.351 26.656 108.791 27.184 108.077 27.568C107.362 27.9413 106.551 28.128 105.645 28.128ZM105.645 26.08C106.285 26.08 106.807 25.8667 107.213 25.44C107.629 25.0027 107.837 24.4213 107.837 23.696C107.837 22.9707 107.629 22.3947 107.213 21.968C106.807 21.5307 106.285 21.312 105.645 21.312C105.005 21.312 104.477 21.5307 104.061 21.968C103.645 22.3947 103.437 22.9707 103.437 23.696C103.437 24.4213 103.645 25.0027 104.061 25.44C104.477 25.8667 105.005 26.08 105.645 26.08ZM115.633 24.736H114.337V28H111.841V19.392H114.337V22.736H115.681L118.017 19.392H120.673L117.665 23.52L120.881 28H117.937L115.633 24.736ZM121.867 19.392H124.347V24.512L128.539 19.392H130.827V28H128.347V22.88L124.171 28H121.867V19.392ZM132.986 19.392H135.466V22.752H139.21V19.392H141.706V28H139.21V24.784H135.466V28H132.986V19.392ZM152.48 19.392L148.592 28.528C148.197 29.52 147.706 30.2187 147.12 30.624C146.544 31.0293 145.845 31.232 145.024 31.232C144.576 31.232 144.133 31.1627 143.696 31.024C143.258 30.8853 142.901 30.6933 142.624 30.448L143.536 28.672C143.728 28.8427 143.946 28.976 144.192 29.072C144.448 29.168 144.698 29.216 144.944 29.216C145.285 29.216 145.562 29.1307 145.776 28.96C145.989 28.8 146.181 28.528 146.352 28.144L146.384 28.064L142.656 19.392H145.232L147.648 25.232L150.08 19.392H152.48ZM160.754 21.44H157.842V28H155.362V21.44H152.45V19.392H160.754V21.44ZM166.5 22.144C167.62 22.1547 168.479 22.4107 169.076 22.912C169.674 23.4027 169.972 24.1013 169.972 25.008C169.972 25.9573 169.636 26.6987 168.964 27.232C168.303 27.7547 167.37 28.016 166.164 28.016L161.844 28V19.392H164.324V22.144H166.5ZM165.94 26.24C166.42 26.2507 166.788 26.1493 167.044 25.936C167.3 25.7227 167.428 25.4027 167.428 24.976C167.428 24.56 167.3 24.256 167.044 24.064C166.799 23.872 166.431 23.7707 165.94 23.76L164.324 23.744V26.24H165.94Z" fill="#FEBF21"/>
</svg>
