<svg width="65" height="61" viewBox="0 0 65 61" fill="none" xmlns="http://www.w3.org/2000/svg">
<g filter="url(#filter0_d_94_9854)">
<path opacity="0.3" d="M40.7144 5.3857V43.6143C40.7144 44.3764 40.0712 45 39.2852 45H15.7693C15.3061 44.7032 15 44.1935 15 43.6143V5.3857C15 4.80708 15.3061 4.29741 15.7693 4H39.2852C40.0712 4.0006 40.7144 4.62419 40.7144 5.3857Z" fill="#383838"/>
<path d="M16.7136 45C15.9282 45 15.2856 44.377 15.2856 43.6143V5.3857C15.2856 4.62419 15.9282 4 16.7136 4H43.5708C44.3568 4 44.9999 4.6236 44.9999 5.3857V43.6143C44.9999 44.3764 44.3568 45 43.5708 45H16.7136Z" fill="white"/>
<path d="M32.2502 23.5928C31.257 23.5928 31.0412 24.0449 30.6992 24.3112C31.1766 23.6708 32.0158 23.5317 32.0158 22.2299C32.0158 21.2268 31.1772 20.4131 30.1426 20.4131C29.1086 20.4131 28.27 21.2268 28.27 22.2299C28.27 23.5497 29.1334 23.6732 29.6064 24.3381C29.2373 24.0773 29.0635 23.5928 28.035 23.5928C27.0004 23.5928 26.1619 24.4053 26.1619 25.4078C26.1619 26.4116 27.0011 27.2252 28.035 27.2252C29.2849 27.2252 29.304 26.5087 29.894 26.3492C28.9874 28.1319 29.0227 28.1684 28.035 28.587H32.2502C31.2632 28.1684 31.2972 28.1313 30.39 26.3462C31.0127 26.4991 30.9929 27.2252 32.2502 27.2252C33.2848 27.2252 34.1234 26.4116 34.1234 25.4078C34.124 24.4053 33.2848 23.5928 32.2502 23.5928Z" fill="#383838"/>
<path d="M17.3567 6.06024L18.52 10.0578H18.0172L17.8409 9.41384H16.87L16.6969 10.0578H16.1941L17.3567 6.06024ZM17.7259 8.98452L17.4575 7.98319L17.3542 7.52149L17.2565 7.98319L16.9857 8.98452H17.7259Z" fill="#383838"/>
<path d="M42.9282 42.9404L41.7656 38.9422H42.2678L42.444 39.5867H43.4156L43.5887 38.9422H44.0915L42.9282 42.9404ZM42.5591 40.0155L42.8274 41.0168L42.9307 41.4791L43.0278 41.0168L43.2993 40.0155H42.5591Z" fill="#383838"/>
<path d="M17.9888 12.3232C17.6579 12.3232 17.5856 12.4737 17.4711 12.5624C17.6307 12.349 17.9102 12.3022 17.9102 11.8687C17.9102 11.5341 17.6313 11.2631 17.2856 11.2631C16.9405 11.2631 16.661 11.5341 16.661 11.8687C16.661 12.3088 16.9492 12.3502 17.1069 12.5714C16.9845 12.4845 16.9257 12.3232 16.5831 12.3232C16.238 12.3232 15.9585 12.5936 15.9585 12.9282C15.9585 13.2634 16.238 13.5344 16.5831 13.5344C16.9999 13.5344 17.0061 13.2951 17.2021 13.2424C16.9003 13.836 16.9115 13.8492 16.5831 13.9889H17.9881C17.6585 13.8492 17.6703 13.836 17.3679 13.2418C17.575 13.2928 17.5689 13.5344 17.9881 13.5344C18.3332 13.5344 18.6121 13.2634 18.6121 12.9282C18.6127 12.5936 18.3332 12.3232 17.9888 12.3232Z" fill="#383838"/>
<path d="M42.2968 36.678C42.6277 36.678 42.6994 36.5269 42.8138 36.4382C42.6549 36.6523 42.3754 36.6984 42.3754 37.1325C42.3754 37.4665 42.6543 37.7382 42.9994 37.7382C43.3444 37.7382 43.624 37.4665 43.624 37.1325C43.624 36.6924 43.3364 36.6511 43.1781 36.4298C43.3011 36.5168 43.3593 36.678 43.7019 36.678C44.0476 36.678 44.3271 36.407 44.3271 36.0724C44.3271 35.7373 44.0476 35.4662 43.7019 35.4662C43.2857 35.4662 43.2789 35.7055 43.0828 35.7583C43.384 35.1646 43.3729 35.152 43.7019 35.0123H42.2975C42.6271 35.152 42.6153 35.1646 42.9171 35.7588C42.7093 35.7085 42.7167 35.4662 42.2975 35.4662C41.9518 35.4662 41.6729 35.7373 41.6729 36.0724C41.6729 36.407 41.9518 36.678 42.2968 36.678Z" fill="#383838"/>
<g clip-path="url(#clip0_94_9854)">
<path d="M38.6131 16.8302C36.465 14.4805 33.3394 12.9941 29.842 12.9941C23.352 12.9941 18.092 18.0941 18.092 24.3867H21.0295C21.0295 19.665 24.9722 15.8423 29.842 15.8423C32.527 15.8423 34.9091 17.0216 36.5201 18.8595L33.7571 21.5386H41.5919V13.942L38.6131 16.8302ZM29.842 32.9311C27.1569 32.9311 24.7748 31.7518 23.1638 29.9139L25.9268 27.2348H18.092V34.8314L21.0708 31.9432C23.2189 34.2929 26.3491 35.7793 29.842 35.7793C36.3319 35.7793 41.5919 30.6793 41.5919 24.3867H38.6544C38.6544 29.1084 34.7117 32.9311 29.842 32.9311Z" fill="#FEBF21"/>
</g>
</g>
<path d="M7.71856 52V59H6.73856V52.87H2.67856V59H1.68856V52H7.71856ZM14.2914 56.38C14.2914 56.4533 14.2848 56.55 14.2714 56.67H9.97145C10.0314 57.1367 10.2348 57.5133 10.5814 57.8C10.9348 58.08 11.3714 58.22 11.8914 58.22C12.5248 58.22 13.0348 58.0067 13.4214 57.58L13.9514 58.2C13.7114 58.48 13.4114 58.6933 13.0514 58.84C12.6981 58.9867 12.3014 59.06 11.8614 59.06C11.3014 59.06 10.8048 58.9467 10.3714 58.72C9.93811 58.4867 9.60145 58.1633 9.36145 57.75C9.12811 57.3367 9.01145 56.87 9.01145 56.35C9.01145 55.8367 9.12478 55.3733 9.35145 54.96C9.58478 54.5467 9.90145 54.2267 10.3014 54C10.7081 53.7667 11.1648 53.65 11.6714 53.65C12.1781 53.65 12.6281 53.7667 13.0214 54C13.4214 54.2267 13.7314 54.5467 13.9514 54.96C14.1781 55.3733 14.2914 55.8467 14.2914 56.38ZM11.6714 54.46C11.2114 54.46 10.8248 54.6 10.5114 54.88C10.2048 55.16 10.0248 55.5267 9.97145 55.98H13.3714C13.3181 55.5333 13.1348 55.17 12.8214 54.89C12.5148 54.6033 12.1314 54.46 11.6714 54.46ZM18.3507 53.65C18.8641 53.65 19.3241 53.7633 19.7307 53.99C20.1374 54.2167 20.4541 54.5333 20.6807 54.94C20.9141 55.3467 21.0307 55.8167 21.0307 56.35C21.0307 56.8833 20.9141 57.3567 20.6807 57.77C20.4541 58.1767 20.1374 58.4933 19.7307 58.72C19.3241 58.9467 18.8641 59.06 18.3507 59.06C17.9707 59.06 17.6207 58.9867 17.3007 58.84C16.9874 58.6933 16.7207 58.48 16.5007 58.2V60.94H15.5407V53.7H16.4607V54.54C16.6741 54.2467 16.9441 54.0267 17.2707 53.88C17.5974 53.7267 17.9574 53.65 18.3507 53.65ZM18.2707 58.22C18.6107 58.22 18.9141 58.1433 19.1807 57.99C19.4541 57.83 19.6674 57.61 19.8207 57.33C19.9807 57.0433 20.0607 56.7167 20.0607 56.35C20.0607 55.9833 19.9807 55.66 19.8207 55.38C19.6674 55.0933 19.4541 54.8733 19.1807 54.72C18.9141 54.5667 18.6107 54.49 18.2707 54.49C17.9374 54.49 17.6341 54.57 17.3607 54.73C17.0941 54.8833 16.8807 55.1 16.7207 55.38C16.5674 55.66 16.4907 55.9833 16.4907 56.35C16.4907 56.7167 16.5674 57.0433 16.7207 57.33C16.8741 57.61 17.0874 57.83 17.3607 57.99C17.6341 58.1433 17.9374 58.22 18.2707 58.22ZM26.9755 56.38C26.9755 56.4533 26.9688 56.55 26.9555 56.67H22.6555C22.7155 57.1367 22.9188 57.5133 23.2655 57.8C23.6188 58.08 24.0555 58.22 24.5755 58.22C25.2088 58.22 25.7188 58.0067 26.1055 57.58L26.6355 58.2C26.3955 58.48 26.0955 58.6933 25.7355 58.84C25.3822 58.9867 24.9855 59.06 24.5455 59.06C23.9855 59.06 23.4888 58.9467 23.0555 58.72C22.6222 58.4867 22.2855 58.1633 22.0455 57.75C21.8122 57.3367 21.6955 56.87 21.6955 56.35C21.6955 55.8367 21.8088 55.3733 22.0355 54.96C22.2688 54.5467 22.5855 54.2267 22.9855 54C23.3922 53.7667 23.8488 53.65 24.3555 53.65C24.8622 53.65 25.3122 53.7667 25.7055 54C26.1055 54.2267 26.4155 54.5467 26.6355 54.96C26.8622 55.3733 26.9755 55.8467 26.9755 56.38ZM24.3555 54.46C23.8955 54.46 23.5088 54.6 23.1955 54.88C22.8888 55.16 22.7088 55.5267 22.6555 55.98H26.0555C26.0022 55.5333 25.8188 55.17 25.5055 54.89C25.1988 54.6033 24.8155 54.46 24.3555 54.46ZM31.8348 56.25C32.5215 56.4233 32.8648 56.8533 32.8648 57.54C32.8648 58.0067 32.6881 58.3667 32.3348 58.62C31.9881 58.8733 31.4681 59 30.7748 59H28.2248V53.7H30.6848C31.3115 53.7 31.8015 53.82 32.1548 54.06C32.5081 54.2933 32.6848 54.6267 32.6848 55.06C32.6848 55.34 32.6081 55.5833 32.4548 55.79C32.3081 55.99 32.1015 56.1433 31.8348 56.25ZM29.1648 55.98H30.6048C30.9715 55.98 31.2481 55.9133 31.4348 55.78C31.6281 55.6467 31.7248 55.4533 31.7248 55.2C31.7248 54.6933 31.3515 54.44 30.6048 54.44H29.1648V55.98ZM30.7048 58.26C31.1048 58.26 31.4048 58.1967 31.6048 58.07C31.8048 57.9433 31.9048 57.7467 31.9048 57.48C31.9048 57.2067 31.8115 57.0033 31.6248 56.87C31.4448 56.7367 31.1581 56.67 30.7648 56.67H29.1648V58.26H30.7048ZM36.3974 59.06C35.8707 59.06 35.3974 58.9433 34.9774 58.71C34.5574 58.4767 34.2274 58.1567 33.9874 57.75C33.7541 57.3367 33.6374 56.87 33.6374 56.35C33.6374 55.83 33.7541 55.3667 33.9874 54.96C34.2274 54.5467 34.5574 54.2267 34.9774 54C35.3974 53.7667 35.8707 53.65 36.3974 53.65C36.9241 53.65 37.3941 53.7667 37.8074 54C38.2274 54.2267 38.5541 54.5467 38.7874 54.96C39.0274 55.3667 39.1474 55.83 39.1474 56.35C39.1474 56.87 39.0274 57.3367 38.7874 57.75C38.5541 58.1567 38.2274 58.4767 37.8074 58.71C37.3941 58.9433 36.9241 59.06 36.3974 59.06ZM36.3974 58.22C36.7374 58.22 37.0407 58.1433 37.3074 57.99C37.5807 57.83 37.7941 57.61 37.9474 57.33C38.1007 57.0433 38.1774 56.7167 38.1774 56.35C38.1774 55.9833 38.1007 55.66 37.9474 55.38C37.7941 55.0933 37.5807 54.8733 37.3074 54.72C37.0407 54.5667 36.7374 54.49 36.3974 54.49C36.0574 54.49 35.7507 54.5667 35.4774 54.72C35.2107 54.8733 34.9974 55.0933 34.8374 55.38C34.6841 55.66 34.6074 55.9833 34.6074 56.35C34.6074 56.7167 34.6841 57.0433 34.8374 57.33C34.9974 57.61 35.2107 57.83 35.4774 57.99C35.7507 58.1433 36.0574 58.22 36.3974 58.22ZM45.6446 58.16V60.23H44.7446V59H40.3146V60.23H39.4046V58.16H39.6846C40.0246 58.14 40.2579 57.9 40.3846 57.44C40.5112 56.98 40.5979 56.33 40.6446 55.49L40.7246 53.7H44.8346V58.16H45.6446ZM41.5246 55.56C41.4979 56.2267 41.4412 56.78 41.3546 57.22C41.2746 57.6533 41.1246 57.9667 40.9046 58.16H43.8746V54.54H41.5746L41.5246 55.56ZM46.6552 53.7H47.6152V55.95H50.6352V53.7H51.5952V59H50.6352V56.78H47.6152V59H46.6552V53.7ZM55.4918 59.06C54.9652 59.06 54.4918 58.9433 54.0718 58.71C53.6518 58.4767 53.3218 58.1567 53.0818 57.75C52.8485 57.3367 52.7318 56.87 52.7318 56.35C52.7318 55.83 52.8485 55.3667 53.0818 54.96C53.3218 54.5467 53.6518 54.2267 54.0718 54C54.4918 53.7667 54.9652 53.65 55.4918 53.65C56.0185 53.65 56.4885 53.7667 56.9018 54C57.3218 54.2267 57.6485 54.5467 57.8818 54.96C58.1218 55.3667 58.2418 55.83 58.2418 56.35C58.2418 56.87 58.1218 57.3367 57.8818 57.75C57.6485 58.1567 57.3218 58.4767 56.9018 58.71C56.4885 58.9433 56.0185 59.06 55.4918 59.06ZM55.4918 58.22C55.8318 58.22 56.1352 58.1433 56.4018 57.99C56.6752 57.83 56.8885 57.61 57.0418 57.33C57.1952 57.0433 57.2718 56.7167 57.2718 56.35C57.2718 55.9833 57.1952 55.66 57.0418 55.38C56.8885 55.0933 56.6752 54.8733 56.4018 54.72C56.1352 54.5667 55.8318 54.49 55.4918 54.49C55.1518 54.49 54.8452 54.5667 54.5718 54.72C54.3052 54.8733 54.0918 55.0933 53.9318 55.38C53.7785 55.66 53.7018 55.9833 53.7018 56.35C53.7018 56.7167 53.7785 57.0433 53.9318 57.33C54.0918 57.61 54.3052 57.83 54.5718 57.99C54.8452 58.1433 55.1518 58.22 55.4918 58.22ZM59.3881 53.7H60.3481V57.56L63.5981 53.7H64.4681V59H63.5081V55.14L60.2681 59H59.3881V53.7ZM61.8681 53.01C61.3748 53.01 60.9914 52.8933 60.7181 52.66C60.4448 52.42 60.3048 52.0767 60.2981 51.63H60.9481C60.9548 51.8767 61.0381 52.0767 61.1981 52.23C61.3648 52.3767 61.5848 52.45 61.8581 52.45C62.1314 52.45 62.3514 52.3767 62.5181 52.23C62.6848 52.0767 62.7714 51.8767 62.7781 51.63H63.4481C63.4414 52.0767 63.2981 52.42 63.0181 52.66C62.7381 52.8933 62.3548 53.01 61.8681 53.01Z" fill="#111111"/>
<defs>
<filter id="filter0_d_94_9854" x="11" y="0" width="38" height="49" filterUnits="userSpaceOnUse" color-interpolation-filters="sRGB">
<feFlood flood-opacity="0" result="BackgroundImageFix"/>
<feColorMatrix in="SourceAlpha" type="matrix" values="0 0 0 0 0 0 0 0 0 0 0 0 0 0 0 0 0 0 127 0" result="hardAlpha"/>
<feOffset/>
<feGaussianBlur stdDeviation="2"/>
<feComposite in2="hardAlpha" operator="out"/>
<feColorMatrix type="matrix" values="0 0 0 0 0 0 0 0 0 0 0 0 0 0 0 0 0 0 0.25 0"/>
<feBlend mode="normal" in2="BackgroundImageFix" result="effect1_dropShadow_94_9854"/>
<feBlend mode="normal" in="SourceGraphic" in2="effect1_dropShadow_94_9854" result="shape"/>
</filter>
<clipPath id="clip0_94_9854">
<rect width="23.4998" height="22.7851" fill="white" transform="translate(18.092 12.9941)"/>
</clipPath>
</defs>
</svg>
