<svg width="195" height="72" viewBox="0 0 195 72" fill="none" xmlns="http://www.w3.org/2000/svg">
<g clip-path="url(#clip0_84_21006)">
<path d="M100.34 29.2083L102.157 22.6543L96.5501 18.7851L94.734 25.3391L100.34 29.2083ZM82.6525 35.5649L81.3496 34.9332C80.5336 34.5911 79.9809 34.0057 79.6913 33.1771C79.4018 32.3485 79.4413 31.5257 79.8098 30.7087L82.6525 24.5495V35.5649ZM88.9696 38.9999C88.101 38.9999 87.3577 38.684 86.7397 38.0523C86.1216 37.4206 85.8121 36.6704 85.811 35.8018V26.3656L90.0356 37.9733C90.1146 38.1576 90.1804 38.3355 90.233 38.5071C90.2857 38.6788 90.3778 38.843 90.5094 38.9999H88.9696ZM97.1029 38.8025C96.2869 39.092 95.471 39.0525 94.655 38.684C93.8391 38.3155 93.2863 37.7233 92.9968 36.9073L86.0085 17.6006C85.7189 16.7847 85.7584 15.975 86.1269 15.1717C86.4954 14.3684 87.0876 13.8225 87.9036 13.534L99.7877 9.19097C100.604 8.90144 101.413 8.94092 102.217 9.30942C103.02 9.67792 103.566 10.2701 103.854 11.0861L110.882 30.3928C111.172 31.2088 111.132 32.0184 110.764 32.8217C110.395 33.6251 109.803 34.171 108.987 34.4594L97.1029 38.8025Z" fill="#FEBF21"/>
</g>
<path d="M80.808 51.6H81.996V58.08L86.964 51.6H88.068V60H86.892V53.532L81.912 60H80.808V51.6ZM95.1749 54.648H91.6469V60H90.4949V53.64H95.1749V54.648ZM99.7263 53.58C100.342 53.58 100.894 53.716 101.382 53.988C101.87 54.26 102.25 54.64 102.522 55.128C102.802 55.616 102.942 56.18 102.942 56.82C102.942 57.46 102.802 58.028 102.522 58.524C102.25 59.012 101.87 59.392 101.382 59.664C100.894 59.936 100.342 60.072 99.7263 60.072C99.2703 60.072 98.8503 59.984 98.4663 59.808C98.0903 59.632 97.7703 59.376 97.5063 59.04V62.328H96.3543V53.64H97.4583V54.648C97.7143 54.296 98.0383 54.032 98.4303 53.856C98.8223 53.672 99.2543 53.58 99.7263 53.58ZM99.6303 59.064C100.038 59.064 100.402 58.972 100.722 58.788C101.05 58.596 101.306 58.332 101.49 57.996C101.682 57.652 101.778 57.26 101.778 56.82C101.778 56.38 101.682 55.992 101.49 55.656C101.306 55.312 101.05 55.048 100.722 54.864C100.402 54.68 100.038 54.588 99.6303 54.588C99.2303 54.588 98.8663 54.684 98.5383 54.876C98.2183 55.06 97.9623 55.32 97.7703 55.656C97.5863 55.992 97.4943 56.38 97.4943 56.82C97.4943 57.26 97.5863 57.652 97.7703 57.996C97.9543 58.332 98.2103 58.596 98.5383 58.788C98.8663 58.972 99.2303 59.064 99.6303 59.064ZM106.825 53.58C107.705 53.58 108.377 53.796 108.841 54.228C109.313 54.66 109.549 55.304 109.549 56.16V60H108.457V59.16C108.265 59.456 107.989 59.684 107.629 59.844C107.277 59.996 106.857 60.072 106.369 60.072C105.657 60.072 105.085 59.9 104.653 59.556C104.229 59.212 104.017 58.76 104.017 58.2C104.017 57.64 104.221 57.192 104.629 56.856C105.037 56.512 105.685 56.34 106.573 56.34H108.397V56.112C108.397 55.616 108.253 55.236 107.965 54.972C107.677 54.708 107.253 54.576 106.693 54.576C106.317 54.576 105.949 54.64 105.589 54.768C105.229 54.888 104.925 55.052 104.677 55.26L104.197 54.396C104.525 54.132 104.917 53.932 105.373 53.796C105.829 53.652 106.313 53.58 106.825 53.58ZM106.561 59.184C107.001 59.184 107.381 59.088 107.701 58.896C108.021 58.696 108.253 58.416 108.397 58.056V57.168H106.621C105.645 57.168 105.157 57.496 105.157 58.152C105.157 58.472 105.281 58.724 105.529 58.908C105.777 59.092 106.121 59.184 106.561 59.184Z" fill="#FEBF21"/>
<defs>
<clipPath id="clip0_84_21006">
<rect width="32" height="32" fill="white" transform="translate(79.5 8)"/>
</clipPath>
</defs>
</svg>
