<svg width="59" height="61" viewBox="0 0 59 61" fill="none" xmlns="http://www.w3.org/2000/svg">
<g filter="url(#filter0_d_94_9840)">
<path opacity="0.3" d="M37.7144 5.3857V43.6143C37.7144 44.3764 37.0712 45 36.2852 45H12.7693C12.3061 44.7032 12 44.1935 12 43.6143V5.3857C12 4.80708 12.3061 4.29741 12.7693 4H36.2852C37.0712 4.0006 37.7144 4.62419 37.7144 5.3857Z" fill="#383838"/>
<path d="M13.7136 45C12.9282 45 12.2856 44.377 12.2856 43.6143V5.3857C12.2856 4.62419 12.9282 4 13.7136 4H40.5708C41.3568 4 41.9999 4.6236 41.9999 5.3857V43.6143C41.9999 44.3764 41.3568 45 40.5708 45H13.7136Z" fill="white"/>
<path d="M29.2502 23.5928C28.257 23.5928 28.0412 24.0449 27.6992 24.3112C28.1766 23.6708 29.0158 23.5317 29.0158 22.2299C29.0158 21.2268 28.1772 20.4131 27.1426 20.4131C26.1086 20.4131 25.27 21.2268 25.27 22.2299C25.27 23.5497 26.1334 23.6732 26.6064 24.3381C26.2373 24.0773 26.0635 23.5928 25.035 23.5928C24.0004 23.5928 23.1619 24.4053 23.1619 25.4078C23.1619 26.4116 24.0011 27.2252 25.035 27.2252C26.2849 27.2252 26.304 26.5087 26.894 26.3492C25.9874 28.1319 26.0227 28.1684 25.035 28.587H29.2502C28.2632 28.1684 28.2972 28.1313 27.39 26.3462C28.0127 26.4991 27.9929 27.2252 29.2502 27.2252C30.2848 27.2252 31.1234 26.4116 31.1234 25.4078C31.124 24.4053 30.2848 23.5928 29.2502 23.5928Z" fill="#383838"/>
<path d="M14.3567 6.06024L15.52 10.0578H15.0172L14.8409 9.41384H13.87L13.6969 10.0578H13.1941L14.3567 6.06024ZM14.7259 8.98452L14.4575 7.98319L14.3542 7.52149L14.2565 7.98319L13.9857 8.98452H14.7259Z" fill="#383838"/>
<path d="M39.9282 42.9404L38.7656 38.9422H39.2678L39.444 39.5867H40.4156L40.5887 38.9422H41.0915L39.9282 42.9404ZM39.5591 40.0155L39.8274 41.0168L39.9307 41.4791L40.0278 41.0168L40.2993 40.0155H39.5591Z" fill="#383838"/>
<path d="M14.9888 12.3232C14.6579 12.3232 14.5856 12.4737 14.4711 12.5624C14.6307 12.349 14.9102 12.3022 14.9102 11.8687C14.9102 11.5341 14.6313 11.2631 14.2856 11.2631C13.9405 11.2631 13.661 11.5341 13.661 11.8687C13.661 12.3088 13.9492 12.3502 14.1069 12.5714C13.9845 12.4845 13.9257 12.3232 13.5831 12.3232C13.238 12.3232 12.9585 12.5936 12.9585 12.9282C12.9585 13.2634 13.238 13.5344 13.5831 13.5344C13.9999 13.5344 14.0061 13.2951 14.2021 13.2424C13.9003 13.836 13.9115 13.8492 13.5831 13.9889H14.9881C14.6585 13.8492 14.6703 13.836 14.3679 13.2418C14.575 13.2928 14.5689 13.5344 14.9881 13.5344C15.3332 13.5344 15.6121 13.2634 15.6121 12.9282C15.6127 12.5936 15.3332 12.3232 14.9888 12.3232Z" fill="#383838"/>
<path d="M39.2968 36.678C39.6277 36.678 39.6994 36.5269 39.8138 36.4382C39.6549 36.6523 39.3754 36.6984 39.3754 37.1325C39.3754 37.4665 39.6543 37.7382 39.9994 37.7382C40.3444 37.7382 40.624 37.4665 40.624 37.1325C40.624 36.6924 40.3364 36.6511 40.1781 36.4298C40.3011 36.5168 40.3593 36.678 40.7019 36.678C41.0476 36.678 41.3271 36.407 41.3271 36.0724C41.3271 35.7373 41.0476 35.4662 40.7019 35.4662C40.2857 35.4662 40.2789 35.7055 40.0828 35.7583C40.384 35.1646 40.3729 35.152 40.7019 35.0123H39.2975C39.6271 35.152 39.6153 35.1646 39.9171 35.7588C39.7093 35.7085 39.7167 35.4662 39.2975 35.4662C38.9518 35.4662 38.6729 35.7373 38.6729 36.0724C38.6729 36.407 38.9518 36.678 39.2968 36.678Z" fill="#383838"/>
<g clip-path="url(#clip0_94_9840)">
<path d="M28.0788 20.7644L28.5788 20.7644L28.5788 20.2644L28.5788 14.3627L39.5356 24.9863L28.5788 35.6099L28.5788 29.7082L28.5788 29.2082L28.0788 29.2082L15.5921 29.2082L15.5921 20.7644L28.0788 20.7644Z" fill="#383838" stroke="white"/>
</g>
</g>
<path d="M7.61125 52V59H6.63125V52.87H2.57125V59H1.58125V52H7.61125ZM11.6641 59.06C11.1375 59.06 10.6641 58.9433 10.2441 58.71C9.82414 58.4767 9.49414 58.1567 9.25414 57.75C9.02081 57.3367 8.90414 56.87 8.90414 56.35C8.90414 55.83 9.02081 55.3667 9.25414 54.96C9.49414 54.5467 9.82414 54.2267 10.2441 54C10.6641 53.7667 11.1375 53.65 11.6641 53.65C12.1908 53.65 12.6608 53.7667 13.0741 54C13.4941 54.2267 13.8208 54.5467 14.0541 54.96C14.2941 55.3667 14.4141 55.83 14.4141 56.35C14.4141 56.87 14.2941 57.3367 14.0541 57.75C13.8208 58.1567 13.4941 58.4767 13.0741 58.71C12.6608 58.9433 12.1908 59.06 11.6641 59.06ZM11.6641 58.22C12.0041 58.22 12.3075 58.1433 12.5741 57.99C12.8475 57.83 13.0608 57.61 13.2141 57.33C13.3675 57.0433 13.4441 56.7167 13.4441 56.35C13.4441 55.9833 13.3675 55.66 13.2141 55.38C13.0608 55.0933 12.8475 54.8733 12.5741 54.72C12.3075 54.5667 12.0041 54.49 11.6641 54.49C11.3241 54.49 11.0175 54.5667 10.7441 54.72C10.4775 54.8733 10.2641 55.0933 10.1041 55.38C9.95081 55.66 9.87414 55.9833 9.87414 56.35C9.87414 56.7167 9.95081 57.0433 10.1041 57.33C10.2641 57.61 10.4775 57.83 10.7441 57.99C11.0175 58.1433 11.3241 58.22 11.6641 58.22ZM20.9113 58.16V60.23H20.0113V59H15.5813V60.23H14.6713V58.16H14.9513C15.2913 58.14 15.5247 57.9 15.6513 57.44C15.778 56.98 15.8647 56.33 15.9113 55.49L15.9913 53.7H20.1013V58.16H20.9113ZM16.7913 55.56C16.7647 56.2267 16.708 56.78 16.6213 57.22C16.5413 57.6533 16.3913 57.9667 16.1713 58.16H19.1413V54.54H16.8413L16.7913 55.56ZM23.982 56.76H22.882V59H21.922V53.7H22.882V55.94H24.002L25.722 53.7H26.752L24.742 56.25L26.892 59H25.762L23.982 56.76ZM27.6585 53.7H28.6185V57.56L31.8685 53.7H32.7385V59H31.7785V55.14L28.5385 59H27.6585V53.7ZM39.7519 58.16V60.23H38.8519V59H34.4219V60.23H33.5119V58.16H33.7919C34.1319 58.14 34.3652 57.9 34.4919 57.44C34.6185 56.98 34.7052 56.33 34.7519 55.49L34.8319 53.7H38.9419V58.16H39.7519ZM35.6319 55.56C35.6052 56.2267 35.5485 56.78 35.4619 57.22C35.3819 57.6533 35.2319 57.9667 35.0119 58.16H37.9819V54.54H35.6819L35.6319 55.56ZM40.7625 53.7H41.7225V55.95H44.7425V53.7H45.7025V59H44.7425V56.78H41.7225V59H40.7625V53.7ZM49.5991 59.06C49.0725 59.06 48.5991 58.9433 48.1791 58.71C47.7591 58.4767 47.4291 58.1567 47.1891 57.75C46.9558 57.3367 46.8391 56.87 46.8391 56.35C46.8391 55.83 46.9558 55.3667 47.1891 54.96C47.4291 54.5467 47.7591 54.2267 48.1791 54C48.5991 53.7667 49.0725 53.65 49.5991 53.65C50.1258 53.65 50.5958 53.7667 51.0091 54C51.4291 54.2267 51.7558 54.5467 51.9891 54.96C52.2291 55.3667 52.3491 55.83 52.3491 56.35C52.3491 56.87 52.2291 57.3367 51.9891 57.75C51.7558 58.1567 51.4291 58.4767 51.0091 58.71C50.5958 58.9433 50.1258 59.06 49.5991 59.06ZM49.5991 58.22C49.9391 58.22 50.2425 58.1433 50.5091 57.99C50.7825 57.83 50.9958 57.61 51.1491 57.33C51.3025 57.0433 51.3791 56.7167 51.3791 56.35C51.3791 55.9833 51.3025 55.66 51.1491 55.38C50.9958 55.0933 50.7825 54.8733 50.5091 54.72C50.2425 54.5667 49.9391 54.49 49.5991 54.49C49.2591 54.49 48.9525 54.5667 48.6791 54.72C48.4125 54.8733 48.1991 55.0933 48.0391 55.38C47.8858 55.66 47.8091 55.9833 47.8091 56.35C47.8091 56.7167 47.8858 57.0433 48.0391 57.33C48.1991 57.61 48.4125 57.83 48.6791 57.99C48.9525 58.1433 49.2591 58.22 49.5991 58.22ZM53.4954 53.7H54.4554V57.56L57.7054 53.7H58.5754V59H57.6154V55.14L54.3754 59H53.4954V53.7ZM55.9754 53.01C55.4821 53.01 55.0987 52.8933 54.8254 52.66C54.5521 52.42 54.4121 52.0767 54.4054 51.63H55.0554C55.0621 51.8767 55.1454 52.0767 55.3054 52.23C55.4721 52.3767 55.6921 52.45 55.9654 52.45C56.2387 52.45 56.4587 52.3767 56.6254 52.23C56.7921 52.0767 56.8787 51.8767 56.8854 51.63H57.5554C57.5487 52.0767 57.4054 52.42 57.1254 52.66C56.8454 52.8933 56.4621 53.01 55.9754 53.01Z" fill="white"/>
<defs>
<filter id="filter0_d_94_9840" x="8" y="0" width="38" height="49" filterUnits="userSpaceOnUse" color-interpolation-filters="sRGB">
<feFlood flood-opacity="0" result="BackgroundImageFix"/>
<feColorMatrix in="SourceAlpha" type="matrix" values="0 0 0 0 0 0 0 0 0 0 0 0 0 0 0 0 0 0 127 0" result="hardAlpha"/>
<feOffset/>
<feGaussianBlur stdDeviation="2"/>
<feComposite in2="hardAlpha" operator="out"/>
<feColorMatrix type="matrix" values="0 0 0 0 0 0 0 0 0 0 0 0 0 0 0 0 0 0 0.25 0"/>
<feBlend mode="normal" in2="BackgroundImageFix" result="effect1_dropShadow_94_9840"/>
<feBlend mode="normal" in="SourceGraphic" in2="effect1_dropShadow_94_9840" result="shape"/>
</filter>
<clipPath id="clip0_94_9840">
<rect width="25.1835" height="25.9735" fill="white" transform="translate(41.0657 12.3945) rotate(90)"/>
</clipPath>
</defs>
</svg>
