<svg width="258" height="44" viewBox="0 0 258 44" fill="none" xmlns="http://www.w3.org/2000/svg">
<rect width="258" height="44" rx="16" fill="#FEBF21"/>
<path d="M98.7444 18.912H93.4164L93.4324 28H90.8564V16.8H98.7604L98.7444 18.912ZM101.706 28.128C100.8 28.128 99.9837 27.9413 99.2584 27.568C98.5437 27.184 97.9837 26.656 97.5784 25.984C97.173 25.312 96.9704 24.5493 96.9704 23.696C96.9704 22.8427 97.173 22.08 97.5784 21.408C97.9837 20.736 98.5437 20.2133 99.2584 19.84C99.9837 19.456 100.8 19.264 101.706 19.264C102.613 19.264 103.424 19.456 104.138 19.84C104.853 20.2133 105.413 20.736 105.818 21.408C106.224 22.08 106.426 22.8427 106.426 23.696C106.426 24.5493 106.224 25.312 105.818 25.984C105.413 26.656 104.853 27.184 104.138 27.568C103.424 27.9413 102.613 28.128 101.706 28.128ZM101.706 26.08C102.346 26.08 102.869 25.8667 103.274 25.44C103.69 25.0027 103.898 24.4213 103.898 23.696C103.898 22.9707 103.69 22.3947 103.274 21.968C102.869 21.5307 102.346 21.312 101.706 21.312C101.066 21.312 100.538 21.5307 100.122 21.968C99.7064 22.3947 99.4984 22.9707 99.4984 23.696C99.4984 24.4213 99.7064 25.0027 100.122 25.44C100.538 25.8667 101.066 26.08 101.706 26.08ZM114.823 21.44H111.911V28H109.431V21.44H106.519V19.392H114.823V21.44ZM119.586 28.128C118.679 28.128 117.863 27.9413 117.138 27.568C116.423 27.184 115.863 26.656 115.458 25.984C115.052 25.312 114.85 24.5493 114.85 23.696C114.85 22.8427 115.052 22.08 115.458 21.408C115.863 20.736 116.423 20.2133 117.138 19.84C117.863 19.456 118.679 19.264 119.586 19.264C120.492 19.264 121.303 19.456 122.018 19.84C122.732 20.2133 123.292 20.736 123.698 21.408C124.103 22.08 124.306 22.8427 124.306 23.696C124.306 24.5493 124.103 25.312 123.698 25.984C123.292 26.656 122.732 27.184 122.018 27.568C121.303 27.9413 120.492 28.128 119.586 28.128ZM119.586 26.08C120.226 26.08 120.748 25.8667 121.154 25.44C121.57 25.0027 121.778 24.4213 121.778 23.696C121.778 22.9707 121.57 22.3947 121.154 21.968C120.748 21.5307 120.226 21.312 119.586 21.312C118.946 21.312 118.418 21.5307 118.002 21.968C117.586 22.3947 117.378 22.9707 117.378 23.696C117.378 24.4213 117.586 25.0027 118.002 25.44C118.418 25.8667 118.946 26.08 119.586 26.08ZM132.359 23.504C133.372 23.8453 133.879 24.528 133.879 25.552C133.879 26.3307 133.585 26.9333 132.999 27.36C132.412 27.7867 131.537 28 130.375 28H125.783V19.392H130.183C131.26 19.392 132.103 19.5893 132.711 19.984C133.319 20.368 133.623 20.912 133.623 21.616C133.623 22.0427 133.511 22.4213 133.287 22.752C133.073 23.072 132.764 23.3227 132.359 23.504ZM128.071 22.928H129.959C130.833 22.928 131.271 22.6187 131.271 22C131.271 21.392 130.833 21.088 129.959 21.088H128.071V22.928ZM130.167 26.304C131.084 26.304 131.543 25.9893 131.543 25.36C131.543 25.0293 131.436 24.7893 131.223 24.64C131.009 24.48 130.673 24.4 130.215 24.4H128.071V26.304H130.167Z" fill="#1B1A1A"/>
<path d="M167.5 22C167.501 22.2546 167.435 22.5051 167.31 22.727C167.186 22.949 167.005 23.1348 166.787 23.2665L153.28 31.5297C153.052 31.6691 152.791 31.7452 152.524 31.7502C152.257 31.7551 151.994 31.6887 151.761 31.5578C151.531 31.4289 151.339 31.2409 151.205 31.0132C151.071 30.7855 151 30.5263 151 30.2622V13.7378C151 13.4737 151.071 13.2144 151.205 12.9867C151.339 12.759 151.531 12.5711 151.761 12.4422C151.994 12.3112 152.257 12.2448 152.524 12.2498C152.791 12.2547 153.052 12.3308 153.28 12.4703L166.787 20.7334C167.005 20.8651 167.186 21.051 167.31 21.2729C167.435 21.4949 167.501 21.7453 167.5 22Z" fill="#1B1A1A"/>
</svg>
