<svg width="372" height="102" viewBox="0 0 372 102" fill="none" xmlns="http://www.w3.org/2000/svg">
<rect y="6" width="177" height="90" rx="20" fill="#1B1A1A"/>
<path d="M21.889 34.992V28.048H18.529L18.487 29.476C18.459 30.0827 18.417 30.6567 18.361 31.198C18.3144 31.7393 18.2397 32.234 18.137 32.682C18.0344 33.1207 17.899 33.494 17.731 33.802C17.5724 34.11 17.3717 34.3293 17.129 34.46L14.707 34.152C15.043 34.1613 15.3184 34.0447 15.533 33.802C15.757 33.5593 15.9344 33.2187 16.065 32.78C16.1957 32.332 16.289 31.8093 16.345 31.212C16.4104 30.6147 16.457 29.966 16.485 29.266L16.597 26.2H24.129V34.992H21.889ZM14.385 38.03L14.399 34.152H25.501V38.03H23.401V36H16.485V38.03H14.385ZM31.2642 36.112C30.6295 36.112 30.0742 35.972 29.5982 35.692C29.1222 35.412 28.7489 34.9873 28.4782 34.418C28.2169 33.8393 28.0862 33.1113 28.0862 32.234C28.0862 31.3473 28.2122 30.6193 28.4642 30.05C28.7162 29.4807 29.0802 29.056 29.5562 28.776C30.0322 28.496 30.6015 28.356 31.2642 28.356C31.9735 28.356 32.6082 28.5193 33.1682 28.846C33.7375 29.1633 34.1855 29.6113 34.5122 30.19C34.8482 30.7687 35.0162 31.45 35.0162 32.234C35.0162 33.0273 34.8482 33.7133 34.5122 34.292C34.1855 34.8707 33.7375 35.3187 33.1682 35.636C32.6082 35.9533 31.9735 36.112 31.2642 36.112ZM26.8122 38.716V28.468H28.8982V30.008L28.8562 32.248L28.9962 34.474V38.716H26.8122ZM30.8862 34.32C31.2502 34.32 31.5722 34.236 31.8522 34.068C32.1415 33.9 32.3702 33.662 32.5382 33.354C32.7155 33.0367 32.8042 32.6633 32.8042 32.234C32.8042 31.7953 32.7155 31.422 32.5382 31.114C32.3702 30.806 32.1415 30.568 31.8522 30.4C31.5722 30.232 31.2502 30.148 30.8862 30.148C30.5222 30.148 30.1955 30.232 29.9062 30.4C29.6169 30.568 29.3882 30.806 29.2202 31.114C29.0522 31.422 28.9682 31.7953 28.9682 32.234C28.9682 32.6633 29.0522 33.0367 29.2202 33.354C29.3882 33.662 29.6169 33.9 29.9062 34.068C30.1955 34.236 30.5222 34.32 30.8862 34.32ZM37.3302 38.828C36.9382 38.828 36.5509 38.7673 36.1682 38.646C35.7856 38.5247 35.4729 38.3567 35.2302 38.142L36.0282 36.588C36.1962 36.7373 36.3876 36.854 36.6022 36.938C36.8262 37.022 37.0456 37.064 37.2602 37.064C37.5682 37.064 37.8109 36.9893 37.9882 36.84C38.1749 36.7 38.3429 36.462 38.4922 36.126L38.8842 35.202L39.0522 34.964L41.7542 28.468H43.8542L40.4522 36.462C40.2096 37.0687 39.9296 37.5447 39.6122 37.89C39.3042 38.2353 38.9589 38.478 38.5762 38.618C38.2029 38.758 37.7876 38.828 37.3302 38.828ZM38.6182 36.294L35.2582 28.468H37.5122L40.1162 34.768L38.6182 36.294ZM44.8742 36V28.468H50.9082V30.26H46.5542L47.0442 29.784V36H44.8742ZM59.7013 36.168C59.0853 36.168 58.5253 36.0793 58.0213 35.902C57.5173 35.7153 57.0786 35.4307 56.7053 35.048C56.3413 34.656 56.0566 34.1567 55.8513 33.55C55.6553 32.9433 55.5573 32.22 55.5573 31.38C55.5573 30.7827 55.6086 30.2367 55.7113 29.742C55.814 29.2473 55.968 28.7993 56.1733 28.398C56.3786 27.9873 56.64 27.628 56.9573 27.32C57.284 27.0027 57.662 26.7413 58.0913 26.536C58.53 26.3213 59.0246 26.158 59.5753 26.046L63.1593 25.332L63.4533 27.208L60.2893 27.838C60.1026 27.8753 59.888 27.9267 59.6453 27.992C59.412 28.048 59.174 28.1367 58.9313 28.258C58.698 28.3793 58.4786 28.552 58.2733 28.776C58.0773 28.9907 57.9186 29.2753 57.7973 29.63C57.676 29.9753 57.6153 30.4047 57.6153 30.918C57.6153 31.0767 57.62 31.198 57.6293 31.282C57.648 31.366 57.662 31.4547 57.6713 31.548C57.69 31.6413 57.6993 31.786 57.6993 31.982L56.9993 31.296C57.2046 30.8573 57.466 30.484 57.7833 30.176C58.11 29.868 58.4833 29.6347 58.9033 29.476C59.3326 29.308 59.8086 29.224 60.3313 29.224C61.0406 29.224 61.6613 29.3687 62.1933 29.658C62.7346 29.938 63.1546 30.3347 63.4533 30.848C63.752 31.3613 63.9013 31.9447 63.9013 32.598C63.9013 33.3073 63.724 33.9327 63.3693 34.474C63.0146 35.006 62.52 35.4213 61.8853 35.72C61.26 36.0187 60.532 36.168 59.7013 36.168ZM59.8133 34.474C60.1773 34.474 60.4993 34.3947 60.7793 34.236C61.0593 34.068 61.274 33.8487 61.4233 33.578C61.582 33.298 61.6613 32.9853 61.6613 32.64C61.6613 32.304 61.582 32.0053 61.4233 31.744C61.274 31.4827 61.0593 31.2773 60.7793 31.128C60.4993 30.9787 60.1726 30.904 59.7993 30.904C59.4353 30.904 59.1086 30.9787 58.8193 31.128C58.53 31.268 58.306 31.464 58.1473 31.716C57.9886 31.968 57.9093 32.262 57.9093 32.598C57.9093 32.9433 57.9886 33.2607 58.1473 33.55C58.3153 33.83 58.5393 34.054 58.8193 34.222C59.1086 34.39 59.44 34.474 59.8133 34.474ZM69.0316 36.112C68.173 36.112 67.417 35.944 66.7636 35.608C66.1196 35.272 65.6203 34.8147 65.2656 34.236C64.911 33.648 64.7336 32.9807 64.7336 32.234C64.7336 31.478 64.9063 30.8107 65.2516 30.232C65.6063 29.644 66.087 29.1867 66.6936 28.86C67.3003 28.524 67.9863 28.356 68.7516 28.356C69.489 28.356 70.1516 28.5147 70.7396 28.832C71.337 29.14 71.8083 29.588 72.1536 30.176C72.499 30.7547 72.6716 31.45 72.6716 32.262C72.6716 32.346 72.667 32.444 72.6576 32.556C72.6483 32.6587 72.639 32.7567 72.6296 32.85H66.5116V31.576H71.4816L70.6416 31.954C70.6416 31.562 70.5623 31.2213 70.4036 30.932C70.245 30.6427 70.0256 30.4187 69.7456 30.26C69.4656 30.092 69.139 30.008 68.7656 30.008C68.3923 30.008 68.061 30.092 67.7716 30.26C67.4916 30.4187 67.2723 30.6473 67.1136 30.946C66.955 31.2353 66.8756 31.5807 66.8756 31.982V32.318C66.8756 32.7287 66.9643 33.0927 67.1416 33.41C67.3283 33.718 67.585 33.956 67.9116 34.124C68.2476 34.2827 68.6396 34.362 69.0876 34.362C69.489 34.362 69.839 34.3013 70.1376 34.18C70.4456 34.0587 70.7256 33.8767 70.9776 33.634L72.1396 34.894C71.7943 35.286 71.3603 35.5893 70.8376 35.804C70.315 36.0093 69.713 36.112 69.0316 36.112ZM76.7781 36.14C76.1994 36.14 75.6208 36.0793 75.0421 35.958C74.4728 35.8367 73.9454 35.6547 73.4601 35.412L74.0481 33.886C74.4308 34.0727 74.8461 34.2173 75.2941 34.32C75.7514 34.4133 76.2134 34.46 76.6801 34.46C77.0161 34.46 77.3054 34.4273 77.5481 34.362C77.8001 34.2873 77.9914 34.1847 78.1221 34.054C78.2528 33.9233 78.3181 33.7647 78.3181 33.578C78.3181 33.3353 78.2154 33.1533 78.0101 33.032C77.8048 32.9013 77.5061 32.836 77.1141 32.836H75.5741V31.478H76.9321C77.1841 31.478 77.3988 31.45 77.5761 31.394C77.7534 31.338 77.8841 31.2587 77.9681 31.156C78.0614 31.044 78.1081 30.9133 78.1081 30.764C78.1081 30.6053 78.0521 30.47 77.9401 30.358C77.8281 30.246 77.6648 30.162 77.4501 30.106C77.2354 30.0407 76.9648 30.008 76.6381 30.008C76.2648 30.008 75.8774 30.0547 75.4761 30.148C75.0748 30.232 74.6641 30.358 74.2441 30.526L73.7121 29.014C74.2068 28.8087 74.6968 28.6453 75.1821 28.524C75.6674 28.4027 76.1481 28.3373 76.6241 28.328C77.3241 28.3093 77.9541 28.384 78.5141 28.552C79.0741 28.72 79.5128 28.9627 79.8301 29.28C80.1568 29.5973 80.3201 29.9847 80.3201 30.442C80.3201 30.806 80.2081 31.1327 79.9841 31.422C79.7694 31.7113 79.4708 31.94 79.0881 32.108C78.7054 32.2667 78.2761 32.346 77.8001 32.346L77.8561 31.912C78.6868 31.912 79.3401 32.08 79.8161 32.416C80.2921 32.7427 80.5301 33.1907 80.5301 33.76C80.5301 34.2453 80.3621 34.67 80.0261 35.034C79.6994 35.3887 79.2514 35.664 78.6821 35.86C78.1221 36.0467 77.4874 36.14 76.7781 36.14ZM85.9891 36V28.468H93.4791V36H91.2951V29.77L91.7851 30.26H87.6691L88.1591 29.77V36H85.9891ZM99.9774 36.112C99.3428 36.112 98.7874 35.972 98.3114 35.692C97.8354 35.412 97.4621 34.9873 97.1914 34.418C96.9301 33.8393 96.7994 33.1113 96.7994 32.234C96.7994 31.3473 96.9254 30.6193 97.1774 30.05C97.4294 29.4807 97.7934 29.056 98.2694 28.776C98.7454 28.496 99.3148 28.356 99.9774 28.356C100.687 28.356 101.321 28.5193 101.881 28.846C102.451 29.1633 102.899 29.6113 103.225 30.19C103.561 30.7687 103.729 31.45 103.729 32.234C103.729 33.0273 103.561 33.7133 103.225 34.292C102.899 34.8707 102.451 35.3187 101.881 35.636C101.321 35.9533 100.687 36.112 99.9774 36.112ZM95.5254 38.716V28.468H97.6114V30.008L97.5694 32.248L97.7094 34.474V38.716H95.5254ZM99.5994 34.32C99.9634 34.32 100.285 34.236 100.565 34.068C100.855 33.9 101.083 33.662 101.251 33.354C101.429 33.0367 101.517 32.6633 101.517 32.234C101.517 31.7953 101.429 31.422 101.251 31.114C101.083 30.806 100.855 30.568 100.565 30.4C100.285 30.232 99.9634 30.148 99.5994 30.148C99.2354 30.148 98.9088 30.232 98.6194 30.4C98.3301 30.568 98.1014 30.806 97.9334 31.114C97.7654 31.422 97.6814 31.7953 97.6814 32.234C97.6814 32.6633 97.7654 33.0367 97.9334 33.354C98.1014 33.662 98.3301 33.9 98.6194 34.068C98.9088 34.236 99.2354 34.32 99.5994 34.32ZM108.909 36.112C108.05 36.112 107.294 35.944 106.641 35.608C105.997 35.272 105.497 34.8147 105.143 34.236C104.788 33.648 104.611 32.9807 104.611 32.234C104.611 31.478 104.783 30.8107 105.129 30.232C105.483 29.644 105.964 29.1867 106.571 28.86C107.177 28.524 107.863 28.356 108.629 28.356C109.366 28.356 110.029 28.5147 110.617 28.832C111.214 29.14 111.685 29.588 112.031 30.176C112.376 30.7547 112.549 31.45 112.549 32.262C112.549 32.346 112.544 32.444 112.535 32.556C112.525 32.6587 112.516 32.7567 112.507 32.85H106.389V31.576H111.359L110.519 31.954C110.519 31.562 110.439 31.2213 110.281 30.932C110.122 30.6427 109.903 30.4187 109.623 30.26C109.343 30.092 109.016 30.008 108.643 30.008C108.269 30.008 107.938 30.092 107.649 30.26C107.369 30.4187 107.149 30.6473 106.991 30.946C106.832 31.2353 106.753 31.5807 106.753 31.982V32.318C106.753 32.7287 106.841 33.0927 107.019 33.41C107.205 33.718 107.462 33.956 107.789 34.124C108.125 34.2827 108.517 34.362 108.965 34.362C109.366 34.362 109.716 34.3013 110.015 34.18C110.323 34.0587 110.603 33.8767 110.855 33.634L112.017 34.894C111.671 35.286 111.237 35.5893 110.715 35.804C110.192 36.0093 109.59 36.112 108.909 36.112ZM114.189 36V28.468H116.471L119.313 33.62H118.403L121.441 28.468H123.485L123.513 36H121.539V30.708L121.875 30.932L119.285 35.272H118.361L115.757 30.778L116.163 30.68V36H114.189ZM125.571 36V28.468H127.741V32.948L131.409 28.468H133.411V36H131.241V31.52L127.587 36H125.571ZM136.499 38.828C136.107 38.828 135.72 38.7673 135.337 38.646C134.955 38.5247 134.642 38.3567 134.399 38.142L135.197 36.588C135.365 36.7373 135.557 36.854 135.771 36.938C135.995 37.022 136.215 37.064 136.429 37.064C136.737 37.064 136.98 36.9893 137.157 36.84C137.344 36.7 137.512 36.462 137.661 36.126L138.053 35.202L138.221 34.964L140.923 28.468H143.023L139.621 36.462C139.379 37.0687 139.099 37.5447 138.781 37.89C138.473 38.2353 138.128 38.478 137.745 38.618C137.372 38.758 136.957 38.828 136.499 38.828ZM137.787 36.294L134.427 28.468H136.681L139.285 34.768L137.787 36.294ZM144.043 36V28.468H146.325L149.167 33.62H148.257L151.295 28.468H153.339L153.367 36H151.393V30.708L151.729 30.932L149.139 35.272H148.215L145.611 30.778L146.017 30.68V36H144.043ZM159.934 36V34.53L159.794 34.208V31.576C159.794 31.1093 159.649 30.7453 159.36 30.484C159.08 30.2227 158.646 30.092 158.058 30.092C157.656 30.092 157.26 30.1573 156.868 30.288C156.485 30.4093 156.158 30.5773 155.888 30.792L155.104 29.266C155.514 28.9767 156.009 28.7527 156.588 28.594C157.166 28.4353 157.754 28.356 158.352 28.356C159.5 28.356 160.391 28.6267 161.026 29.168C161.66 29.7093 161.978 30.554 161.978 31.702V36H159.934ZM157.638 36.112C157.05 36.112 156.546 36.014 156.126 35.818C155.706 35.6127 155.384 35.3373 155.16 34.992C154.936 34.6467 154.824 34.2593 154.824 33.83C154.824 33.382 154.931 32.99 155.146 32.654C155.37 32.318 155.72 32.0567 156.196 31.87C156.672 31.674 157.292 31.576 158.058 31.576H160.06V32.85H158.296C157.782 32.85 157.428 32.934 157.232 33.102C157.045 33.27 156.952 33.48 156.952 33.732C156.952 34.012 157.059 34.236 157.274 34.404C157.498 34.5627 157.801 34.642 158.184 34.642C158.548 34.642 158.874 34.558 159.164 34.39C159.453 34.2127 159.663 33.956 159.794 33.62L160.13 34.628C159.971 35.1133 159.682 35.482 159.262 35.734C158.842 35.986 158.3 36.112 157.638 36.112Z" fill="white"/>
<rect width="8.125" height="11.25" transform="translate(59.25 60.375)" fill="white"/>
<g filter="url(#filter0_i_10_25670)">
<path d="M67.1667 58.7833C68.4336 59.5147 69.4856 60.5667 70.217 61.8336C70.9484 63.1004 71.3334 64.5374 71.3334 66.0003C71.3334 67.4631 70.9483 68.9001 70.2169 70.1669C69.4855 71.4338 68.4335 72.4857 67.1667 73.2171C65.8998 73.9485 64.4628 74.3336 62.9999 74.3335C61.5371 74.3335 60.1001 73.9484 58.8333 73.217C57.5665 72.4856 56.5145 71.4336 55.7831 70.1667C55.0517 68.8999 54.6667 67.4628 54.6667 66L54.6709 65.73C54.7176 64.2908 55.1364 62.8883 55.8864 61.6592C56.6365 60.43 57.6923 59.4162 58.9508 58.7166C60.2094 58.0169 61.6277 57.6553 63.0676 57.667C64.5075 57.6787 65.9198 58.0633 67.1667 58.7833ZM63.0001 61C62.7791 61 62.5671 61.0878 62.4108 61.2441C62.2545 61.4004 62.1667 61.6123 62.1667 61.8333C61.5037 61.8333 60.8678 62.0967 60.399 62.5656C59.9301 63.0344 59.6667 63.6703 59.6667 64.3333C59.6667 64.9964 59.9301 65.6323 60.399 66.1011C60.8678 66.5699 61.5037 66.8333 62.1667 66.8333V68.5C62.0285 68.5076 61.8906 68.4814 61.7648 68.4236C61.639 68.3658 61.5293 68.2782 61.4451 68.1683L61.3884 68.0842C61.2744 67.9003 61.0933 67.768 60.8835 67.7152C60.6737 67.6624 60.4516 67.6933 60.2641 67.8013C60.0767 67.9093 59.9386 68.086 59.879 68.294C59.8195 68.502 59.8432 68.725 59.9451 68.9158C60.1578 69.2847 60.4612 69.5932 60.8265 69.8119C61.1918 70.0307 61.607 70.1525 62.0326 70.1658H62.1667C62.1666 70.3701 62.2414 70.5673 62.3771 70.72C62.5127 70.8727 62.6997 70.9703 62.9026 70.9942L63.0001 71C63.2211 71 63.4331 70.9122 63.5893 70.7559C63.7456 70.5996 63.8334 70.3877 63.8334 70.1667L63.9801 70.1625C64.6298 70.1249 65.2392 69.8355 65.6789 69.3558C66.1186 68.8761 66.3538 68.2438 66.3347 67.5933C66.3157 66.9428 66.0437 66.3254 65.5766 65.8723C65.1095 65.4192 64.4842 65.166 63.8334 65.1667V63.5C64.1317 63.49 64.3926 63.6167 64.5551 63.8317L64.6117 63.9158C64.7258 64.0997 64.9068 64.232 65.1166 64.2848C65.3264 64.3376 65.5486 64.3067 65.736 64.1987C65.9235 64.0907 66.0616 63.914 66.1211 63.706C66.1807 63.498 66.157 63.275 66.0551 63.0842C65.8425 62.7151 65.5391 62.4065 65.1738 62.1876C64.8085 61.9687 64.3933 61.8467 63.9676 61.8333H63.8334C63.8334 61.6123 63.7456 61.4004 63.5893 61.2441C63.4331 61.0878 63.2211 61 63.0001 61ZM63.8334 66.8333C64.0544 66.8333 64.2664 66.9211 64.4227 67.0774C64.579 67.2337 64.6667 67.4456 64.6667 67.6667C64.6667 67.8877 64.579 68.0996 64.4227 68.2559C64.2664 68.4122 64.0544 68.5 63.8334 68.5V66.8333ZM62.1667 63.5V65.1667C61.9457 65.1667 61.7338 65.0789 61.5775 64.9226C61.4212 64.7663 61.3334 64.5543 61.3334 64.3333C61.3334 64.1123 61.4212 63.9004 61.5775 63.7441C61.7338 63.5878 61.9457 63.5 62.1667 63.5Z" fill="#45AF13"/>
</g>
<path d="M81.6963 71.692C80.9176 71.692 80.1443 71.5907 79.3763 71.388C78.619 71.1747 77.9683 70.876 77.4243 70.492L78.4483 68.508C78.875 68.8173 79.3656 69.0627 79.9203 69.244C80.4856 69.4253 81.0563 69.516 81.6323 69.516C82.283 69.516 82.795 69.388 83.1683 69.132C83.5416 68.876 83.7283 68.5187 83.7283 68.06C83.7283 67.772 83.6536 67.516 83.5043 67.292C83.355 67.068 83.0883 66.8973 82.7043 66.78C82.331 66.6627 81.803 66.604 81.1203 66.604H78.2563L78.8323 60.3H85.6643V62.38H79.7603L81.1043 61.196L80.7043 65.692L79.3603 64.508H81.7283C82.8376 64.508 83.7283 64.6627 84.4003 64.972C85.083 65.2707 85.579 65.6813 85.8883 66.204C86.1976 66.7267 86.3523 67.3187 86.3523 67.98C86.3523 68.6413 86.187 69.2547 85.8563 69.82C85.5256 70.3747 85.0136 70.828 84.3203 71.18C83.6376 71.5213 82.763 71.692 81.6963 71.692ZM96.6584 71.692C95.741 71.692 94.9197 71.468 94.1944 71.02C93.469 70.5613 92.8984 69.9 92.4824 69.036C92.0664 68.172 91.8584 67.1267 91.8584 65.9C91.8584 64.6733 92.0664 63.628 92.4824 62.764C92.8984 61.9 93.469 61.244 94.1944 60.796C94.9197 60.3373 95.741 60.108 96.6584 60.108C97.5864 60.108 98.4077 60.3373 99.1224 60.796C99.8477 61.244 100.418 61.9 100.834 62.764C101.25 63.628 101.458 64.6733 101.458 65.9C101.458 67.1267 101.25 68.172 100.834 69.036C100.418 69.9 99.8477 70.5613 99.1224 71.02C98.4077 71.468 97.5864 71.692 96.6584 71.692ZM96.6584 69.5C97.0957 69.5 97.4744 69.3773 97.7944 69.132C98.125 68.8867 98.381 68.4973 98.5624 67.964C98.7544 67.4307 98.8504 66.7427 98.8504 65.9C98.8504 65.0573 98.7544 64.3693 98.5624 63.836C98.381 63.3027 98.125 62.9133 97.7944 62.668C97.4744 62.4227 97.0957 62.3 96.6584 62.3C96.2317 62.3 95.853 62.4227 95.5224 62.668C95.2024 62.9133 94.9464 63.3027 94.7544 63.836C94.573 64.3693 94.4824 65.0573 94.4824 65.9C94.4824 66.7427 94.573 67.4307 94.7544 67.964C94.9464 68.4973 95.2024 68.8867 95.5224 69.132C95.853 69.3773 96.2317 69.5 96.6584 69.5ZM107.479 71.692C106.562 71.692 105.741 71.468 105.015 71.02C104.29 70.5613 103.719 69.9 103.303 69.036C102.887 68.172 102.679 67.1267 102.679 65.9C102.679 64.6733 102.887 63.628 103.303 62.764C103.719 61.9 104.29 61.244 105.015 60.796C105.741 60.3373 106.562 60.108 107.479 60.108C108.407 60.108 109.229 60.3373 109.943 60.796C110.669 61.244 111.239 61.9 111.655 62.764C112.071 63.628 112.279 64.6733 112.279 65.9C112.279 67.1267 112.071 68.172 111.655 69.036C111.239 69.9 110.669 70.5613 109.943 71.02C109.229 71.468 108.407 71.692 107.479 71.692ZM107.479 69.5C107.917 69.5 108.295 69.3773 108.615 69.132C108.946 68.8867 109.202 68.4973 109.383 67.964C109.575 67.4307 109.671 66.7427 109.671 65.9C109.671 65.0573 109.575 64.3693 109.383 63.836C109.202 63.3027 108.946 62.9133 108.615 62.668C108.295 62.4227 107.917 62.3 107.479 62.3C107.053 62.3 106.674 62.4227 106.343 62.668C106.023 62.9133 105.767 63.3027 105.575 63.836C105.394 64.3693 105.303 65.0573 105.303 65.9C105.303 66.7427 105.394 67.4307 105.575 67.964C105.767 68.4973 106.023 68.8867 106.343 69.132C106.674 69.3773 107.053 69.5 107.479 69.5ZM118.3 71.692C117.383 71.692 116.562 71.468 115.836 71.02C115.111 70.5613 114.54 69.9 114.124 69.036C113.708 68.172 113.5 67.1267 113.5 65.9C113.5 64.6733 113.708 63.628 114.124 62.764C114.54 61.9 115.111 61.244 115.836 60.796C116.562 60.3373 117.383 60.108 118.3 60.108C119.228 60.108 120.05 60.3373 120.764 60.796C121.49 61.244 122.06 61.9 122.476 62.764C122.892 63.628 123.1 64.6733 123.1 65.9C123.1 67.1267 122.892 68.172 122.476 69.036C122.06 69.9 121.49 70.5613 120.764 71.02C120.05 71.468 119.228 71.692 118.3 71.692ZM118.3 69.5C118.738 69.5 119.116 69.3773 119.436 69.132C119.767 68.8867 120.023 68.4973 120.204 67.964C120.396 67.4307 120.492 66.7427 120.492 65.9C120.492 65.0573 120.396 64.3693 120.204 63.836C120.023 63.3027 119.767 62.9133 119.436 62.668C119.116 62.4227 118.738 62.3 118.3 62.3C117.874 62.3 117.495 62.4227 117.164 62.668C116.844 62.9133 116.588 63.3027 116.396 63.836C116.215 64.3693 116.124 65.0573 116.124 65.9C116.124 66.7427 116.215 67.4307 116.396 67.964C116.588 68.4973 116.844 68.8867 117.164 69.132C117.495 69.3773 117.874 69.5 118.3 69.5Z" fill="white"/>
<g filter="url(#filter1_d_10_25670)">
<rect x="189" y="6" width="177" height="90" rx="20" fill="#1B1A1A"/>
<path d="M224.527 34.992V28.048H221.167L221.125 29.476C221.097 30.0827 221.055 30.6567 220.999 31.198C220.953 31.7393 220.878 32.234 220.775 32.682C220.673 33.1207 220.537 33.494 220.369 33.802C220.211 34.11 220.01 34.3293 219.767 34.46L217.345 34.152C217.681 34.1613 217.957 34.0447 218.171 33.802C218.395 33.5593 218.573 33.2187 218.703 32.78C218.834 32.332 218.927 31.8093 218.983 31.212C219.049 30.6147 219.095 29.966 219.123 29.266L219.235 26.2H226.767V34.992H224.527ZM217.023 38.03L217.037 34.152H228.139V38.03H226.039V36H219.123V38.03H217.023ZM232.91 36.112C232.108 36.112 231.394 35.944 230.768 35.608C230.152 35.272 229.662 34.8147 229.298 34.236C228.944 33.648 228.766 32.9807 228.766 32.234C228.766 31.478 228.944 30.8107 229.298 30.232C229.662 29.644 230.152 29.1867 230.768 28.86C231.394 28.524 232.108 28.356 232.91 28.356C233.704 28.356 234.413 28.524 235.038 28.86C235.664 29.1867 236.154 29.6393 236.508 30.218C236.863 30.7967 237.04 31.4687 237.04 32.234C237.04 32.9807 236.863 33.648 236.508 34.236C236.154 34.8147 235.664 35.272 235.038 35.608C234.413 35.944 233.704 36.112 232.91 36.112ZM232.91 34.32C233.274 34.32 233.601 34.236 233.89 34.068C234.18 33.9 234.408 33.662 234.576 33.354C234.744 33.0367 234.828 32.6633 234.828 32.234C234.828 31.7953 234.744 31.422 234.576 31.114C234.408 30.806 234.18 30.568 233.89 30.4C233.601 30.232 233.274 30.148 232.91 30.148C232.546 30.148 232.22 30.232 231.93 30.4C231.641 30.568 231.408 30.806 231.23 31.114C231.062 31.422 230.978 31.7953 230.978 32.234C230.978 32.6633 231.062 33.0367 231.23 33.354C231.408 33.662 231.641 33.9 231.93 34.068C232.22 34.236 232.546 34.32 232.91 34.32ZM237.269 36L240.643 31.576L240.601 32.78L237.367 28.468H239.817L241.861 31.282L240.937 31.31L243.051 28.468H245.375L242.127 32.738V31.562L245.487 36H243.009L240.867 33.004L241.777 33.13L239.649 36H237.269ZM249.824 36.112C249.021 36.112 248.307 35.944 247.682 35.608C247.066 35.272 246.576 34.8147 246.212 34.236C245.857 33.648 245.68 32.9807 245.68 32.234C245.68 31.478 245.857 30.8107 246.212 30.232C246.576 29.644 247.066 29.1867 247.682 28.86C248.307 28.524 249.021 28.356 249.824 28.356C250.617 28.356 251.326 28.524 251.952 28.86C252.577 29.1867 253.067 29.6393 253.422 30.218C253.776 30.7967 253.954 31.4687 253.954 32.234C253.954 32.9807 253.776 33.648 253.422 34.236C253.067 34.8147 252.577 35.272 251.952 35.608C251.326 35.944 250.617 36.112 249.824 36.112ZM249.824 34.32C250.188 34.32 250.514 34.236 250.804 34.068C251.093 33.9 251.322 33.662 251.49 33.354C251.658 33.0367 251.742 32.6633 251.742 32.234C251.742 31.7953 251.658 31.422 251.49 31.114C251.322 30.806 251.093 30.568 250.804 30.4C250.514 30.232 250.188 30.148 249.824 30.148C249.46 30.148 249.133 30.232 248.844 30.4C248.554 30.568 248.321 30.806 248.144 31.114C247.976 31.422 247.892 31.7953 247.892 32.234C247.892 32.6633 247.976 33.0367 248.144 33.354C248.321 33.662 248.554 33.9 248.844 34.068C249.133 34.236 249.46 34.32 249.824 34.32ZM260.493 35.02V30.26H258.029L257.987 31.226C257.968 31.6273 257.945 32.01 257.917 32.374C257.889 32.738 257.833 33.0693 257.749 33.368C257.674 33.6573 257.562 33.9047 257.413 34.11C257.264 34.306 257.063 34.4413 256.811 34.516L254.655 34.208C254.926 34.208 255.145 34.1287 255.313 33.97C255.481 33.802 255.612 33.5733 255.705 33.284C255.798 32.9853 255.868 32.6493 255.915 32.276C255.962 31.8933 255.994 31.492 256.013 31.072L256.111 28.468H262.677V35.02H260.493ZM254.403 37.624V34.208H263.755V37.624H261.725V36H256.433V37.624H254.403ZM272.611 36.112C271.799 36.112 271.076 35.9487 270.441 35.622C269.806 35.286 269.307 34.824 268.943 34.236C268.588 33.648 268.411 32.9807 268.411 32.234C268.411 31.478 268.588 30.8107 268.943 30.232C269.307 29.644 269.806 29.1867 270.441 28.86C271.076 28.524 271.799 28.356 272.611 28.356C273.404 28.356 274.095 28.524 274.683 28.86C275.271 29.1867 275.705 29.658 275.985 30.274L274.291 31.184C274.095 30.8293 273.848 30.568 273.549 30.4C273.26 30.232 272.942 30.148 272.597 30.148C272.224 30.148 271.888 30.232 271.589 30.4C271.29 30.568 271.052 30.806 270.875 31.114C270.707 31.422 270.623 31.7953 270.623 32.234C270.623 32.6727 270.707 33.046 270.875 33.354C271.052 33.662 271.29 33.9 271.589 34.068C271.888 34.236 272.224 34.32 272.597 34.32C272.942 34.32 273.26 34.2407 273.549 34.082C273.848 33.914 274.095 33.648 274.291 33.284L275.985 34.208C275.705 34.8147 275.271 35.286 274.683 35.622C274.095 35.9487 273.404 36.112 272.611 36.112ZM286.39 35.02V30.26H283.926L283.884 31.226C283.865 31.6273 283.842 32.01 283.814 32.374C283.786 32.738 283.73 33.0693 283.646 33.368C283.571 33.6573 283.459 33.9047 283.31 34.11C283.16 34.306 282.96 34.4413 282.708 34.516L280.552 34.208C280.822 34.208 281.042 34.1287 281.21 33.97C281.378 33.802 281.508 33.5733 281.602 33.284C281.695 32.9853 281.765 32.6493 281.812 32.276C281.858 31.8933 281.891 31.492 281.91 31.072L282.008 28.468H288.574V35.02H286.39ZM280.3 37.624V34.208H289.652V37.624H287.622V36H282.33V37.624H280.3ZM295.431 36.112C294.796 36.112 294.241 35.972 293.765 35.692C293.289 35.412 292.915 34.9873 292.645 34.418C292.383 33.8393 292.253 33.1113 292.253 32.234C292.253 31.3473 292.379 30.6193 292.631 30.05C292.883 29.4807 293.247 29.056 293.723 28.776C294.199 28.496 294.768 28.356 295.431 28.356C296.14 28.356 296.775 28.5193 297.335 28.846C297.904 29.1633 298.352 29.6113 298.679 30.19C299.015 30.7687 299.183 31.45 299.183 32.234C299.183 33.0273 299.015 33.7133 298.679 34.292C298.352 34.8707 297.904 35.3187 297.335 35.636C296.775 35.9533 296.14 36.112 295.431 36.112ZM290.979 38.716V28.468H293.065V30.008L293.023 32.248L293.163 34.474V38.716H290.979ZM295.053 34.32C295.417 34.32 295.739 34.236 296.019 34.068C296.308 33.9 296.537 33.662 296.705 33.354C296.882 33.0367 296.971 32.6633 296.971 32.234C296.971 31.7953 296.882 31.422 296.705 31.114C296.537 30.806 296.308 30.568 296.019 30.4C295.739 30.232 295.417 30.148 295.053 30.148C294.689 30.148 294.362 30.232 294.073 30.4C293.783 30.568 293.555 30.806 293.387 31.114C293.219 31.422 293.135 31.7953 293.135 32.234C293.135 32.6633 293.219 33.0367 293.387 33.354C293.555 33.662 293.783 33.9 294.073 34.068C294.362 34.236 294.689 34.32 295.053 34.32ZM301.497 38.828C301.105 38.828 300.717 38.7673 300.335 38.646C299.952 38.5247 299.639 38.3567 299.397 38.142L300.195 36.588C300.363 36.7373 300.554 36.854 300.769 36.938C300.993 37.022 301.212 37.064 301.427 37.064C301.735 37.064 301.977 36.9893 302.155 36.84C302.341 36.7 302.509 36.462 302.659 36.126L303.051 35.202L303.219 34.964L305.921 28.468H308.021L304.619 36.462C304.376 37.0687 304.096 37.5447 303.779 37.89C303.471 38.2353 303.125 38.478 302.743 38.618C302.369 38.758 301.954 38.828 301.497 38.828ZM302.785 36.294L299.425 28.468H301.679L304.283 34.768L302.785 36.294ZM311.425 36.14C310.846 36.14 310.267 36.0793 309.689 35.958C309.119 35.8367 308.592 35.6547 308.107 35.412L308.695 33.886C309.077 34.0727 309.493 34.2173 309.941 34.32C310.398 34.4133 310.86 34.46 311.327 34.46C311.663 34.46 311.952 34.4273 312.195 34.362C312.447 34.2873 312.638 34.1847 312.769 34.054C312.899 33.9233 312.965 33.7647 312.965 33.578C312.965 33.3353 312.862 33.1533 312.657 33.032C312.451 32.9013 312.153 32.836 311.761 32.836H310.221V31.478H311.579C311.831 31.478 312.045 31.45 312.223 31.394C312.4 31.338 312.531 31.2587 312.615 31.156C312.708 31.044 312.755 30.9133 312.755 30.764C312.755 30.6053 312.699 30.47 312.587 30.358C312.475 30.246 312.311 30.162 312.097 30.106C311.882 30.0407 311.611 30.008 311.285 30.008C310.911 30.008 310.524 30.0547 310.123 30.148C309.721 30.232 309.311 30.358 308.891 30.526L308.359 29.014C308.853 28.8087 309.343 28.6453 309.829 28.524C310.314 28.4027 310.795 28.3373 311.271 28.328C311.971 28.3093 312.601 28.384 313.161 28.552C313.721 28.72 314.159 28.9627 314.477 29.28C314.803 29.5973 314.967 29.9847 314.967 30.442C314.967 30.806 314.855 31.1327 314.631 31.422C314.416 31.7113 314.117 31.94 313.735 32.108C313.352 32.2667 312.923 32.346 312.447 32.346L312.503 31.912C313.333 31.912 313.987 32.08 314.463 32.416C314.939 32.7427 315.177 33.1907 315.177 33.76C315.177 34.2453 315.009 34.67 314.673 35.034C314.346 35.3887 313.898 35.664 313.329 35.86C312.769 36.0467 312.134 36.14 311.425 36.14ZM320.386 36.112C319.528 36.112 318.772 35.944 318.118 35.608C317.474 35.272 316.975 34.8147 316.62 34.236C316.266 33.648 316.088 32.9807 316.088 32.234C316.088 31.478 316.261 30.8107 316.606 30.232C316.961 29.644 317.442 29.1867 318.048 28.86C318.655 28.524 319.341 28.356 320.106 28.356C320.844 28.356 321.506 28.5147 322.094 28.832C322.692 29.14 323.163 29.588 323.508 30.176C323.854 30.7547 324.026 31.45 324.026 32.262C324.026 32.346 324.022 32.444 324.012 32.556C324.003 32.6587 323.994 32.7567 323.984 32.85H317.866V31.576H322.836L321.996 31.954C321.996 31.562 321.917 31.2213 321.758 30.932C321.6 30.6427 321.38 30.4187 321.1 30.26C320.82 30.092 320.494 30.008 320.12 30.008C319.747 30.008 319.416 30.092 319.126 30.26C318.846 30.4187 318.627 30.6473 318.468 30.946C318.31 31.2353 318.23 31.5807 318.23 31.982V32.318C318.23 32.7287 318.319 33.0927 318.496 33.41C318.683 33.718 318.94 33.956 319.266 34.124C319.602 34.2827 319.994 34.362 320.442 34.362C320.844 34.362 321.194 34.3013 321.492 34.18C321.8 34.0587 322.08 33.8767 322.332 33.634L323.494 34.894C323.149 35.286 322.715 35.5893 322.192 35.804C321.67 36.0093 321.068 36.112 320.386 36.112ZM325.667 36V28.468H327.837V32.948L331.505 28.468H333.507V36H331.337V31.52L327.683 36H325.667ZM329.447 27.656C328.625 27.656 328.009 27.4787 327.599 27.124C327.188 26.76 326.978 26.214 326.969 25.486H328.397C328.406 25.8033 328.495 26.0553 328.663 26.242C328.831 26.4287 329.087 26.522 329.433 26.522C329.769 26.522 330.025 26.4287 330.203 26.242C330.389 26.0553 330.483 25.8033 330.483 25.486H331.939C331.939 26.214 331.729 26.76 331.309 27.124C330.889 27.4787 330.268 27.656 329.447 27.656ZM336.357 31.086C335.983 31.086 335.661 30.96 335.391 30.708C335.129 30.4467 334.999 30.1153 334.999 29.714C334.999 29.3127 335.129 28.9907 335.391 28.748C335.661 28.496 335.983 28.37 336.357 28.37C336.739 28.37 337.061 28.496 337.323 28.748C337.584 28.9907 337.715 29.3127 337.715 29.714C337.715 30.1153 337.584 30.4467 337.323 30.708C337.061 30.96 336.739 31.086 336.357 31.086ZM336.357 36.112C335.983 36.112 335.661 35.986 335.391 35.734C335.129 35.4727 334.999 35.1413 334.999 34.74C334.999 34.3387 335.129 34.0167 335.391 33.774C335.661 33.522 335.983 33.396 336.357 33.396C336.739 33.396 337.061 33.522 337.323 33.774C337.584 34.0167 337.715 34.3387 337.715 34.74C337.715 35.1413 337.584 35.4727 337.323 35.734C337.061 35.986 336.739 36.112 336.357 36.112Z" fill="#FCFBFB"/>
<rect width="8.125" height="11.25" transform="translate(245.25 60.375)" fill="white"/>
<g filter="url(#filter2_i_10_25670)">
<path d="M253.167 58.7833C254.434 59.5147 255.486 60.5667 256.217 61.8336C256.948 63.1004 257.333 64.5374 257.333 66.0003C257.333 67.4631 256.948 68.9001 256.217 70.1669C255.486 71.4338 254.434 72.4857 253.167 73.2171C251.9 73.9485 250.463 74.3336 249 74.3335C247.537 74.3335 246.1 73.9484 244.833 73.217C243.566 72.4856 242.514 71.4336 241.783 70.1667C241.052 68.8999 240.667 67.4628 240.667 66L240.671 65.73C240.718 64.2908 241.136 62.8883 241.886 61.6592C242.637 60.43 243.692 59.4162 244.951 58.7166C246.209 58.0169 247.628 57.6553 249.068 57.667C250.507 57.6787 251.92 58.0633 253.167 58.7833ZM249 61C248.779 61 248.567 61.0878 248.411 61.2441C248.255 61.4004 248.167 61.6123 248.167 61.8333C247.504 61.8333 246.868 62.0967 246.399 62.5656C245.93 63.0344 245.667 63.6703 245.667 64.3333C245.667 64.9964 245.93 65.6323 246.399 66.1011C246.868 66.5699 247.504 66.8333 248.167 66.8333V68.5C248.029 68.5076 247.891 68.4814 247.765 68.4236C247.639 68.3658 247.529 68.2782 247.445 68.1683L247.388 68.0842C247.274 67.9003 247.093 67.768 246.884 67.7152C246.674 67.6624 246.452 67.6933 246.264 67.8013C246.077 67.9093 245.939 68.086 245.879 68.294C245.819 68.502 245.843 68.725 245.945 68.9158C246.158 69.2847 246.461 69.5932 246.827 69.8119C247.192 70.0307 247.607 70.1525 248.033 70.1658H248.167C248.167 70.3701 248.241 70.5673 248.377 70.72C248.513 70.8727 248.7 70.9703 248.903 70.9942L249 71C249.221 71 249.433 70.9122 249.589 70.7559C249.746 70.5996 249.833 70.3877 249.833 70.1667L249.98 70.1625C250.63 70.1249 251.239 69.8355 251.679 69.3558C252.119 68.8761 252.354 68.2438 252.335 67.5933C252.316 66.9428 252.044 66.3254 251.577 65.8723C251.11 65.4192 250.484 65.166 249.833 65.1667V63.5C250.132 63.49 250.393 63.6167 250.555 63.8317L250.612 63.9158C250.726 64.0997 250.907 64.232 251.117 64.2848C251.326 64.3376 251.549 64.3067 251.736 64.1987C251.923 64.0907 252.062 63.914 252.121 63.706C252.181 63.498 252.157 63.275 252.055 63.0842C251.842 62.7151 251.539 62.4065 251.174 62.1876C250.808 61.9687 250.393 61.8467 249.968 61.8333H249.833C249.833 61.6123 249.746 61.4004 249.589 61.2441C249.433 61.0878 249.221 61 249 61ZM249.833 66.8333C250.054 66.8333 250.266 66.9211 250.423 67.0774C250.579 67.2337 250.667 67.4456 250.667 67.6667C250.667 67.8877 250.579 68.0996 250.423 68.2559C250.266 68.4122 250.054 68.5 249.833 68.5V66.8333ZM248.167 63.5V65.1667C247.946 65.1667 247.734 65.0789 247.577 64.9226C247.421 64.7663 247.333 64.5543 247.333 64.3333C247.333 64.1123 247.421 63.9004 247.577 63.7441C247.734 63.5878 247.946 63.5 248.167 63.5Z" fill="#45AF13"/>
</g>
<path d="M265.503 71.5V61.26L266.623 62.38H263.263V60.3H268.095V71.5H265.503ZM273.81 71.692C273.031 71.692 272.258 71.5907 271.49 71.388C270.733 71.1747 270.082 70.876 269.538 70.492L270.562 68.508C270.989 68.8173 271.479 69.0627 272.034 69.244C272.599 69.4253 273.17 69.516 273.746 69.516C274.397 69.516 274.909 69.388 275.282 69.132C275.655 68.876 275.842 68.5187 275.842 68.06C275.842 67.772 275.767 67.516 275.618 67.292C275.469 67.068 275.202 66.8973 274.818 66.78C274.445 66.6627 273.917 66.604 273.234 66.604H270.37L270.946 60.3H277.778V62.38H271.874L273.218 61.196L272.818 65.692L271.474 64.508H273.842C274.951 64.508 275.842 64.6627 276.514 64.972C277.197 65.2707 277.693 65.6813 278.002 66.204C278.311 66.7267 278.466 67.3187 278.466 67.98C278.466 68.6413 278.301 69.2547 277.97 69.82C277.639 70.3747 277.127 70.828 276.434 71.18C275.751 71.5213 274.877 71.692 273.81 71.692ZM288.772 71.692C287.855 71.692 287.033 71.468 286.308 71.02C285.583 70.5613 285.012 69.9 284.596 69.036C284.18 68.172 283.972 67.1267 283.972 65.9C283.972 64.6733 284.18 63.628 284.596 62.764C285.012 61.9 285.583 61.244 286.308 60.796C287.033 60.3373 287.855 60.108 288.772 60.108C289.7 60.108 290.521 60.3373 291.236 60.796C291.961 61.244 292.532 61.9 292.948 62.764C293.364 63.628 293.572 64.6733 293.572 65.9C293.572 67.1267 293.364 68.172 292.948 69.036C292.532 69.9 291.961 70.5613 291.236 71.02C290.521 71.468 289.7 71.692 288.772 71.692ZM288.772 69.5C289.209 69.5 289.588 69.3773 289.908 69.132C290.239 68.8867 290.495 68.4973 290.676 67.964C290.868 67.4307 290.964 66.7427 290.964 65.9C290.964 65.0573 290.868 64.3693 290.676 63.836C290.495 63.3027 290.239 62.9133 289.908 62.668C289.588 62.4227 289.209 62.3 288.772 62.3C288.345 62.3 287.967 62.4227 287.636 62.668C287.316 62.9133 287.06 63.3027 286.868 63.836C286.687 64.3693 286.596 65.0573 286.596 65.9C286.596 66.7427 286.687 67.4307 286.868 67.964C287.06 68.4973 287.316 68.8867 287.636 69.132C287.967 69.3773 288.345 69.5 288.772 69.5ZM299.593 71.692C298.676 71.692 297.854 71.468 297.129 71.02C296.404 70.5613 295.833 69.9 295.417 69.036C295.001 68.172 294.793 67.1267 294.793 65.9C294.793 64.6733 295.001 63.628 295.417 62.764C295.833 61.9 296.404 61.244 297.129 60.796C297.854 60.3373 298.676 60.108 299.593 60.108C300.521 60.108 301.342 60.3373 302.057 60.796C302.782 61.244 303.353 61.9 303.769 62.764C304.185 63.628 304.393 64.6733 304.393 65.9C304.393 67.1267 304.185 68.172 303.769 69.036C303.353 69.9 302.782 70.5613 302.057 71.02C301.342 71.468 300.521 71.692 299.593 71.692ZM299.593 69.5C300.03 69.5 300.409 69.3773 300.729 69.132C301.06 68.8867 301.316 68.4973 301.497 67.964C301.689 67.4307 301.785 66.7427 301.785 65.9C301.785 65.0573 301.689 64.3693 301.497 63.836C301.316 63.3027 301.06 62.9133 300.729 62.668C300.409 62.4227 300.03 62.3 299.593 62.3C299.166 62.3 298.788 62.4227 298.457 62.668C298.137 62.9133 297.881 63.3027 297.689 63.836C297.508 64.3693 297.417 65.0573 297.417 65.9C297.417 66.7427 297.508 67.4307 297.689 67.964C297.881 68.4973 298.137 68.8867 298.457 69.132C298.788 69.3773 299.166 69.5 299.593 69.5ZM310.414 71.692C309.497 71.692 308.675 71.468 307.95 71.02C307.225 70.5613 306.654 69.9 306.238 69.036C305.822 68.172 305.614 67.1267 305.614 65.9C305.614 64.6733 305.822 63.628 306.238 62.764C306.654 61.9 307.225 61.244 307.95 60.796C308.675 60.3373 309.497 60.108 310.414 60.108C311.342 60.108 312.163 60.3373 312.878 60.796C313.603 61.244 314.174 61.9 314.59 62.764C315.006 63.628 315.214 64.6733 315.214 65.9C315.214 67.1267 315.006 68.172 314.59 69.036C314.174 69.9 313.603 70.5613 312.878 71.02C312.163 71.468 311.342 71.692 310.414 71.692ZM310.414 69.5C310.851 69.5 311.23 69.3773 311.55 69.132C311.881 68.8867 312.137 68.4973 312.318 67.964C312.51 67.4307 312.606 66.7427 312.606 65.9C312.606 65.0573 312.51 64.3693 312.318 63.836C312.137 63.3027 311.881 62.9133 311.55 62.668C311.23 62.4227 310.851 62.3 310.414 62.3C309.987 62.3 309.609 62.4227 309.278 62.668C308.958 62.9133 308.702 63.3027 308.51 63.836C308.329 64.3693 308.238 65.0573 308.238 65.9C308.238 66.7427 308.329 67.4307 308.51 67.964C308.702 68.4973 308.958 68.8867 309.278 69.132C309.609 69.3773 309.987 69.5 310.414 69.5Z" fill="#FCFBFB"/>
</g>
<defs>
<filter id="filter0_i_10_25670" x="54.6667" y="56.6667" width="16.6667" height="17.6668" filterUnits="userSpaceOnUse" color-interpolation-filters="sRGB">
<feFlood flood-opacity="0" result="BackgroundImageFix"/>
<feBlend mode="normal" in="SourceGraphic" in2="BackgroundImageFix" result="shape"/>
<feColorMatrix in="SourceAlpha" type="matrix" values="0 0 0 0 0 0 0 0 0 0 0 0 0 0 0 0 0 0 127 0" result="hardAlpha"/>
<feOffset dy="-1"/>
<feGaussianBlur stdDeviation="1.5"/>
<feComposite in2="hardAlpha" operator="arithmetic" k2="-1" k3="1"/>
<feColorMatrix type="matrix" values="0 0 0 0 0 0 0 0 0 0 0 0 0 0 0 0 0 0 0.45 0"/>
<feBlend mode="normal" in2="shape" result="effect1_innerShadow_10_25670"/>
</filter>
<filter id="filter1_d_10_25670" x="183" y="0" width="189" height="102" filterUnits="userSpaceOnUse" color-interpolation-filters="sRGB">
<feFlood flood-opacity="0" result="BackgroundImageFix"/>
<feColorMatrix in="SourceAlpha" type="matrix" values="0 0 0 0 0 0 0 0 0 0 0 0 0 0 0 0 0 0 127 0" result="hardAlpha"/>
<feOffset/>
<feGaussianBlur stdDeviation="3"/>
<feComposite in2="hardAlpha" operator="out"/>
<feColorMatrix type="matrix" values="0 0 0 0 1 0 0 0 0 0.831373 0 0 0 0 0.160784 0 0 0 0.3 0"/>
<feBlend mode="normal" in2="BackgroundImageFix" result="effect1_dropShadow_10_25670"/>
<feBlend mode="normal" in="SourceGraphic" in2="effect1_dropShadow_10_25670" result="shape"/>
</filter>
<filter id="filter2_i_10_25670" x="240.667" y="56.6667" width="16.6667" height="17.6668" filterUnits="userSpaceOnUse" color-interpolation-filters="sRGB">
<feFlood flood-opacity="0" result="BackgroundImageFix"/>
<feBlend mode="normal" in="SourceGraphic" in2="BackgroundImageFix" result="shape"/>
<feColorMatrix in="SourceAlpha" type="matrix" values="0 0 0 0 0 0 0 0 0 0 0 0 0 0 0 0 0 0 127 0" result="hardAlpha"/>
<feOffset dy="-1"/>
<feGaussianBlur stdDeviation="1.5"/>
<feComposite in2="hardAlpha" operator="arithmetic" k2="-1" k3="1"/>
<feColorMatrix type="matrix" values="0 0 0 0 0 0 0 0 0 0 0 0 0 0 0 0 0 0 0.45 0"/>
<feBlend mode="normal" in2="shape" result="effect1_innerShadow_10_25670"/>
</filter>
</defs>
</svg>
