<svg width="195" height="72" viewBox="0 0 195 72" fill="none" xmlns="http://www.w3.org/2000/svg">
<path d="M93.8264 10.1944C93.9279 10.1124 94.0464 10.0541 94.1732 10.0238C94.3001 9.99356 94.4321 9.99203 94.5597 10.0194L106.81 12.6428C107.006 12.6852 107.181 12.7932 107.306 12.9489C107.432 13.1046 107.5 13.2986 107.5 13.4986V34.4998C107.5 34.7 107.431 34.8942 107.306 35.05C107.18 35.2057 107.004 35.3136 106.809 35.3556L94.5579 37.9808C94.4307 38.0079 94.2991 38.0062 94.1726 37.976C94.0461 37.9458 93.9279 37.8877 93.8267 37.8061C93.7254 37.7245 93.6437 37.6213 93.5873 37.5041C93.5309 37.3869 93.5014 37.2586 93.5009 37.1285V10.8769C93.5009 10.7463 93.5302 10.6174 93.5865 10.4996C93.6428 10.3818 93.7248 10.2781 93.8264 10.1961M99.6298 24.001C99.6298 23.6528 99.4915 23.319 99.2453 23.0728C98.9992 22.8267 98.6653 22.6884 98.3172 22.6884C97.9691 22.6884 97.6352 22.8267 97.389 23.0728C97.1429 23.319 97.0046 23.6528 97.0046 24.001C97.0046 24.3491 97.1429 24.6829 97.389 24.9291C97.6352 25.1752 97.9691 25.3135 98.3172 25.3135C98.6653 25.3135 98.9992 25.1752 99.2453 24.9291C99.4915 24.6829 99.6298 24.3491 99.6298 24.001ZM91.7543 11.7537H83.8753C83.6432 11.7537 83.4206 11.8459 83.2565 12.01C83.0924 12.1741 83.0002 12.3967 83.0002 12.6288V35.3714C83.0002 35.6035 83.0924 35.826 83.2565 35.9902C83.4206 36.1543 83.6432 36.2464 83.8753 36.2464H91.7543V11.7537Z" fill="white"/>
<path d="M71.236 56.304H69.484V60H68.308V51.6H69.484V55.248H71.26L73.9 51.6H75.184L72.184 55.668L75.328 60H73.96L71.236 56.304ZM79.008 60.072C78.376 60.072 77.808 59.932 77.304 59.652C76.8 59.372 76.404 58.988 76.116 58.5C75.836 58.004 75.696 57.444 75.696 56.82C75.696 56.196 75.836 55.64 76.116 55.152C76.404 54.656 76.8 54.272 77.304 54C77.808 53.72 78.376 53.58 79.008 53.58C79.64 53.58 80.204 53.72 80.7 54C81.204 54.272 81.596 54.656 81.876 55.152C82.164 55.64 82.308 56.196 82.308 56.82C82.308 57.444 82.164 58.004 81.876 58.5C81.596 58.988 81.204 59.372 80.7 59.652C80.204 59.932 79.64 60.072 79.008 60.072ZM79.008 59.064C79.416 59.064 79.78 58.972 80.1 58.788C80.428 58.596 80.684 58.332 80.868 57.996C81.052 57.652 81.144 57.26 81.144 56.82C81.144 56.38 81.052 55.992 80.868 55.656C80.684 55.312 80.428 55.048 80.1 54.864C79.78 54.68 79.416 54.588 79.008 54.588C78.6 54.588 78.232 54.68 77.904 54.864C77.584 55.048 77.328 55.312 77.136 55.656C76.952 55.992 76.86 56.38 76.86 56.82C76.86 57.26 76.952 57.652 77.136 57.996C77.328 58.332 77.584 58.596 77.904 58.788C78.232 58.972 78.6 59.064 79.008 59.064ZM91.3035 53.64V60H90.2595V55.356L87.8835 59.28H87.3795L85.0275 55.344V60H83.9715V53.64H85.1595L87.6555 57.936L90.2235 53.64H91.3035ZM93.5457 53.64H94.6977V56.34H98.3217V53.64H99.4737V60H98.3217V57.336H94.6977V60H93.5457V53.64ZM103.982 53.58C104.862 53.58 105.534 53.796 105.998 54.228C106.47 54.66 106.706 55.304 106.706 56.16V60H105.614V59.16C105.422 59.456 105.146 59.684 104.786 59.844C104.434 59.996 104.014 60.072 103.526 60.072C102.814 60.072 102.242 59.9 101.81 59.556C101.386 59.212 101.174 58.76 101.174 58.2C101.174 57.64 101.378 57.192 101.786 56.856C102.194 56.512 102.842 56.34 103.73 56.34H105.554V56.112C105.554 55.616 105.41 55.236 105.122 54.972C104.834 54.708 104.41 54.576 103.85 54.576C103.474 54.576 103.106 54.64 102.746 54.768C102.386 54.888 102.082 55.052 101.834 55.26L101.354 54.396C101.682 54.132 102.074 53.932 102.53 53.796C102.986 53.652 103.47 53.58 103.982 53.58ZM103.718 59.184C104.158 59.184 104.538 59.088 104.858 58.896C105.178 58.696 105.41 58.416 105.554 58.056V57.168H103.778C102.802 57.168 102.314 57.496 102.314 58.152C102.314 58.472 102.438 58.724 102.686 58.908C102.934 59.092 103.278 59.184 103.718 59.184ZM113.52 54.648H111.192V60H110.04V54.648H107.712V53.64H113.52V54.648ZM117.566 55.8C118.366 55.808 118.978 55.992 119.402 56.352C119.826 56.712 120.038 57.22 120.038 57.876C120.038 58.564 119.806 59.096 119.342 59.472C118.886 59.84 118.23 60.02 117.374 60.012L114.698 60V53.64H115.85V55.788L117.566 55.8ZM120.986 53.64H122.138V60H120.986V53.64ZM117.29 59.136C117.81 59.144 118.202 59.04 118.466 58.824C118.738 58.608 118.874 58.288 118.874 57.864C118.874 57.448 118.742 57.144 118.478 56.952C118.214 56.76 117.818 56.66 117.29 56.652L115.85 56.628V59.124L117.29 59.136Z" fill="white"/>
</svg>
