<svg width="55" height="60" viewBox="0 0 55 60" fill="none" xmlns="http://www.w3.org/2000/svg">
<g filter="url(#filter0_d_94_9313)">
<path opacity="0.3" d="M8.1357 8.28563L46.3643 8.28562C47.1264 8.28562 47.75 8.92878 47.75 9.71478L47.75 33.2307C47.4532 33.6939 46.9435 34 46.3643 34L8.1357 34C7.55708 34 7.04741 33.6939 6.75 33.2307L6.75 9.71478C6.7506 8.92878 7.37419 8.28563 8.1357 8.28563Z" fill="#383838"/>
<path d="M47.75 32.2864C47.75 33.0718 47.127 33.7143 46.3643 33.7143L8.1357 33.7143C7.37419 33.7143 6.75 33.0718 6.75 32.2864L6.75 5.42916C6.75 4.64315 7.37359 4 8.1357 4L46.3643 4C47.1264 4 47.75 4.64315 47.75 5.42916L47.75 32.2864Z" fill="white"/>
<path d="M26.3428 16.7499C26.3428 17.7431 26.7949 17.9589 27.0612 18.3009C26.4208 17.8235 26.2817 16.9843 24.9799 16.9843C23.9768 16.9843 23.1631 17.8228 23.1631 18.8574C23.1631 19.8914 23.9768 20.73 24.9799 20.73C26.2997 20.73 26.4232 19.8667 27.0881 19.3936C26.8273 19.7628 26.3428 19.9366 26.3428 20.965C26.3428 21.9996 27.1553 22.8382 28.1578 22.8382C29.1616 22.8382 29.9752 21.999 29.9752 20.965C29.9752 19.7152 29.2587 19.696 29.0992 19.106C30.8819 20.0126 30.9184 19.9774 31.337 20.965L31.337 16.7499C30.9184 17.7369 30.8813 17.7029 29.0962 18.6101C29.2491 17.9873 29.9752 18.0071 29.9752 16.7499C29.9752 15.7153 29.1616 14.8767 28.1578 14.8767C27.1553 14.8761 26.3428 15.7153 26.3428 16.7499Z" fill="#383838"/>
<path d="M8.8103 31.6432L12.8079 30.48L12.8079 30.9828L12.1639 31.159L12.1639 32.1299L12.8079 32.3031L12.8079 32.8058L8.8103 31.6432ZM11.7346 31.274L10.7332 31.5424L10.2716 31.6457L10.7332 31.7434L11.7346 32.0143L11.7346 31.274Z" fill="#383838"/>
<path d="M45.6903 6.07169L41.6921 7.23431L41.6921 6.73216L42.3367 6.55591L42.3367 5.58438L41.6921 5.41122L41.6921 4.90845L45.6903 6.07169ZM42.7654 6.44089L43.7668 6.1725L44.2291 6.06922L43.7668 5.97213L42.7654 5.70064L42.7654 6.44089Z" fill="#383838"/>
<path d="M15.073 31.0112C15.073 31.342 15.2236 31.4144 15.3123 31.5288C15.0989 31.3692 15.0521 31.0897 14.6185 31.0897C14.284 31.0897 14.0129 31.3686 14.0129 31.7143C14.0129 32.0594 14.284 32.3389 14.6185 32.3389C15.0587 32.3389 15.1 32.0507 15.3213 31.893C15.2343 32.0155 15.073 32.0742 15.073 32.4168C15.073 32.7619 15.3435 33.0414 15.6781 33.0414C16.0133 33.0414 16.2843 32.7619 16.2843 32.4168C16.2843 32 16.045 31.9938 15.9923 31.7978C16.5859 32.0996 16.5991 32.0885 16.7388 32.4168L16.7388 31.0118C16.5991 31.3414 16.5859 31.3297 15.9917 31.6321C16.0426 31.4249 16.2843 31.4311 16.2843 31.0118C16.2843 30.6667 16.0133 30.3878 15.6781 30.3878C15.3435 30.3872 15.073 30.6667 15.073 31.0112Z" fill="#383838"/>
<path d="M39.4282 6.7031C39.4282 6.37225 39.2771 6.30052 39.1883 6.18611C39.4024 6.34504 39.4486 6.62457 39.8827 6.62457C40.2167 6.62457 40.4883 6.34566 40.4883 6.00059C40.4883 5.65551 40.2167 5.37598 39.8827 5.37598C39.4426 5.37598 39.4012 5.66355 39.1799 5.82186C39.2669 5.6988 39.4282 5.64067 39.4282 5.29806C39.4282 4.95237 39.1571 4.67284 38.8226 4.67284C38.4874 4.67284 38.2164 4.95237 38.2164 5.29806C38.2164 5.71426 38.4556 5.72106 38.5084 5.9171C37.9148 5.61593 37.9022 5.62706 37.7625 5.29806L37.7625 6.70249C37.9022 6.37287 37.9147 6.38462 38.509 6.08283C38.4586 6.29062 38.2164 6.2832 38.2164 6.70249C38.2164 7.04818 38.4874 7.32709 38.8226 7.32709C39.1571 7.32709 39.4282 7.04818 39.4282 6.7031Z" fill="#383838"/>
</g>
<g filter="url(#filter1_d_94_9313)">
<path d="M36.2813 18.5L44.25 11L44.25 15.5L50.1493 15.5L50.1493 21.5L44.25 21.5L44.25 26L36.2813 18.5Z" fill="#FEBF21"/>
</g>
<g filter="url(#filter2_d_94_9313)">
<path d="M18.2187 18.5L10.25 11L10.25 15.5L4.35069 15.5L4.35069 21.5L10.25 21.5L10.25 26L18.2187 18.5Z" fill="#FEBF21"/>
</g>
<path d="M12.6852 58.08C11.9852 58.08 11.3519 57.9267 10.7852 57.62C10.2252 57.3067 9.78523 56.88 9.46523 56.34C9.14523 55.7933 8.98523 55.18 8.98523 54.5C8.98523 53.82 9.14523 53.21 9.46523 52.67C9.78523 52.1233 10.2286 51.6967 10.7952 51.39C11.3619 51.0767 11.9952 50.92 12.6952 50.92C13.2419 50.92 13.7419 51.0133 14.1952 51.2C14.6486 51.38 15.0352 51.65 15.3552 52.01L14.7052 52.64C14.1786 52.0867 13.5219 51.81 12.7352 51.81C12.2152 51.81 11.7452 51.9267 11.3252 52.16C10.9052 52.3933 10.5752 52.7167 10.3352 53.13C10.1019 53.5367 9.98523 53.9933 9.98523 54.5C9.98523 55.0067 10.1019 55.4667 10.3352 55.88C10.5752 56.2867 10.9052 56.6067 11.3252 56.84C11.7452 57.0733 12.2152 57.19 12.7352 57.19C13.5152 57.19 14.1719 56.91 14.7052 56.35L15.3552 56.98C15.0352 57.34 14.6452 57.6133 14.1852 57.8C13.7319 57.9867 13.2319 58.08 12.6852 58.08ZM18.3784 58.06C17.8517 58.06 17.3784 57.9433 16.9584 57.71C16.5384 57.4767 16.2084 57.1567 15.9684 56.75C15.735 56.3367 15.6184 55.87 15.6184 55.35C15.6184 54.83 15.735 54.3667 15.9684 53.96C16.2084 53.5467 16.5384 53.2267 16.9584 53C17.3784 52.7667 17.8517 52.65 18.3784 52.65C18.905 52.65 19.375 52.7667 19.7884 53C20.2084 53.2267 20.535 53.5467 20.7684 53.96C21.0084 54.3667 21.1284 54.83 21.1284 55.35C21.1284 55.87 21.0084 56.3367 20.7684 56.75C20.535 57.1567 20.2084 57.4767 19.7884 57.71C19.375 57.9433 18.905 58.06 18.3784 58.06ZM18.3784 57.22C18.7184 57.22 19.0217 57.1433 19.2884 56.99C19.5617 56.83 19.775 56.61 19.9284 56.33C20.0817 56.0433 20.1584 55.7167 20.1584 55.35C20.1584 54.9833 20.0817 54.66 19.9284 54.38C19.775 54.0933 19.5617 53.8733 19.2884 53.72C19.0217 53.5667 18.7184 53.49 18.3784 53.49C18.0384 53.49 17.7317 53.5667 17.4584 53.72C17.1917 53.8733 16.9784 54.0933 16.8184 54.38C16.665 54.66 16.5884 54.9833 16.5884 55.35C16.5884 55.7167 16.665 56.0433 16.8184 56.33C16.9784 56.61 17.1917 56.83 17.4584 56.99C17.7317 57.1433 18.0384 57.22 18.3784 57.22ZM24.5846 58.06C24.0446 58.06 23.5613 57.9433 23.1346 57.71C22.7146 57.4767 22.3846 57.1567 22.1446 56.75C21.9046 56.3367 21.7846 55.87 21.7846 55.35C21.7846 54.83 21.9046 54.3667 22.1446 53.96C22.3846 53.5467 22.7146 53.2267 23.1346 53C23.5613 52.7667 24.0446 52.65 24.5846 52.65C25.0646 52.65 25.4913 52.7467 25.8646 52.94C26.2446 53.1333 26.5379 53.4133 26.7446 53.78L26.0146 54.25C25.8479 53.9967 25.6413 53.8067 25.3946 53.68C25.1479 53.5533 24.8746 53.49 24.5746 53.49C24.2279 53.49 23.9146 53.5667 23.6346 53.72C23.3613 53.8733 23.1446 54.0933 22.9846 54.38C22.8313 54.66 22.7546 54.9833 22.7546 55.35C22.7546 55.7233 22.8313 56.0533 22.9846 56.34C23.1446 56.62 23.3613 56.8367 23.6346 56.99C23.9146 57.1433 24.2279 57.22 24.5746 57.22C24.8746 57.22 25.1479 57.1567 25.3946 57.03C25.6413 56.9033 25.8479 56.7133 26.0146 56.46L26.7446 56.92C26.5379 57.2867 26.2446 57.57 25.8646 57.77C25.4913 57.9633 25.0646 58.06 24.5846 58.06ZM32.4594 55.38C32.4594 55.4533 32.4527 55.55 32.4394 55.67H28.1394C28.1994 56.1367 28.4027 56.5133 28.7494 56.8C29.1027 57.08 29.5394 57.22 30.0594 57.22C30.6927 57.22 31.2027 57.0067 31.5894 56.58L32.1194 57.2C31.8794 57.48 31.5794 57.6933 31.2194 57.84C30.866 57.9867 30.4694 58.06 30.0294 58.06C29.4694 58.06 28.9727 57.9467 28.5394 57.72C28.106 57.4867 27.7694 57.1633 27.5294 56.75C27.296 56.3367 27.1794 55.87 27.1794 55.35C27.1794 54.8367 27.2927 54.3733 27.5194 53.96C27.7527 53.5467 28.0694 53.2267 28.4694 53C28.876 52.7667 29.3327 52.65 29.8394 52.65C30.346 52.65 30.796 52.7667 31.1894 53C31.5894 53.2267 31.8994 53.5467 32.1194 53.96C32.346 54.3733 32.4594 54.8467 32.4594 55.38ZM29.8394 53.46C29.3794 53.46 28.9927 53.6 28.6794 53.88C28.3727 54.16 28.1927 54.5267 28.1394 54.98H31.5394C31.486 54.5333 31.3027 54.17 30.9894 53.89C30.6827 53.6033 30.2994 53.46 29.8394 53.46ZM39.0108 57.16V59.23H38.1108V58H33.6808V59.23H32.7708V57.16H33.0508C33.3908 57.14 33.6241 56.9 33.7508 56.44C33.8774 55.98 33.9641 55.33 34.0108 54.49L34.0908 52.7H38.2008V57.16H39.0108ZM34.8908 54.56C34.8641 55.2267 34.8074 55.78 34.7208 56.22C34.6408 56.6533 34.4908 56.9667 34.2708 57.16H37.2408V53.54H34.9408L34.8908 54.56ZM40.0214 52.7H40.9814V56.56L44.2314 52.7H45.1014V58H44.1414V54.14L40.9014 58H40.0214V52.7Z" fill="#111111"/>
<defs>
<filter id="filter0_d_94_9313" x="2.75" y="0" width="49" height="38" filterUnits="userSpaceOnUse" color-interpolation-filters="sRGB">
<feFlood flood-opacity="0" result="BackgroundImageFix"/>
<feColorMatrix in="SourceAlpha" type="matrix" values="0 0 0 0 0 0 0 0 0 0 0 0 0 0 0 0 0 0 127 0" result="hardAlpha"/>
<feOffset/>
<feGaussianBlur stdDeviation="2"/>
<feComposite in2="hardAlpha" operator="out"/>
<feColorMatrix type="matrix" values="0 0 0 0 0 0 0 0 0 0 0 0 0 0 0 0 0 0 0.25 0"/>
<feBlend mode="normal" in2="BackgroundImageFix" result="effect1_dropShadow_94_9313"/>
<feBlend mode="normal" in="SourceGraphic" in2="effect1_dropShadow_94_9313" result="shape"/>
</filter>
<filter id="filter1_d_94_9313" x="32.2812" y="7" width="21.8682" height="23" filterUnits="userSpaceOnUse" color-interpolation-filters="sRGB">
<feFlood flood-opacity="0" result="BackgroundImageFix"/>
<feColorMatrix in="SourceAlpha" type="matrix" values="0 0 0 0 0 0 0 0 0 0 0 0 0 0 0 0 0 0 127 0" result="hardAlpha"/>
<feOffset/>
<feGaussianBlur stdDeviation="2"/>
<feComposite in2="hardAlpha" operator="out"/>
<feColorMatrix type="matrix" values="0 0 0 0 0 0 0 0 0 0 0 0 0 0 0 0 0 0 0.25 0"/>
<feBlend mode="normal" in2="BackgroundImageFix" result="effect1_dropShadow_94_9313"/>
<feBlend mode="normal" in="SourceGraphic" in2="effect1_dropShadow_94_9313" result="shape"/>
</filter>
<filter id="filter2_d_94_9313" x="0.350586" y="7" width="21.8682" height="23" filterUnits="userSpaceOnUse" color-interpolation-filters="sRGB">
<feFlood flood-opacity="0" result="BackgroundImageFix"/>
<feColorMatrix in="SourceAlpha" type="matrix" values="0 0 0 0 0 0 0 0 0 0 0 0 0 0 0 0 0 0 127 0" result="hardAlpha"/>
<feOffset/>
<feGaussianBlur stdDeviation="2"/>
<feComposite in2="hardAlpha" operator="out"/>
<feColorMatrix type="matrix" values="0 0 0 0 0 0 0 0 0 0 0 0 0 0 0 0 0 0 0.25 0"/>
<feBlend mode="normal" in2="BackgroundImageFix" result="effect1_dropShadow_94_9313"/>
<feBlend mode="normal" in="SourceGraphic" in2="effect1_dropShadow_94_9313" result="shape"/>
</filter>
</defs>
</svg>
