<svg width="326" height="52" viewBox="0 0 326 52" fill="none" xmlns="http://www.w3.org/2000/svg">
<rect width="326" height="52" rx="16" fill="#FEBF21"/>
<path d="M127.497 20.8V32H124.921V22.912H119.865V32H117.289V20.8H127.497ZM133.874 32.128C132.967 32.128 132.151 31.9413 131.426 31.568C130.711 31.184 130.151 30.656 129.746 29.984C129.341 29.312 129.138 28.5493 129.138 27.696C129.138 26.8427 129.341 26.08 129.746 25.408C130.151 24.736 130.711 24.2133 131.426 23.84C132.151 23.456 132.967 23.264 133.874 23.264C134.781 23.264 135.591 23.456 136.306 23.84C137.021 24.2133 137.581 24.736 137.986 25.408C138.391 26.08 138.594 26.8427 138.594 27.696C138.594 28.5493 138.391 29.312 137.986 29.984C137.581 30.656 137.021 31.184 136.306 31.568C135.591 31.9413 134.781 32.128 133.874 32.128ZM133.874 30.08C134.514 30.08 135.037 29.8667 135.442 29.44C135.858 29.0027 136.066 28.4213 136.066 27.696C136.066 26.9707 135.858 26.3947 135.442 25.968C135.037 25.5307 134.514 25.312 133.874 25.312C133.234 25.312 132.706 25.5307 132.29 25.968C131.874 26.3947 131.666 26.9707 131.666 27.696C131.666 28.4213 131.874 29.0027 132.29 29.44C132.706 29.8667 133.234 30.08 133.874 30.08ZM148.631 23.392V32H146.135V25.44H142.551V32H140.071V23.392H148.631ZM154.816 32.128C153.909 32.128 153.093 31.9413 152.368 31.568C151.653 31.184 151.093 30.656 150.688 29.984C150.282 29.312 150.08 28.5493 150.08 27.696C150.08 26.8427 150.282 26.08 150.688 25.408C151.093 24.736 151.653 24.2133 152.368 23.84C153.093 23.456 153.909 23.264 154.816 23.264C155.722 23.264 156.533 23.456 157.248 23.84C157.962 24.2133 158.522 24.736 158.928 25.408C159.333 26.08 159.536 26.8427 159.536 27.696C159.536 28.5493 159.333 29.312 158.928 29.984C158.522 30.656 157.962 31.184 157.248 31.568C156.533 31.9413 155.722 32.128 154.816 32.128ZM154.816 30.08C155.456 30.08 155.978 29.8667 156.384 29.44C156.8 29.0027 157.008 28.4213 157.008 27.696C157.008 26.9707 156.8 26.3947 156.384 25.968C155.978 25.5307 155.456 25.312 154.816 25.312C154.176 25.312 153.648 25.5307 153.232 25.968C152.816 26.3947 152.608 26.9707 152.608 27.696C152.608 28.4213 152.816 29.0027 153.232 29.44C153.648 29.8667 154.176 30.08 154.816 30.08ZM169.144 23.392V32H166.648V25.44H163.928L163.848 26.96C163.805 28.0907 163.698 29.0293 163.528 29.776C163.357 30.5227 163.08 31.1093 162.696 31.536C162.312 31.9627 161.778 32.176 161.096 32.176C160.733 32.176 160.301 32.112 159.8 31.984L159.928 29.936C160.098 29.9573 160.221 29.968 160.296 29.968C160.669 29.968 160.946 29.8347 161.128 29.568C161.32 29.2907 161.448 28.944 161.512 28.528C161.576 28.1013 161.624 27.5413 161.656 26.848L161.784 23.392H169.144ZM171.304 23.392H173.784V26.752H177.528V23.392H180.024V32H177.528V28.784H173.784V32H171.304V23.392ZM182.173 23.392H184.653V28.512L188.845 23.392H191.133V32H188.653V26.88L184.477 32H182.173V23.392ZM200.524 25.44H197.612V32H195.132V25.44H192.22V23.392H200.524V25.44ZM206.271 26.144C207.391 26.1547 208.25 26.4107 208.847 26.912C209.444 27.4027 209.743 28.1013 209.743 29.008C209.743 29.9573 209.407 30.6987 208.735 31.232C208.074 31.7547 207.14 32.016 205.935 32.016L201.615 32V23.392H204.095V26.144H206.271ZM205.711 30.24C206.191 30.2507 206.559 30.1493 206.815 29.936C207.071 29.7227 207.199 29.4027 207.199 28.976C207.199 28.56 207.071 28.256 206.815 28.064C206.57 27.872 206.202 27.7707 205.711 27.76L204.095 27.744V30.24H205.711Z" fill="#1B1A1A"/>
</svg>
