<svg width="169" height="72" viewBox="0 0 169 72" fill="none" xmlns="http://www.w3.org/2000/svg">
<path d="M0 12C0 5.37258 5.37258 0 12 0H72V72H12C5.37258 72 0 66.6274 0 60V12Z" fill="#3B403F" fill-opacity="0.6"/>
<g filter="url(#filter0_d_6_25497)">
<path opacity="0.3" d="M46.7144 9.3857V47.6143C46.7144 48.3764 46.0712 49 45.2852 49H21.7693C21.3061 48.7032 21 48.1935 21 47.6143V9.3857C21 8.80708 21.3061 8.29741 21.7693 8H45.2852C46.0712 8.0006 46.7144 8.62419 46.7144 9.3857Z" fill="#383838"/>
<path d="M22.7136 49C21.9282 49 21.2856 48.377 21.2856 47.6143V9.3857C21.2856 8.62419 21.9282 8 22.7136 8H49.5708C50.3568 8 50.9999 8.6236 50.9999 9.3857V47.6143C50.9999 48.3764 50.3568 49 49.5708 49H22.7136Z" fill="white"/>
<path d="M38.2502 27.5928C37.257 27.5928 37.0412 28.0449 36.6992 28.3112C37.1766 27.6708 38.0158 27.5317 38.0158 26.2299C38.0158 25.2268 37.1772 24.4131 36.1426 24.4131C35.1086 24.4131 34.27 25.2268 34.27 26.2299C34.27 27.5497 35.1334 27.6732 35.6064 28.3381C35.2373 28.0773 35.0635 27.5928 34.035 27.5928C33.0004 27.5928 32.1619 28.4053 32.1619 29.4078C32.1619 30.4116 33.0011 31.2252 34.035 31.2252C35.2849 31.2252 35.304 30.5087 35.894 30.3492C34.9874 32.1319 35.0227 32.1684 34.035 32.587H38.2502C37.2632 32.1684 37.2972 32.1313 36.39 30.3462C37.0127 30.4991 36.9929 31.2252 38.2502 31.2252C39.2848 31.2252 40.1234 30.4116 40.1234 29.4078C40.124 28.4053 39.2848 27.5928 38.2502 27.5928Z" fill="#383838"/>
<path d="M23.3567 10.0602L24.52 14.0578H24.0172L23.8409 13.4138H22.87L22.6969 14.0578H22.1941L23.3567 10.0602ZM23.7259 12.9845L23.4575 11.9832L23.3542 11.5215L23.2565 11.9832L22.9857 12.9845H23.7259Z" fill="#383838"/>
<path d="M48.9282 46.9404L47.7656 42.9422H48.2678L48.444 43.5867H49.4156L49.5887 42.9422H50.0915L48.9282 46.9404ZM48.5591 44.0155L48.8274 45.0168L48.9307 45.4791L49.0278 45.0168L49.2993 44.0155H48.5591Z" fill="#383838"/>
<path d="M23.9888 16.3232C23.6579 16.3232 23.5856 16.4737 23.4711 16.5624C23.6307 16.349 23.9102 16.3022 23.9102 15.8687C23.9102 15.5341 23.6313 15.2631 23.2856 15.2631C22.9405 15.2631 22.661 15.5341 22.661 15.8687C22.661 16.3088 22.9492 16.3502 23.1069 16.5714C22.9845 16.4845 22.9257 16.3232 22.5831 16.3232C22.238 16.3232 21.9585 16.5936 21.9585 16.9282C21.9585 17.2634 22.238 17.5344 22.5831 17.5344C22.9999 17.5344 23.0061 17.2951 23.2021 17.2424C22.9003 17.836 22.9115 17.8492 22.5831 17.9889H23.9881C23.6585 17.8492 23.6703 17.836 23.3679 17.2418C23.575 17.2928 23.5689 17.5344 23.9881 17.5344C24.3332 17.5344 24.6121 17.2634 24.6121 16.9282C24.6127 16.5936 24.3332 16.3232 23.9888 16.3232Z" fill="#383838"/>
<path d="M48.2968 40.678C48.6277 40.678 48.6994 40.5269 48.8138 40.4382C48.6549 40.6523 48.3754 40.6984 48.3754 41.1325C48.3754 41.4665 48.6543 41.7382 48.9994 41.7382C49.3444 41.7382 49.624 41.4665 49.624 41.1325C49.624 40.6924 49.3364 40.6511 49.1781 40.4298C49.3011 40.5168 49.3593 40.678 49.7019 40.678C50.0476 40.678 50.3271 40.407 50.3271 40.0724C50.3271 39.7373 50.0476 39.4662 49.7019 39.4662C49.2857 39.4662 49.2789 39.7055 49.0828 39.7583C49.384 39.1646 49.3729 39.152 49.7019 39.0123H48.2975C48.6271 39.152 48.6153 39.1646 48.9171 39.7588C48.7093 39.7085 48.7167 39.4662 48.2975 39.4662C47.9518 39.4662 47.6729 39.7373 47.6729 40.0724C47.6729 40.407 47.9518 40.678 48.2968 40.678Z" fill="#383838"/>
<g clip-path="url(#clip0_6_25497)">
<path d="M37.0788 24.7644L37.5788 24.7644L37.5788 24.2644L37.5788 18.3627L48.5356 28.9863L37.5788 39.6099L37.5788 33.7082L37.5788 33.2082L37.0788 33.2082L24.5921 33.2082L24.5921 24.7644L37.0788 24.7644Z" fill="#383838" stroke="white"/>
</g>
</g>
<path d="M16.6112 56V63H15.6312V56.87H11.5712V63H10.5812V56H16.6112ZM20.6641 63.06C20.1375 63.06 19.6641 62.9433 19.2441 62.71C18.8241 62.4767 18.4941 62.1567 18.2541 61.75C18.0208 61.3367 17.9041 60.87 17.9041 60.35C17.9041 59.83 18.0208 59.3667 18.2541 58.96C18.4941 58.5467 18.8241 58.2267 19.2441 58C19.6641 57.7667 20.1375 57.65 20.6641 57.65C21.1908 57.65 21.6608 57.7667 22.0741 58C22.4941 58.2267 22.8208 58.5467 23.0541 58.96C23.2941 59.3667 23.4141 59.83 23.4141 60.35C23.4141 60.87 23.2941 61.3367 23.0541 61.75C22.8208 62.1567 22.4941 62.4767 22.0741 62.71C21.6608 62.9433 21.1908 63.06 20.6641 63.06ZM20.6641 62.22C21.0041 62.22 21.3075 62.1433 21.5741 61.99C21.8475 61.83 22.0608 61.61 22.2141 61.33C22.3675 61.0433 22.4441 60.7167 22.4441 60.35C22.4441 59.9833 22.3675 59.66 22.2141 59.38C22.0608 59.0933 21.8475 58.8733 21.5741 58.72C21.3075 58.5667 21.0041 58.49 20.6641 58.49C20.3241 58.49 20.0175 58.5667 19.7441 58.72C19.4775 58.8733 19.2641 59.0933 19.1041 59.38C18.9508 59.66 18.8741 59.9833 18.8741 60.35C18.8741 60.7167 18.9508 61.0433 19.1041 61.33C19.2641 61.61 19.4775 61.83 19.7441 61.99C20.0175 62.1433 20.3241 62.22 20.6641 62.22ZM29.9113 62.16V64.23H29.0113V63H24.5813V64.23H23.6713V62.16H23.9513C24.2913 62.14 24.5247 61.9 24.6513 61.44C24.778 60.98 24.8647 60.33 24.9113 59.49L24.9913 57.7H29.1013V62.16H29.9113ZM25.7913 59.56C25.7647 60.2267 25.708 60.78 25.6213 61.22C25.5413 61.6533 25.3913 61.9667 25.1713 62.16H28.1413V58.54H25.8413L25.7913 59.56ZM32.982 60.76H31.882V63H30.922V57.7H31.882V59.94H33.002L34.722 57.7H35.752L33.742 60.25L35.892 63H34.762L32.982 60.76ZM36.6585 57.7H37.6185V61.56L40.8685 57.7H41.7385V63H40.7785V59.14L37.5385 63H36.6585V57.7ZM48.7519 62.16V64.23H47.8519V63H43.4219V64.23H42.5119V62.16H42.7919C43.1319 62.14 43.3652 61.9 43.4919 61.44C43.6185 60.98 43.7052 60.33 43.7519 59.49L43.8319 57.7H47.9419V62.16H48.7519ZM44.6319 59.56C44.6052 60.2267 44.5485 60.78 44.4619 61.22C44.3819 61.6533 44.2319 61.9667 44.0119 62.16H46.9819V58.54H44.6819L44.6319 59.56ZM49.7625 57.7H50.7225V59.95H53.7425V57.7H54.7025V63H53.7425V60.78H50.7225V63H49.7625V57.7ZM58.5991 63.06C58.0725 63.06 57.5991 62.9433 57.1791 62.71C56.7591 62.4767 56.4291 62.1567 56.1891 61.75C55.9558 61.3367 55.8391 60.87 55.8391 60.35C55.8391 59.83 55.9558 59.3667 56.1891 58.96C56.4291 58.5467 56.7591 58.2267 57.1791 58C57.5991 57.7667 58.0725 57.65 58.5991 57.65C59.1258 57.65 59.5958 57.7667 60.0091 58C60.4291 58.2267 60.7558 58.5467 60.9891 58.96C61.2291 59.3667 61.3491 59.83 61.3491 60.35C61.3491 60.87 61.2291 61.3367 60.9891 61.75C60.7558 62.1567 60.4291 62.4767 60.0091 62.71C59.5958 62.9433 59.1258 63.06 58.5991 63.06ZM58.5991 62.22C58.9391 62.22 59.2425 62.1433 59.5091 61.99C59.7825 61.83 59.9958 61.61 60.1491 61.33C60.3025 61.0433 60.3791 60.7167 60.3791 60.35C60.3791 59.9833 60.3025 59.66 60.1491 59.38C59.9958 59.0933 59.7825 58.8733 59.5091 58.72C59.2425 58.5667 58.9391 58.49 58.5991 58.49C58.2591 58.49 57.9525 58.5667 57.6791 58.72C57.4125 58.8733 57.1991 59.0933 57.0391 59.38C56.8858 59.66 56.8091 59.9833 56.8091 60.35C56.8091 60.7167 56.8858 61.0433 57.0391 61.33C57.1991 61.61 57.4125 61.83 57.6791 61.99C57.9525 62.1433 58.2591 62.22 58.5991 62.22ZM62.4954 57.7H63.4554V61.56L66.7054 57.7H67.5754V63H66.6154V59.14L63.3754 63H62.4954V57.7ZM64.9754 57.01C64.4821 57.01 64.0987 56.8933 63.8254 56.66C63.5521 56.42 63.4121 56.0767 63.4054 55.63H64.0554C64.0621 55.8767 64.1454 56.0767 64.3054 56.23C64.4721 56.3767 64.6921 56.45 64.9654 56.45C65.2387 56.45 65.4587 56.3767 65.6254 56.23C65.7921 56.0767 65.8787 55.8767 65.8854 55.63H66.5554C66.5487 56.0767 66.4054 56.42 66.1254 56.66C65.8454 56.8933 65.4621 57.01 64.9754 57.01Z" fill="white"/>
<path d="M72 0H132C138.627 0 144 5.37258 144 12V60C144 66.6274 138.627 72 132 72H72V0Z" fill="#FEBF21"/>
<g filter="url(#filter1_d_6_25497)">
<path opacity="0.3" d="M118.714 9.3857V47.6143C118.714 48.3764 118.071 49 117.285 49H93.7693C93.3061 48.7032 93 48.1935 93 47.6143V9.3857C93 8.80708 93.3061 8.29741 93.7693 8H117.285C118.071 8.0006 118.714 8.62419 118.714 9.3857Z" fill="#383838"/>
<path d="M94.7136 49C93.9282 49 93.2856 48.377 93.2856 47.6143V9.3857C93.2856 8.62419 93.9282 8 94.7136 8H121.571C122.357 8 123 8.6236 123 9.3857V47.6143C123 48.3764 122.357 49 121.571 49H94.7136Z" fill="white"/>
<path d="M110.25 27.5928C109.257 27.5928 109.041 28.0449 108.699 28.3112C109.177 27.6708 110.016 27.5317 110.016 26.2299C110.016 25.2268 109.177 24.4131 108.143 24.4131C107.109 24.4131 106.27 25.2268 106.27 26.2299C106.27 27.5497 107.133 27.6732 107.606 28.3381C107.237 28.0773 107.063 27.5928 106.035 27.5928C105 27.5928 104.162 28.4053 104.162 29.4078C104.162 30.4116 105.001 31.2252 106.035 31.2252C107.285 31.2252 107.304 30.5087 107.894 30.3492C106.987 32.1319 107.023 32.1684 106.035 32.587H110.25C109.263 32.1684 109.297 32.1313 108.39 30.3462C109.013 30.4991 108.993 31.2252 110.25 31.2252C111.285 31.2252 112.123 30.4116 112.123 29.4078C112.124 28.4053 111.285 27.5928 110.25 27.5928Z" fill="#383838"/>
<path d="M95.3567 10.0602L96.52 14.0578H96.0172L95.8409 13.4138H94.87L94.6969 14.0578H94.1941L95.3567 10.0602ZM95.7259 12.9845L95.4575 11.9832L95.3542 11.5215L95.2565 11.9832L94.9857 12.9845H95.7259Z" fill="#383838"/>
<path d="M120.928 46.9404L119.766 42.9422H120.268L120.444 43.5867H121.416L121.589 42.9422H122.091L120.928 46.9404ZM120.559 44.0155L120.827 45.0168L120.931 45.4791L121.028 45.0168L121.299 44.0155H120.559Z" fill="#383838"/>
<path d="M95.9888 16.3232C95.6579 16.3232 95.5856 16.4737 95.4711 16.5624C95.6307 16.349 95.9102 16.3022 95.9102 15.8687C95.9102 15.5341 95.6313 15.2631 95.2856 15.2631C94.9405 15.2631 94.661 15.5341 94.661 15.8687C94.661 16.3088 94.9492 16.3502 95.1069 16.5714C94.9845 16.4845 94.9257 16.3232 94.5831 16.3232C94.238 16.3232 93.9585 16.5936 93.9585 16.9282C93.9585 17.2634 94.238 17.5344 94.5831 17.5344C94.9999 17.5344 95.0061 17.2951 95.2021 17.2424C94.9003 17.836 94.9115 17.8492 94.5831 17.9889H95.9881C95.6585 17.8492 95.6703 17.836 95.3679 17.2418C95.575 17.2928 95.5689 17.5344 95.9881 17.5344C96.3332 17.5344 96.6121 17.2634 96.6121 16.9282C96.6127 16.5936 96.3332 16.3232 95.9888 16.3232Z" fill="#383838"/>
<path d="M120.297 40.678C120.628 40.678 120.699 40.5269 120.814 40.4382C120.655 40.6523 120.375 40.6984 120.375 41.1325C120.375 41.4665 120.654 41.7382 120.999 41.7382C121.344 41.7382 121.624 41.4665 121.624 41.1325C121.624 40.6924 121.336 40.6511 121.178 40.4298C121.301 40.5168 121.359 40.678 121.702 40.678C122.048 40.678 122.327 40.407 122.327 40.0724C122.327 39.7373 122.048 39.4662 121.702 39.4662C121.286 39.4662 121.279 39.7055 121.083 39.7583C121.384 39.1646 121.373 39.152 121.702 39.0123H120.297C120.627 39.152 120.615 39.1646 120.917 39.7588C120.709 39.7085 120.717 39.4662 120.297 39.4662C119.952 39.4662 119.673 39.7373 119.673 40.0724C119.673 40.407 119.952 40.678 120.297 40.678Z" fill="#383838"/>
<g clip-path="url(#clip1_6_25497)">
<path d="M116.613 20.8302C114.465 18.4805 111.339 16.9941 107.842 16.9941C101.352 16.9941 96.092 22.0941 96.092 28.3867H99.0295C99.0295 23.665 102.972 19.8423 107.842 19.8423C110.527 19.8423 112.909 21.0216 114.52 22.8595L111.757 25.5386H119.592V17.942L116.613 20.8302ZM107.842 36.9311C105.157 36.9311 102.775 35.7518 101.164 33.9139L103.927 31.2348H96.092V38.8314L99.0708 35.9432C101.219 38.2929 104.349 39.7793 107.842 39.7793C114.332 39.7793 119.592 34.6793 119.592 28.3867H116.654C116.654 33.1084 112.712 36.9311 107.842 36.9311Z" fill="#FEBF21"/>
</g>
</g>
<path d="M85.7186 56V63H84.7386V56.87H80.6786V63H79.6886V56H85.7186ZM92.2914 60.38C92.2914 60.4533 92.2848 60.55 92.2714 60.67H87.9714C88.0314 61.1367 88.2348 61.5133 88.5814 61.8C88.9348 62.08 89.3714 62.22 89.8914 62.22C90.5248 62.22 91.0348 62.0067 91.4214 61.58L91.9514 62.2C91.7114 62.48 91.4114 62.6933 91.0514 62.84C90.6981 62.9867 90.3014 63.06 89.8614 63.06C89.3014 63.06 88.8048 62.9467 88.3714 62.72C87.9381 62.4867 87.6014 62.1633 87.3614 61.75C87.1281 61.3367 87.0114 60.87 87.0114 60.35C87.0114 59.8367 87.1248 59.3733 87.3514 58.96C87.5848 58.5467 87.9014 58.2267 88.3014 58C88.7081 57.7667 89.1648 57.65 89.6714 57.65C90.1781 57.65 90.6281 57.7667 91.0214 58C91.4214 58.2267 91.7314 58.5467 91.9514 58.96C92.1781 59.3733 92.2914 59.8467 92.2914 60.38ZM89.6714 58.46C89.2114 58.46 88.8248 58.6 88.5114 58.88C88.2048 59.16 88.0248 59.5267 87.9714 59.98H91.3714C91.3181 59.5333 91.1348 59.17 90.8214 58.89C90.5148 58.6033 90.1314 58.46 89.6714 58.46ZM96.3507 57.65C96.8641 57.65 97.3241 57.7633 97.7307 57.99C98.1374 58.2167 98.4541 58.5333 98.6807 58.94C98.9141 59.3467 99.0307 59.8167 99.0307 60.35C99.0307 60.8833 98.9141 61.3567 98.6807 61.77C98.4541 62.1767 98.1374 62.4933 97.7307 62.72C97.3241 62.9467 96.8641 63.06 96.3507 63.06C95.9707 63.06 95.6207 62.9867 95.3007 62.84C94.9874 62.6933 94.7207 62.48 94.5007 62.2V64.94H93.5407V57.7H94.4607V58.54C94.6741 58.2467 94.9441 58.0267 95.2707 57.88C95.5974 57.7267 95.9574 57.65 96.3507 57.65ZM96.2707 62.22C96.6107 62.22 96.9141 62.1433 97.1807 61.99C97.4541 61.83 97.6674 61.61 97.8207 61.33C97.9807 61.0433 98.0607 60.7167 98.0607 60.35C98.0607 59.9833 97.9807 59.66 97.8207 59.38C97.6674 59.0933 97.4541 58.8733 97.1807 58.72C96.9141 58.5667 96.6107 58.49 96.2707 58.49C95.9374 58.49 95.6341 58.57 95.3607 58.73C95.0941 58.8833 94.8807 59.1 94.7207 59.38C94.5674 59.66 94.4907 59.9833 94.4907 60.35C94.4907 60.7167 94.5674 61.0433 94.7207 61.33C94.8741 61.61 95.0874 61.83 95.3607 61.99C95.6341 62.1433 95.9374 62.22 96.2707 62.22ZM104.976 60.38C104.976 60.4533 104.969 60.55 104.956 60.67H100.656C100.716 61.1367 100.919 61.5133 101.266 61.8C101.619 62.08 102.056 62.22 102.576 62.22C103.209 62.22 103.719 62.0067 104.106 61.58L104.636 62.2C104.396 62.48 104.096 62.6933 103.736 62.84C103.382 62.9867 102.986 63.06 102.546 63.06C101.986 63.06 101.489 62.9467 101.056 62.72C100.622 62.4867 100.286 62.1633 100.046 61.75C99.8122 61.3367 99.6955 60.87 99.6955 60.35C99.6955 59.8367 99.8088 59.3733 100.036 58.96C100.269 58.5467 100.586 58.2267 100.986 58C101.392 57.7667 101.849 57.65 102.356 57.65C102.862 57.65 103.312 57.7667 103.706 58C104.106 58.2267 104.416 58.5467 104.636 58.96C104.862 59.3733 104.976 59.8467 104.976 60.38ZM102.356 58.46C101.896 58.46 101.509 58.6 101.196 58.88C100.889 59.16 100.709 59.5267 100.656 59.98H104.056C104.002 59.5333 103.819 59.17 103.506 58.89C103.199 58.6033 102.816 58.46 102.356 58.46ZM109.835 60.25C110.521 60.4233 110.865 60.8533 110.865 61.54C110.865 62.0067 110.688 62.3667 110.335 62.62C109.988 62.8733 109.468 63 108.775 63H106.225V57.7H108.685C109.311 57.7 109.801 57.82 110.155 58.06C110.508 58.2933 110.685 58.6267 110.685 59.06C110.685 59.34 110.608 59.5833 110.455 59.79C110.308 59.99 110.101 60.1433 109.835 60.25ZM107.165 59.98H108.605C108.971 59.98 109.248 59.9133 109.435 59.78C109.628 59.6467 109.725 59.4533 109.725 59.2C109.725 58.6933 109.351 58.44 108.605 58.44H107.165V59.98ZM108.705 62.26C109.105 62.26 109.405 62.1967 109.605 62.07C109.805 61.9433 109.905 61.7467 109.905 61.48C109.905 61.2067 109.811 61.0033 109.625 60.87C109.445 60.7367 109.158 60.67 108.765 60.67H107.165V62.26H108.705ZM114.397 63.06C113.871 63.06 113.397 62.9433 112.977 62.71C112.557 62.4767 112.227 62.1567 111.987 61.75C111.754 61.3367 111.637 60.87 111.637 60.35C111.637 59.83 111.754 59.3667 111.987 58.96C112.227 58.5467 112.557 58.2267 112.977 58C113.397 57.7667 113.871 57.65 114.397 57.65C114.924 57.65 115.394 57.7667 115.807 58C116.227 58.2267 116.554 58.5467 116.787 58.96C117.027 59.3667 117.147 59.83 117.147 60.35C117.147 60.87 117.027 61.3367 116.787 61.75C116.554 62.1567 116.227 62.4767 115.807 62.71C115.394 62.9433 114.924 63.06 114.397 63.06ZM114.397 62.22C114.737 62.22 115.041 62.1433 115.307 61.99C115.581 61.83 115.794 61.61 115.947 61.33C116.101 61.0433 116.177 60.7167 116.177 60.35C116.177 59.9833 116.101 59.66 115.947 59.38C115.794 59.0933 115.581 58.8733 115.307 58.72C115.041 58.5667 114.737 58.49 114.397 58.49C114.057 58.49 113.751 58.5667 113.477 58.72C113.211 58.8733 112.997 59.0933 112.837 59.38C112.684 59.66 112.607 59.9833 112.607 60.35C112.607 60.7167 112.684 61.0433 112.837 61.33C112.997 61.61 113.211 61.83 113.477 61.99C113.751 62.1433 114.057 62.22 114.397 62.22ZM123.645 62.16V64.23H122.745V63H118.315V64.23H117.405V62.16H117.685C118.025 62.14 118.258 61.9 118.385 61.44C118.511 60.98 118.598 60.33 118.645 59.49L118.725 57.7H122.835V62.16H123.645ZM119.525 59.56C119.498 60.2267 119.441 60.78 119.355 61.22C119.275 61.6533 119.125 61.9667 118.905 62.16H121.875V58.54H119.575L119.525 59.56ZM124.655 57.7H125.615V59.95H128.635V57.7H129.595V63H128.635V60.78H125.615V63H124.655V57.7ZM133.492 63.06C132.965 63.06 132.492 62.9433 132.072 62.71C131.652 62.4767 131.322 62.1567 131.082 61.75C130.849 61.3367 130.732 60.87 130.732 60.35C130.732 59.83 130.849 59.3667 131.082 58.96C131.322 58.5467 131.652 58.2267 132.072 58C132.492 57.7667 132.965 57.65 133.492 57.65C134.019 57.65 134.489 57.7667 134.902 58C135.322 58.2267 135.649 58.5467 135.882 58.96C136.122 59.3667 136.242 59.83 136.242 60.35C136.242 60.87 136.122 61.3367 135.882 61.75C135.649 62.1567 135.322 62.4767 134.902 62.71C134.489 62.9433 134.019 63.06 133.492 63.06ZM133.492 62.22C133.832 62.22 134.135 62.1433 134.402 61.99C134.675 61.83 134.889 61.61 135.042 61.33C135.195 61.0433 135.272 60.7167 135.272 60.35C135.272 59.9833 135.195 59.66 135.042 59.38C134.889 59.0933 134.675 58.8733 134.402 58.72C134.135 58.5667 133.832 58.49 133.492 58.49C133.152 58.49 132.845 58.5667 132.572 58.72C132.305 58.8733 132.092 59.0933 131.932 59.38C131.779 59.66 131.702 59.9833 131.702 60.35C131.702 60.7167 131.779 61.0433 131.932 61.33C132.092 61.61 132.305 61.83 132.572 61.99C132.845 62.1433 133.152 62.22 133.492 62.22ZM137.388 57.7H138.348V61.56L141.598 57.7H142.468V63H141.508V59.14L138.268 63H137.388V57.7ZM139.868 57.01C139.375 57.01 138.991 56.8933 138.718 56.66C138.445 56.42 138.305 56.0767 138.298 55.63H138.948C138.955 55.8767 139.038 56.0767 139.198 56.23C139.365 56.3767 139.585 56.45 139.858 56.45C140.131 56.45 140.351 56.3767 140.518 56.23C140.685 56.0767 140.771 55.8767 140.778 55.63H141.448C141.441 56.0767 141.298 56.42 141.018 56.66C140.738 56.8933 140.355 57.01 139.868 57.01Z" fill="#111111"/>
<defs>
<filter id="filter0_d_6_25497" x="17" y="4" width="38" height="49" filterUnits="userSpaceOnUse" color-interpolation-filters="sRGB">
<feFlood flood-opacity="0" result="BackgroundImageFix"/>
<feColorMatrix in="SourceAlpha" type="matrix" values="0 0 0 0 0 0 0 0 0 0 0 0 0 0 0 0 0 0 127 0" result="hardAlpha"/>
<feOffset/>
<feGaussianBlur stdDeviation="2"/>
<feComposite in2="hardAlpha" operator="out"/>
<feColorMatrix type="matrix" values="0 0 0 0 0 0 0 0 0 0 0 0 0 0 0 0 0 0 0.25 0"/>
<feBlend mode="normal" in2="BackgroundImageFix" result="effect1_dropShadow_6_25497"/>
<feBlend mode="normal" in="SourceGraphic" in2="effect1_dropShadow_6_25497" result="shape"/>
</filter>
<filter id="filter1_d_6_25497" x="89" y="4" width="38" height="49" filterUnits="userSpaceOnUse" color-interpolation-filters="sRGB">
<feFlood flood-opacity="0" result="BackgroundImageFix"/>
<feColorMatrix in="SourceAlpha" type="matrix" values="0 0 0 0 0 0 0 0 0 0 0 0 0 0 0 0 0 0 127 0" result="hardAlpha"/>
<feOffset/>
<feGaussianBlur stdDeviation="2"/>
<feComposite in2="hardAlpha" operator="out"/>
<feColorMatrix type="matrix" values="0 0 0 0 0 0 0 0 0 0 0 0 0 0 0 0 0 0 0.25 0"/>
<feBlend mode="normal" in2="BackgroundImageFix" result="effect1_dropShadow_6_25497"/>
<feBlend mode="normal" in="SourceGraphic" in2="effect1_dropShadow_6_25497" result="shape"/>
</filter>
<clipPath id="clip0_6_25497">
<rect width="25.1835" height="25.9735" fill="white" transform="translate(50.0657 16.3945) rotate(90)"/>
</clipPath>
<clipPath id="clip1_6_25497">
<rect width="23.4998" height="22.7851" fill="white" transform="translate(96.092 16.9941)"/>
</clipPath>
</defs>
</svg>
