<svg width="169" height="72" viewBox="0 0 169 72" fill="none" xmlns="http://www.w3.org/2000/svg">
<path d="M0 12C0 5.37258 5.37258 0 12 0H72V72H12C5.37258 72 0 66.6274 0 60V12Z" fill="#FEBF21"/>
<g filter="url(#filter0_d_6_25498)">
<path opacity="0.3" d="M16.8857 12.2856L55.1143 12.2856C55.8764 12.2856 56.5 12.9288 56.5 13.7148L56.5 37.2307C56.2032 37.6939 55.6935 38 55.1143 38L16.8857 38C16.3071 38 15.7974 37.6939 15.5 37.2307L15.5 13.7148C15.5006 12.9288 16.1242 12.2856 16.8857 12.2856Z" fill="#383838"/>
<path d="M56.5 36.2864C56.5 37.0718 55.877 37.7143 55.1143 37.7143L16.8857 37.7143C16.1242 37.7143 15.5 37.0718 15.5 36.2864L15.5 9.42916C15.5 8.64315 16.1236 8 16.8857 8L55.1143 8C55.8764 8 56.5 8.64315 56.5 9.42916L56.5 36.2864Z" fill="white"/>
<path d="M35.0928 20.7499C35.0928 21.7431 35.5449 21.9589 35.8112 22.3009C35.1708 21.8235 35.0317 20.9843 33.7299 20.9843C32.7268 20.9843 31.9131 21.8228 31.9131 22.8574C31.9131 23.8914 32.7268 24.73 33.7299 24.73C35.0497 24.73 35.1732 23.8667 35.8381 23.3936C35.5773 23.7628 35.0928 23.9366 35.0928 24.965C35.0928 25.9996 35.9053 26.8382 36.9078 26.8382C37.9116 26.8382 38.7252 25.999 38.7252 24.965C38.7252 23.7152 38.0087 23.696 37.8492 23.106C39.6319 24.0126 39.6684 23.9774 40.087 24.965L40.087 20.7499C39.6684 21.7369 39.6313 21.7029 37.8462 22.6101C37.9991 21.9873 38.7252 22.0071 38.7252 20.7499C38.7252 19.7153 37.9116 18.8767 36.9078 18.8767C35.9053 18.8761 35.0928 19.7153 35.0928 20.7499Z" fill="#383838"/>
<path d="M17.5603 35.6432L21.5579 34.48L21.5579 34.9828L20.9139 35.159L20.9139 36.1299L21.5579 36.3031L21.5579 36.8058L17.5603 35.6432ZM20.4846 35.274L19.4832 35.5424L19.0216 35.6457L19.4832 35.7434L20.4846 36.0143L20.4846 35.274Z" fill="#383838"/>
<path d="M54.4403 10.0717L50.4421 11.2343L50.4421 10.7322L51.0867 10.5559L51.0867 9.58438L50.4421 9.41122L50.4421 8.90845L54.4403 10.0717ZM51.5154 10.4409L52.5168 10.1725L52.9791 10.0692L52.5168 9.97213L51.5154 9.70064L51.5154 10.4409Z" fill="#383838"/>
<path d="M23.823 35.0112C23.823 35.342 23.9736 35.4144 24.0623 35.5288C23.8489 35.3692 23.8021 35.0897 23.3685 35.0897C23.034 35.0897 22.7629 35.3686 22.7629 35.7143C22.7629 36.0594 23.034 36.3389 23.3685 36.3389C23.8087 36.3389 23.85 36.0507 24.0713 35.893C23.9843 36.0155 23.823 36.0742 23.823 36.4168C23.823 36.7619 24.0935 37.0414 24.4281 37.0414C24.7633 37.0414 25.0343 36.7619 25.0343 36.4168C25.0343 36 24.795 35.9938 24.7423 35.7978C25.3359 36.0996 25.3491 36.0885 25.4888 36.4168L25.4888 35.0118C25.3491 35.3414 25.3359 35.3297 24.7417 35.6321C24.7926 35.4249 25.0343 35.4311 25.0343 35.0118C25.0343 34.6667 24.7633 34.3878 24.4281 34.3878C24.0935 34.3872 23.823 34.6667 23.823 35.0112Z" fill="#383838"/>
<path d="M48.1782 10.7031C48.1782 10.3723 48.0271 10.3005 47.9383 10.1861C48.1524 10.345 48.1986 10.6246 48.6327 10.6246C48.9667 10.6246 49.2383 10.3457 49.2383 10.0006C49.2383 9.65551 48.9667 9.37598 48.6327 9.37598C48.1926 9.37598 48.1512 9.66355 47.9299 9.82186C48.0169 9.6988 48.1782 9.64067 48.1782 9.29806C48.1782 8.95237 47.9071 8.67284 47.5726 8.67284C47.2374 8.67284 46.9664 8.95237 46.9664 9.29806C46.9664 9.71426 47.2056 9.72106 47.2584 9.9171C46.6648 9.61593 46.6522 9.62706 46.5125 9.29806L46.5125 10.7025C46.6522 10.3729 46.6647 10.3846 47.259 10.0828C47.2086 10.2906 46.9664 10.2832 46.9664 10.7025C46.9664 11.0482 47.2374 11.3271 47.5726 11.3271C47.9071 11.3271 48.1782 11.0482 48.1782 10.7031Z" fill="#383838"/>
</g>
<g filter="url(#filter1_d_6_25498)">
<path d="M45.0313 22.5L53 15L53 19.5L58.8993 19.5L58.8993 25.5L53 25.5L53 30L45.0313 22.5Z" fill="#FEBF21"/>
</g>
<g filter="url(#filter2_d_6_25498)">
<path d="M26.9687 22.5L19 15L19 19.5L13.1007 19.5L13.1007 25.5L19 25.5L19 30L26.9687 22.5Z" fill="#FEBF21"/>
</g>
<path d="M23.4352 63.08C22.7352 63.08 22.1019 62.9267 21.5352 62.62C20.9752 62.3067 20.5352 61.88 20.2152 61.34C19.8952 60.7933 19.7352 60.18 19.7352 59.5C19.7352 58.82 19.8952 58.21 20.2152 57.67C20.5352 57.1233 20.9786 56.6967 21.5452 56.39C22.1119 56.0767 22.7452 55.92 23.4452 55.92C23.9919 55.92 24.4919 56.0133 24.9452 56.2C25.3986 56.38 25.7852 56.65 26.1052 57.01L25.4552 57.64C24.9286 57.0867 24.2719 56.81 23.4852 56.81C22.9652 56.81 22.4952 56.9267 22.0752 57.16C21.6552 57.3933 21.3252 57.7167 21.0852 58.13C20.8519 58.5367 20.7352 58.9933 20.7352 59.5C20.7352 60.0067 20.8519 60.4667 21.0852 60.88C21.3252 61.2867 21.6552 61.6067 22.0752 61.84C22.4952 62.0733 22.9652 62.19 23.4852 62.19C24.2652 62.19 24.9219 61.91 25.4552 61.35L26.1052 61.98C25.7852 62.34 25.3952 62.6133 24.9352 62.8C24.4819 62.9867 23.9819 63.08 23.4352 63.08ZM29.1284 63.06C28.6017 63.06 28.1284 62.9433 27.7084 62.71C27.2884 62.4767 26.9584 62.1567 26.7184 61.75C26.485 61.3367 26.3684 60.87 26.3684 60.35C26.3684 59.83 26.485 59.3667 26.7184 58.96C26.9584 58.5467 27.2884 58.2267 27.7084 58C28.1284 57.7667 28.6017 57.65 29.1284 57.65C29.655 57.65 30.125 57.7667 30.5384 58C30.9584 58.2267 31.285 58.5467 31.5184 58.96C31.7584 59.3667 31.8784 59.83 31.8784 60.35C31.8784 60.87 31.7584 61.3367 31.5184 61.75C31.285 62.1567 30.9584 62.4767 30.5384 62.71C30.125 62.9433 29.655 63.06 29.1284 63.06ZM29.1284 62.22C29.4684 62.22 29.7717 62.1433 30.0384 61.99C30.3117 61.83 30.525 61.61 30.6784 61.33C30.8317 61.0433 30.9084 60.7167 30.9084 60.35C30.9084 59.9833 30.8317 59.66 30.6784 59.38C30.525 59.0933 30.3117 58.8733 30.0384 58.72C29.7717 58.5667 29.4684 58.49 29.1284 58.49C28.7884 58.49 28.4817 58.5667 28.2084 58.72C27.9417 58.8733 27.7284 59.0933 27.5684 59.38C27.415 59.66 27.3384 59.9833 27.3384 60.35C27.3384 60.7167 27.415 61.0433 27.5684 61.33C27.7284 61.61 27.9417 61.83 28.2084 61.99C28.4817 62.1433 28.7884 62.22 29.1284 62.22ZM35.3346 63.06C34.7946 63.06 34.3113 62.9433 33.8846 62.71C33.4646 62.4767 33.1346 62.1567 32.8946 61.75C32.6546 61.3367 32.5346 60.87 32.5346 60.35C32.5346 59.83 32.6546 59.3667 32.8946 58.96C33.1346 58.5467 33.4646 58.2267 33.8846 58C34.3113 57.7667 34.7946 57.65 35.3346 57.65C35.8146 57.65 36.2413 57.7467 36.6146 57.94C36.9946 58.1333 37.2879 58.4133 37.4946 58.78L36.7646 59.25C36.5979 58.9967 36.3913 58.8067 36.1446 58.68C35.8979 58.5533 35.6246 58.49 35.3246 58.49C34.9779 58.49 34.6646 58.5667 34.3846 58.72C34.1113 58.8733 33.8946 59.0933 33.7346 59.38C33.5813 59.66 33.5046 59.9833 33.5046 60.35C33.5046 60.7233 33.5813 61.0533 33.7346 61.34C33.8946 61.62 34.1113 61.8367 34.3846 61.99C34.6646 62.1433 34.9779 62.22 35.3246 62.22C35.6246 62.22 35.8979 62.1567 36.1446 62.03C36.3913 61.9033 36.5979 61.7133 36.7646 61.46L37.4946 61.92C37.2879 62.2867 36.9946 62.57 36.6146 62.77C36.2413 62.9633 35.8146 63.06 35.3346 63.06ZM43.2094 60.38C43.2094 60.4533 43.2027 60.55 43.1894 60.67H38.8894C38.9494 61.1367 39.1527 61.5133 39.4994 61.8C39.8527 62.08 40.2894 62.22 40.8094 62.22C41.4427 62.22 41.9527 62.0067 42.3394 61.58L42.8694 62.2C42.6294 62.48 42.3294 62.6933 41.9694 62.84C41.616 62.9867 41.2194 63.06 40.7794 63.06C40.2194 63.06 39.7227 62.9467 39.2894 62.72C38.856 62.4867 38.5194 62.1633 38.2794 61.75C38.046 61.3367 37.9294 60.87 37.9294 60.35C37.9294 59.8367 38.0427 59.3733 38.2694 58.96C38.5027 58.5467 38.8194 58.2267 39.2194 58C39.626 57.7667 40.0827 57.65 40.5894 57.65C41.096 57.65 41.546 57.7667 41.9394 58C42.3394 58.2267 42.6494 58.5467 42.8694 58.96C43.096 59.3733 43.2094 59.8467 43.2094 60.38ZM40.5894 58.46C40.1294 58.46 39.7427 58.6 39.4294 58.88C39.1227 59.16 38.9427 59.5267 38.8894 59.98H42.2894C42.236 59.5333 42.0527 59.17 41.7394 58.89C41.4327 58.6033 41.0494 58.46 40.5894 58.46ZM49.7608 62.16V64.23H48.8608V63H44.4308V64.23H43.5208V62.16H43.8008C44.1408 62.14 44.3741 61.9 44.5008 61.44C44.6274 60.98 44.7141 60.33 44.7608 59.49L44.8408 57.7H48.9508V62.16H49.7608ZM45.6408 59.56C45.6141 60.2267 45.5574 60.78 45.4708 61.22C45.3908 61.6533 45.2408 61.9667 45.0208 62.16H47.9908V58.54H45.6908L45.6408 59.56ZM50.7714 57.7H51.7314V61.56L54.9814 57.7H55.8514V63H54.8914V59.14L51.6514 63H50.7714V57.7Z" fill="#111111"/>
<path d="M72 0H132C138.627 0 144 5.37258 144 12V60C144 66.6274 138.627 72 132 72H72V0Z" fill="#3B403F" fill-opacity="0.6"/>
<g filter="url(#filter3_d_6_25498)">
<path opacity="0.3" d="M88.8857 12.2856L127.114 12.2856C127.876 12.2856 128.5 12.9288 128.5 13.7148L128.5 37.2307C128.203 37.6939 127.694 38 127.114 38L88.8857 38C88.3071 38 87.7974 37.6939 87.5 37.2307L87.5 13.7148C87.5006 12.9288 88.1242 12.2856 88.8857 12.2856Z" fill="#383838"/>
<path d="M128.5 36.2864C128.5 37.0718 127.877 37.7143 127.114 37.7143L88.8857 37.7143C88.1242 37.7143 87.5 37.0718 87.5 36.2864L87.5 9.42916C87.5 8.64315 88.1236 8 88.8857 8L127.114 8C127.876 8 128.5 8.64315 128.5 9.42916L128.5 36.2864Z" fill="white"/>
<path d="M107.093 20.7499C107.093 21.7431 107.545 21.9589 107.811 22.3009C107.171 21.8235 107.032 20.9843 105.73 20.9843C104.727 20.9843 103.913 21.8228 103.913 22.8574C103.913 23.8914 104.727 24.73 105.73 24.73C107.05 24.73 107.173 23.8667 107.838 23.3936C107.577 23.7628 107.093 23.9366 107.093 24.965C107.093 25.9996 107.905 26.8382 108.908 26.8382C109.912 26.8382 110.725 25.999 110.725 24.965C110.725 23.7152 110.009 23.696 109.849 23.106C111.632 24.0126 111.668 23.9774 112.087 24.965L112.087 20.7499C111.668 21.7369 111.631 21.7029 109.846 22.6101C109.999 21.9873 110.725 22.0071 110.725 20.7499C110.725 19.7153 109.912 18.8767 108.908 18.8767C107.905 18.8761 107.093 19.7153 107.093 20.7499Z" fill="#383838"/>
<path d="M89.5603 35.6432L93.5579 34.48L93.5579 34.9828L92.9139 35.159L92.9139 36.1299L93.5579 36.3031L93.5579 36.8058L89.5603 35.6432ZM92.4846 35.274L91.4832 35.5424L91.0216 35.6457L91.4832 35.7434L92.4846 36.0143L92.4846 35.274Z" fill="#383838"/>
<path d="M126.44 10.0717L122.442 11.2343L122.442 10.7322L123.087 10.5559L123.087 9.58438L122.442 9.41122L122.442 8.90845L126.44 10.0717ZM123.515 10.4409L124.517 10.1725L124.979 10.0692L124.517 9.97213L123.515 9.70064L123.515 10.4409Z" fill="#383838"/>
<path d="M95.823 35.0112C95.823 35.342 95.9736 35.4144 96.0623 35.5288C95.8489 35.3692 95.8021 35.0897 95.3685 35.0897C95.034 35.0897 94.7629 35.3686 94.7629 35.7143C94.7629 36.0594 95.034 36.3389 95.3685 36.3389C95.8087 36.3389 95.85 36.0507 96.0713 35.893C95.9843 36.0155 95.823 36.0742 95.823 36.4168C95.823 36.7619 96.0935 37.0414 96.4281 37.0414C96.7633 37.0414 97.0343 36.7619 97.0343 36.4168C97.0343 36 96.795 35.9938 96.7423 35.7978C97.3359 36.0996 97.3491 36.0885 97.4888 36.4168L97.4888 35.0118C97.3491 35.3414 97.3359 35.3297 96.7417 35.6321C96.7926 35.4249 97.0343 35.4311 97.0343 35.0118C97.0343 34.6667 96.7633 34.3878 96.4281 34.3878C96.0935 34.3872 95.823 34.6667 95.823 35.0112Z" fill="#383838"/>
<path d="M120.178 10.7031C120.178 10.3723 120.027 10.3005 119.938 10.1861C120.152 10.345 120.199 10.6246 120.633 10.6246C120.967 10.6246 121.238 10.3457 121.238 10.0006C121.238 9.65551 120.967 9.37598 120.633 9.37598C120.193 9.37598 120.151 9.66355 119.93 9.82186C120.017 9.6988 120.178 9.64067 120.178 9.29806C120.178 8.95237 119.907 8.67284 119.573 8.67284C119.237 8.67284 118.966 8.95237 118.966 9.29806C118.966 9.71426 119.206 9.72106 119.258 9.9171C118.665 9.61593 118.652 9.62706 118.512 9.29806L118.512 10.7025C118.652 10.3729 118.665 10.3846 119.259 10.0828C119.209 10.2906 118.966 10.2832 118.966 10.7025C118.966 11.0482 119.237 11.3271 119.573 11.3271C119.907 11.3271 120.178 11.0482 120.178 10.7031Z" fill="#383838"/>
</g>
<g filter="url(#filter4_d_6_25498)">
<path d="M117.031 22.5L125 15L125 19.5L130.899 19.5L130.899 25.5L125 25.5L125 30L117.031 22.5Z" fill="#383838"/>
<path d="M125 20L124.5 20L124.5 19.5L124.5 16.1572L117.761 22.5L124.5 28.8428L124.5 25.5L124.5 25L125 25L130.399 25L130.399 20L125 20Z" stroke="white"/>
</g>
<g filter="url(#filter5_d_6_25498)">
<path d="M107.5 19.4688L100 11.5H104.5L104.5 5.60069H110.5L110.5 11.5H115L107.5 19.4688Z" fill="#383838"/>
<path d="M105 11.5L105 12H104.5H101.157L107.5 18.7392L113.843 12H110.5H110L110 11.5L110 6.10069H105L105 11.5Z" stroke="white"/>
</g>
<g filter="url(#filter6_d_6_25498)">
<path d="M107.5 26.5312L100 34.5H104.5L104.5 40.3993H110.5L110.5 34.5H115L107.5 26.5312Z" fill="#383838"/>
<path d="M105 34.5L105 34H104.5H101.157L107.5 27.2608L113.843 34H110.5H110L110 34.5L110 39.8993H105L105 34.5Z" stroke="white"/>
</g>
<g filter="url(#filter7_d_6_25498)">
<path d="M98.9687 22.5L91 15L91 19.5L85.1007 19.5L85.1007 25.5L91 25.5L91 30L98.9687 22.5Z" fill="#383838"/>
<path d="M91 20L91.5 20L91.5 19.5L91.5 16.1572L98.2392 22.5L91.5 28.8428L91.5 25.5L91.5 25L91 25L85.6007 25L85.6007 20L91 20Z" stroke="white"/>
</g>
<path d="M104.998 59.37C105.471 59.4833 105.828 59.6867 106.068 59.98C106.314 60.2667 106.438 60.6367 106.438 61.09C106.438 61.6967 106.214 62.1667 105.768 62.5C105.328 62.8333 104.684 63 103.838 63H100.638V56H103.648C104.414 56 105.011 56.1567 105.438 56.47C105.871 56.7767 106.088 57.22 106.088 57.8C106.088 58.18 105.991 58.5033 105.798 58.77C105.611 59.0367 105.344 59.2367 104.998 59.37ZM101.628 59.08H103.578C104.064 59.08 104.434 58.9833 104.688 58.79C104.948 58.5967 105.078 58.3133 105.078 57.94C105.078 57.5667 104.948 57.2833 104.688 57.09C104.428 56.89 104.058 56.79 103.578 56.79H101.628V59.08ZM103.818 62.21C104.891 62.21 105.428 61.81 105.428 61.01C105.428 60.61 105.291 60.3167 105.018 60.13C104.751 59.9367 104.351 59.84 103.818 59.84H101.628V62.21H103.818ZM110.018 63.06C109.478 63.06 108.995 62.9433 108.568 62.71C108.148 62.4767 107.818 62.1567 107.578 61.75C107.338 61.3367 107.218 60.87 107.218 60.35C107.218 59.83 107.338 59.3667 107.578 58.96C107.818 58.5467 108.148 58.2267 108.568 58C108.995 57.7667 109.478 57.65 110.018 57.65C110.498 57.65 110.925 57.7467 111.298 57.94C111.678 58.1333 111.972 58.4133 112.178 58.78L111.448 59.25C111.282 58.9967 111.075 58.8067 110.828 58.68C110.582 58.5533 110.308 58.49 110.008 58.49C109.662 58.49 109.348 58.5667 109.068 58.72C108.795 58.8733 108.578 59.0933 108.418 59.38C108.265 59.66 108.188 59.9833 108.188 60.35C108.188 60.7233 108.265 61.0533 108.418 61.34C108.578 61.62 108.795 61.8367 109.068 61.99C109.348 62.1433 109.662 62.22 110.008 62.22C110.308 62.22 110.582 62.1567 110.828 62.03C111.075 61.9033 111.282 61.7133 111.448 61.46L112.178 61.92C111.972 62.2867 111.678 62.57 111.298 62.77C110.925 62.9633 110.498 63.06 110.018 63.06ZM117.893 60.38C117.893 60.4533 117.886 60.55 117.873 60.67H113.573C113.633 61.1367 113.836 61.5133 114.183 61.8C114.536 62.08 114.973 62.22 115.493 62.22C116.126 62.22 116.636 62.0067 117.023 61.58L117.553 62.2C117.313 62.48 117.013 62.6933 116.653 62.84C116.3 62.9867 115.903 63.06 115.463 63.06C114.903 63.06 114.406 62.9467 113.973 62.72C113.54 62.4867 113.203 62.1633 112.963 61.75C112.73 61.3367 112.613 60.87 112.613 60.35C112.613 59.8367 112.726 59.3733 112.953 58.96C113.186 58.5467 113.503 58.2267 113.903 58C114.31 57.7667 114.766 57.65 115.273 57.65C115.78 57.65 116.23 57.7667 116.623 58C117.023 58.2267 117.333 58.5467 117.553 58.96C117.78 59.3733 117.893 59.8467 117.893 60.38ZM115.273 58.46C114.813 58.46 114.426 58.6 114.113 58.88C113.806 59.16 113.626 59.5267 113.573 59.98H116.973C116.92 59.5333 116.736 59.17 116.423 58.89C116.116 58.6033 115.733 58.46 115.273 58.46Z" fill="white"/>
<defs>
<filter id="filter0_d_6_25498" x="11.5" y="4" width="49" height="38" filterUnits="userSpaceOnUse" color-interpolation-filters="sRGB">
<feFlood flood-opacity="0" result="BackgroundImageFix"/>
<feColorMatrix in="SourceAlpha" type="matrix" values="0 0 0 0 0 0 0 0 0 0 0 0 0 0 0 0 0 0 127 0" result="hardAlpha"/>
<feOffset/>
<feGaussianBlur stdDeviation="2"/>
<feComposite in2="hardAlpha" operator="out"/>
<feColorMatrix type="matrix" values="0 0 0 0 0 0 0 0 0 0 0 0 0 0 0 0 0 0 0.25 0"/>
<feBlend mode="normal" in2="BackgroundImageFix" result="effect1_dropShadow_6_25498"/>
<feBlend mode="normal" in="SourceGraphic" in2="effect1_dropShadow_6_25498" result="shape"/>
</filter>
<filter id="filter1_d_6_25498" x="41.0312" y="11" width="21.8682" height="23" filterUnits="userSpaceOnUse" color-interpolation-filters="sRGB">
<feFlood flood-opacity="0" result="BackgroundImageFix"/>
<feColorMatrix in="SourceAlpha" type="matrix" values="0 0 0 0 0 0 0 0 0 0 0 0 0 0 0 0 0 0 127 0" result="hardAlpha"/>
<feOffset/>
<feGaussianBlur stdDeviation="2"/>
<feComposite in2="hardAlpha" operator="out"/>
<feColorMatrix type="matrix" values="0 0 0 0 0 0 0 0 0 0 0 0 0 0 0 0 0 0 0.25 0"/>
<feBlend mode="normal" in2="BackgroundImageFix" result="effect1_dropShadow_6_25498"/>
<feBlend mode="normal" in="SourceGraphic" in2="effect1_dropShadow_6_25498" result="shape"/>
</filter>
<filter id="filter2_d_6_25498" x="9.10059" y="11" width="21.8682" height="23" filterUnits="userSpaceOnUse" color-interpolation-filters="sRGB">
<feFlood flood-opacity="0" result="BackgroundImageFix"/>
<feColorMatrix in="SourceAlpha" type="matrix" values="0 0 0 0 0 0 0 0 0 0 0 0 0 0 0 0 0 0 127 0" result="hardAlpha"/>
<feOffset/>
<feGaussianBlur stdDeviation="2"/>
<feComposite in2="hardAlpha" operator="out"/>
<feColorMatrix type="matrix" values="0 0 0 0 0 0 0 0 0 0 0 0 0 0 0 0 0 0 0.25 0"/>
<feBlend mode="normal" in2="BackgroundImageFix" result="effect1_dropShadow_6_25498"/>
<feBlend mode="normal" in="SourceGraphic" in2="effect1_dropShadow_6_25498" result="shape"/>
</filter>
<filter id="filter3_d_6_25498" x="83.5" y="4" width="49" height="38" filterUnits="userSpaceOnUse" color-interpolation-filters="sRGB">
<feFlood flood-opacity="0" result="BackgroundImageFix"/>
<feColorMatrix in="SourceAlpha" type="matrix" values="0 0 0 0 0 0 0 0 0 0 0 0 0 0 0 0 0 0 127 0" result="hardAlpha"/>
<feOffset/>
<feGaussianBlur stdDeviation="2"/>
<feComposite in2="hardAlpha" operator="out"/>
<feColorMatrix type="matrix" values="0 0 0 0 0 0 0 0 0 0 0 0 0 0 0 0 0 0 0.25 0"/>
<feBlend mode="normal" in2="BackgroundImageFix" result="effect1_dropShadow_6_25498"/>
<feBlend mode="normal" in="SourceGraphic" in2="effect1_dropShadow_6_25498" result="shape"/>
</filter>
<filter id="filter4_d_6_25498" x="113.031" y="11" width="21.8682" height="23" filterUnits="userSpaceOnUse" color-interpolation-filters="sRGB">
<feFlood flood-opacity="0" result="BackgroundImageFix"/>
<feColorMatrix in="SourceAlpha" type="matrix" values="0 0 0 0 0 0 0 0 0 0 0 0 0 0 0 0 0 0 127 0" result="hardAlpha"/>
<feOffset/>
<feGaussianBlur stdDeviation="2"/>
<feComposite in2="hardAlpha" operator="out"/>
<feColorMatrix type="matrix" values="0 0 0 0 0 0 0 0 0 0 0 0 0 0 0 0 0 0 0.25 0"/>
<feBlend mode="normal" in2="BackgroundImageFix" result="effect1_dropShadow_6_25498"/>
<feBlend mode="normal" in="SourceGraphic" in2="effect1_dropShadow_6_25498" result="shape"/>
</filter>
<filter id="filter5_d_6_25498" x="96" y="1.60071" width="23" height="21.868" filterUnits="userSpaceOnUse" color-interpolation-filters="sRGB">
<feFlood flood-opacity="0" result="BackgroundImageFix"/>
<feColorMatrix in="SourceAlpha" type="matrix" values="0 0 0 0 0 0 0 0 0 0 0 0 0 0 0 0 0 0 127 0" result="hardAlpha"/>
<feOffset/>
<feGaussianBlur stdDeviation="2"/>
<feComposite in2="hardAlpha" operator="out"/>
<feColorMatrix type="matrix" values="0 0 0 0 0 0 0 0 0 0 0 0 0 0 0 0 0 0 0.25 0"/>
<feBlend mode="normal" in2="BackgroundImageFix" result="effect1_dropShadow_6_25498"/>
<feBlend mode="normal" in="SourceGraphic" in2="effect1_dropShadow_6_25498" result="shape"/>
</filter>
<filter id="filter6_d_6_25498" x="96" y="22.5312" width="23" height="21.868" filterUnits="userSpaceOnUse" color-interpolation-filters="sRGB">
<feFlood flood-opacity="0" result="BackgroundImageFix"/>
<feColorMatrix in="SourceAlpha" type="matrix" values="0 0 0 0 0 0 0 0 0 0 0 0 0 0 0 0 0 0 127 0" result="hardAlpha"/>
<feOffset/>
<feGaussianBlur stdDeviation="2"/>
<feComposite in2="hardAlpha" operator="out"/>
<feColorMatrix type="matrix" values="0 0 0 0 0 0 0 0 0 0 0 0 0 0 0 0 0 0 0.25 0"/>
<feBlend mode="normal" in2="BackgroundImageFix" result="effect1_dropShadow_6_25498"/>
<feBlend mode="normal" in="SourceGraphic" in2="effect1_dropShadow_6_25498" result="shape"/>
</filter>
<filter id="filter7_d_6_25498" x="81.1006" y="11" width="21.8682" height="23" filterUnits="userSpaceOnUse" color-interpolation-filters="sRGB">
<feFlood flood-opacity="0" result="BackgroundImageFix"/>
<feColorMatrix in="SourceAlpha" type="matrix" values="0 0 0 0 0 0 0 0 0 0 0 0 0 0 0 0 0 0 127 0" result="hardAlpha"/>
<feOffset/>
<feGaussianBlur stdDeviation="2"/>
<feComposite in2="hardAlpha" operator="out"/>
<feColorMatrix type="matrix" values="0 0 0 0 0 0 0 0 0 0 0 0 0 0 0 0 0 0 0.25 0"/>
<feBlend mode="normal" in2="BackgroundImageFix" result="effect1_dropShadow_6_25498"/>
<feBlend mode="normal" in="SourceGraphic" in2="effect1_dropShadow_6_25498" result="shape"/>
</filter>
</defs>
</svg>
