<svg width="260" height="52" viewBox="0 0 260 52" fill="none" xmlns="http://www.w3.org/2000/svg">
<rect width="260" height="52" rx="20" fill="#FEBF21"/>
<path fill-rule="evenodd" clip-rule="evenodd" d="M42.4598 20.0064C42.3691 20.0011 42.2726 19.999 42.1702 20H38.1302C34.8214 20 31.991 22.6048 31.991 26C31.991 29.3952 34.823 32 38.1302 32H42.1702C42.2726 32.0011 42.3696 31.999 42.4614 31.9936C43.1414 31.9526 43.7833 31.6658 44.2676 31.1866C44.7518 30.7073 45.0453 30.0684 45.0934 29.3888C45.0998 29.2928 45.0998 29.1888 45.0998 29.0928V22.9072C45.0998 22.8112 45.0998 22.7072 45.0934 22.6112C45.0453 21.9316 44.7518 21.2927 44.2676 20.8135C43.7833 20.3343 43.1398 20.0474 42.4598 20.0064ZM37.7766 27.6C38.6278 27.6 39.3174 26.8832 39.3174 26C39.3174 25.1168 38.6278 24.4 37.7766 24.4C36.9238 24.4 36.2342 25.1168 36.2342 26C36.2342 26.8832 36.9238 27.6 37.7766 27.6Z" fill="#111111"/>
<path fill-rule="evenodd" clip-rule="evenodd" d="M42.1692 34.4C42.2245 34.3978 42.2796 34.4086 42.3299 34.4317C42.3802 34.4547 42.4244 34.4893 42.4589 34.5327C42.4933 34.576 42.5171 34.6269 42.5282 34.6811C42.5393 34.7353 42.5374 34.7914 42.5228 34.8448C42.2028 35.984 41.6924 36.9568 40.8748 37.7728C39.6764 38.9728 38.158 39.5024 36.2828 39.7552C34.4588 40 32.1308 40 29.19 40H25.8108C22.87 40 20.5404 40 18.718 39.7552C16.8428 39.5024 15.3244 38.9712 14.126 37.7744C12.9292 36.576 12.398 35.0576 12.1452 33.1824C11.9004 31.3584 11.9004 29.0304 11.9004 26.0896V25.9104C11.9004 22.9696 11.9004 20.64 12.1452 18.816C12.398 16.9408 12.9292 15.4224 14.126 14.224C15.3244 13.0272 16.8428 12.496 18.718 12.2432C20.542 12 22.87 12 25.8108 12H29.19C32.1308 12 34.4604 12 36.2828 12.2448C38.158 12.4976 39.6764 13.0288 40.8748 14.2256C41.6924 15.0448 42.2028 16.016 42.5228 17.1552C42.5374 17.2086 42.5393 17.2647 42.5282 17.3189C42.5171 17.3731 42.4933 17.424 42.4589 17.4673C42.4244 17.5107 42.3802 17.5453 42.3299 17.5683C42.2796 17.5914 42.2245 17.6022 42.1692 17.6H38.1308C33.5916 17.6 29.5916 21.184 29.5916 26C29.5916 30.816 33.5916 34.4 38.1308 34.4H42.1692ZM17.9004 18.4C17.5821 18.4 17.2769 18.5264 17.0519 18.7515C16.8268 18.9765 16.7004 19.2817 16.7004 19.6C16.7004 19.9183 16.8268 20.2235 17.0519 20.4485C17.2769 20.6736 17.5821 20.8 17.9004 20.8H24.3004C24.6187 20.8 24.9239 20.6736 25.1489 20.4485C25.374 20.2235 25.5004 19.9183 25.5004 19.6C25.5004 19.2817 25.374 18.9765 25.1489 18.7515C24.9239 18.5264 24.6187 18.4 24.3004 18.4H17.9004Z" fill="#111111"/>
<path d="M68.6996 20.8V32H66.1236V22.912H61.0676V32H58.4916V20.8H68.6996ZM75.2776 32.128C74.3709 32.128 73.5549 31.9413 72.8296 31.568C72.1149 31.184 71.5549 30.656 71.1496 29.984C70.7443 29.312 70.5416 28.5493 70.5416 27.696C70.5416 26.8427 70.7443 26.08 71.1496 25.408C71.5549 24.736 72.1149 24.2133 72.8296 23.84C73.5549 23.456 74.3709 23.264 75.2776 23.264C76.1843 23.264 76.9949 23.456 77.7096 23.84C78.4243 24.2133 78.9843 24.736 79.3896 25.408C79.7949 26.08 79.9976 26.8427 79.9976 27.696C79.9976 28.5493 79.7949 29.312 79.3896 29.984C78.9843 30.656 78.4243 31.184 77.7096 31.568C76.9949 31.9413 76.1843 32.128 75.2776 32.128ZM75.2776 30.08C75.9176 30.08 76.4403 29.8667 76.8456 29.44C77.2616 29.0027 77.4696 28.4213 77.4696 27.696C77.4696 26.9707 77.2616 26.3947 76.8456 25.968C76.4403 25.5307 75.9176 25.312 75.2776 25.312C74.6376 25.312 74.1096 25.5307 73.6936 25.968C73.2776 26.3947 73.0696 26.9707 73.0696 27.696C73.0696 28.4213 73.2776 29.0027 73.6936 29.44C74.1096 29.8667 74.6376 30.08 75.2776 30.08ZM91.1989 29.952V33.856H88.8789V32H82.8309V33.856H80.5109V29.952H80.8629C81.3963 29.9413 81.7643 29.6267 81.9669 29.008C82.1696 28.3893 82.2976 27.5093 82.3509 26.368L82.4629 23.392H89.9669V29.952H91.1989ZM84.6069 26.544C84.5749 27.4187 84.5056 28.1333 84.3989 28.688C84.3029 29.2427 84.1163 29.664 83.8389 29.952H87.4709V25.44H84.6549L84.6069 26.544ZM96.5233 28.736H95.2273V32H92.7313V23.392H95.2273V26.736H96.5713L98.9073 23.392H101.563L98.5553 27.52L101.771 32H98.8273L96.5233 28.736ZM111.215 23.392V32H108.719V25.44H105.999L105.919 26.96C105.876 28.0907 105.769 29.0293 105.599 29.776C105.428 30.5227 105.151 31.1093 104.767 31.536C104.383 31.9627 103.849 32.176 103.167 32.176C102.804 32.176 102.372 32.112 101.871 31.984L101.999 29.936C102.169 29.9573 102.292 29.968 102.367 29.968C102.74 29.968 103.017 29.8347 103.199 29.568C103.391 29.2907 103.519 28.944 103.583 28.528C103.647 28.1013 103.695 27.5413 103.727 26.848L103.855 23.392H111.215ZM121.72 23.264C122.595 23.264 123.379 23.456 124.072 23.84C124.766 24.2133 125.31 24.736 125.704 25.408C126.099 26.08 126.296 26.8427 126.296 27.696C126.296 28.5493 126.099 29.312 125.704 29.984C125.31 30.656 124.766 31.184 124.072 31.568C123.379 31.9413 122.595 32.128 121.72 32.128C120.963 32.128 120.27 31.9893 119.64 31.712C119.011 31.424 118.488 31.024 118.072 30.512C117.656 29.9893 117.379 29.392 117.24 28.72H116.056V32H113.576V23.392H116.056V26.56H117.256C117.502 25.5573 118.024 24.7573 118.824 24.16C119.624 23.5627 120.59 23.264 121.72 23.264ZM121.72 30.08C122.328 30.08 122.83 29.8667 123.224 29.44C123.63 29.0027 123.832 28.4213 123.832 27.696C123.832 26.96 123.63 26.3787 123.224 25.952C122.83 25.5253 122.328 25.312 121.72 25.312C121.102 25.312 120.59 25.5253 120.184 25.952C119.79 26.3787 119.592 26.96 119.592 27.696C119.592 28.4213 119.79 29.0027 120.184 29.44C120.59 29.8667 121.102 30.08 121.72 30.08ZM135.735 23.392V32H133.239V28.8C132.514 29.1627 131.714 29.344 130.839 29.344C129.676 29.344 128.796 29.0827 128.199 28.56C127.612 28.0267 127.319 27.2053 127.319 26.096V23.392H129.815V25.936C129.815 26.4587 129.948 26.8373 130.215 27.072C130.492 27.3067 130.887 27.424 131.399 27.424C132.05 27.424 132.663 27.2853 133.239 27.008V23.392H135.735ZM138.093 23.392H140.573V28.512L144.765 23.392H147.053V32H144.573V26.88L140.397 32H138.093V23.392ZM156.646 25.44H153.734V32H151.254V25.44H148.342V23.392H156.646V25.44ZM162.594 26.144C163.714 26.1547 164.573 26.4107 165.17 26.912C165.768 27.4027 166.066 28.1013 166.066 29.008C166.066 29.9573 165.73 30.6987 165.058 31.232C164.397 31.7547 163.464 32.016 162.258 32.016L157.938 32V23.392H160.418V26.144H162.594ZM162.034 30.24C162.514 30.2507 162.882 30.1493 163.138 29.936C163.394 29.7227 163.522 29.4027 163.522 28.976C163.522 28.56 163.394 28.256 163.138 28.064C162.893 27.872 162.525 27.7707 162.034 27.76L160.418 27.744V30.24H162.034ZM175.872 28.736H174.576V32H172.08V23.392H174.576V26.736H175.92L178.256 23.392H180.912L177.904 27.52L181.12 32H178.176L175.872 28.736ZM186.074 32.128C185.167 32.128 184.351 31.9413 183.626 31.568C182.911 31.184 182.351 30.656 181.946 29.984C181.541 29.312 181.338 28.5493 181.338 27.696C181.338 26.8427 181.541 26.08 181.946 25.408C182.351 24.736 182.911 24.2133 183.626 23.84C184.351 23.456 185.167 23.264 186.074 23.264C186.981 23.264 187.791 23.456 188.506 23.84C189.221 24.2133 189.781 24.736 190.186 25.408C190.591 26.08 190.794 26.8427 190.794 27.696C190.794 28.5493 190.591 29.312 190.186 29.984C189.781 30.656 189.221 31.184 188.506 31.568C187.791 31.9413 186.981 32.128 186.074 32.128ZM186.074 30.08C186.714 30.08 187.237 29.8667 187.642 29.44C188.058 29.0027 188.266 28.4213 188.266 27.696C188.266 26.9707 188.058 26.3947 187.642 25.968C187.237 25.5307 186.714 25.312 186.074 25.312C185.434 25.312 184.906 25.5307 184.49 25.968C184.074 26.3947 183.866 26.9707 183.866 27.696C183.866 28.4213 184.074 29.0027 184.49 29.44C184.906 29.8667 185.434 30.08 186.074 30.08ZM205.608 23.392V32H192.472V23.392H194.952V29.952H197.816V23.392H200.296V29.952H203.128V23.392H205.608ZM216.333 27.728C216.333 27.76 216.317 27.984 216.285 28.4H209.773C209.89 28.9333 210.168 29.3547 210.605 29.664C211.042 29.9733 211.586 30.128 212.237 30.128C212.685 30.128 213.08 30.064 213.421 29.936C213.773 29.7973 214.098 29.584 214.397 29.296L215.725 30.736C214.914 31.664 213.73 32.128 212.173 32.128C211.202 32.128 210.344 31.9413 209.597 31.568C208.85 31.184 208.274 30.656 207.869 29.984C207.464 29.312 207.261 28.5493 207.261 27.696C207.261 26.8533 207.458 26.096 207.853 25.424C208.258 24.7413 208.808 24.2133 209.501 23.84C210.205 23.456 210.989 23.264 211.853 23.264C212.696 23.264 213.458 23.4453 214.141 23.808C214.824 24.1707 215.357 24.6933 215.741 25.376C216.136 26.048 216.333 26.832 216.333 27.728ZM211.869 25.152C211.304 25.152 210.829 25.312 210.445 25.632C210.061 25.952 209.826 26.3893 209.741 26.944H213.981C213.896 26.4 213.661 25.968 213.277 25.648C212.893 25.3173 212.424 25.152 211.869 25.152ZM226.386 23.392V32H223.89V25.44H221.17L221.09 26.96C221.047 28.0907 220.941 29.0293 220.77 29.776C220.599 30.5227 220.322 31.1093 219.938 31.536C219.554 31.9627 219.021 32.176 218.338 32.176C217.975 32.176 217.543 32.112 217.042 31.984L217.17 29.936C217.341 29.9573 217.463 29.968 217.538 29.968C217.911 29.968 218.189 29.8347 218.37 29.568C218.562 29.2907 218.69 28.944 218.754 28.528C218.818 28.1013 218.866 27.5413 218.898 26.848L219.026 23.392H226.386ZM237.116 27.728C237.116 27.76 237.1 27.984 237.068 28.4H230.556C230.673 28.9333 230.95 29.3547 231.388 29.664C231.825 29.9733 232.369 30.128 233.02 30.128C233.468 30.128 233.862 30.064 234.204 29.936C234.556 29.7973 234.881 29.584 235.18 29.296L236.508 30.736C235.697 31.664 234.513 32.128 232.956 32.128C231.985 32.128 231.126 31.9413 230.38 31.568C229.633 31.184 229.057 30.656 228.652 29.984C228.246 29.312 228.044 28.5493 228.044 27.696C228.044 26.8533 228.241 26.096 228.636 25.424C229.041 24.7413 229.59 24.2133 230.284 23.84C230.988 23.456 231.772 23.264 232.636 23.264C233.478 23.264 234.241 23.4453 234.924 23.808C235.606 24.1707 236.14 24.6933 236.524 25.376C236.918 26.048 237.116 26.832 237.116 27.728ZM232.652 25.152C232.086 25.152 231.612 25.312 231.228 25.632C230.844 25.952 230.609 26.3893 230.524 26.944H234.764C234.678 26.4 234.444 25.968 234.06 25.648C233.676 25.3173 233.206 25.152 232.652 25.152ZM242.783 28.736H241.487V32H238.991V23.392H241.487V26.736H242.831L245.167 23.392H247.823L244.815 27.52L248.031 32H245.087L242.783 28.736Z" fill="#111111"/>
</svg>
